<svg xmlns="http://www.w3.org/2000/svg" xmlns:xlink="http://www.w3.org/1999/xlink" width="167.608" height="402.1" viewBox="0 0 125.706 301.575"><defs><path id="a" d="M.373.378C.355.415.326.442.281.442.164.442.04.295.04.15c0-.094.055-.16.133-.16.02 0 .07.004.13.075A.09.09 0 0 1 .394-.01c.035 0 .058.023.074.055.017.036.03.097.03.1 0 .01-.009.01-.012.01C.476.153.475.148.472.134.455.07.437.011.396.011c-.027 0-.03.026-.03.046 0 .022.002.03.013.074l.022.09.036.14c.007.028.007.03.007.034Q.442.421.415.422C.391.422.376.4.373.378M.308.12C.303.101.303.1.288.082.244.027.203.012.175.012c-.05 0-.064.054-.064.093 0 .05.032.173.055.22C.197.382.242.42.282.42.347.42.361.338.361.332q0-.01-.003-.017z"/><path id="b" d="M.239.683c0 .001 0 .011-.013.011C.203.694.13.686.104.684.096.684.085.682.085.664c0-.012.009-.012.024-.012.048 0 .05-.007.05-.017C.159.628.15.595.145.573L.063.247C.051.197.047.181.047.147.047.05.1-.012.174-.012c.118 0 .241.15.241.293 0 .091-.053.16-.133.16C.236.442.195.413.165.382zM.145.305C.151.327.151.33.16.34c.049.065.094.08.12.08C.316.42.343.39.343.326A.7.7 0 0 0 .292.114C.259.047.213.011.174.011.14.011.107.038.107.112c0 .02 0 .038.016.101z"/><path id="c" d="M.396.38C.38.38.366.38.352.366A.05.05 0 0 1 .334.327c0-.024.018-.035.037-.035.029 0 .056.024.056.064 0 .05-.047.086-.118.086C.174.442.041.3.041.158c0-.09.058-.169.162-.169.143 0 .227.106.227.118Q.429.118.418.12.412.121.405.11C.326.011.217.011.205.011c-.063 0-.09.05-.09.11 0 .04.02.137.054.199.031.057.086.1.141.1C.344.42.382.407.396.38"/><path id="d" d="M.179.115C.139.048.1.034.056.03.044.03.035.03.035.011q0-.01.013-.011l.086.003.1-.003C.24 0 .253 0 .253.019.253.03.244.031.237.031.214.033.19.041.19.066q.001.017.014.037L.28.23h.251L.547.064C.547.034.495.03.475.03c-.014 0-.024 0-.024-.02C.451 0 .463 0 .465 0L.59.003.703 0c.006 0 .018 0 .018.02 0 .011-.01.011-.023.011-.062 0-.062.007-.065.036L.572.692C.57.712.57.716.553.716.537.716.533.709.527.699zm.12.147.197.33.032-.33z"/><path id="e" d="M.422.382a.12.12 0 0 1-.103.06C.191.441.061.3.061.155.061.06.126-.01.212-.01c.054 0 .102.031.142.07.019-.06.077-.07.103-.07.036 0 .061.022.079.053a.4.4 0 0 1 .035.1c0 .013-.013.013-.016.013C.541.156.54.152.533.126.521.076.502.017.46.017.434.018.427.04.427.068c0 .016.008.052.015.078l.022.09.02.076C.49.338.502.385.502.39c0 .022-.018.032-.034.032a.05.05 0 0 1-.046-.04M.358.125C.351.097.329.077.307.058a.16.16 0 0 0-.092-.04C.178.018.142.044.142.115c0 .053.029.163.052.203.046.08.097.095.125.095.07 0 .089-.076.089-.087L.405.312z"/><path id="f" d="M.264.664.268.68c0 .005-.004.014-.016.014-.02 0-.103-.008-.128-.01C.116.684.102.682.102.661c0-.014.014-.014.026-.014C.176.647.176.64.176.632L.16.562.137.47.071.204C.066.18.066.167.066.155c0-.1.064-.165.147-.165.125 0 .258.136.258.284 0 .117-.081.167-.15.167A.2.2 0 0 1 .195.386zM.214.018C.165.018.137.061.137.12c0 .037.009.071.037.184.006.02.006.021.025.043.038.044.083.066.119.066.039 0 .073-.029.073-.097a.6.6 0 0 0-.052-.2C.315.065.265.017.214.017"/><path id="g" d="M.313.664.317.68c0 .005-.004.014-.016.014-.02 0-.103-.008-.128-.01C.165.684.151.682.151.661c0-.014.014-.014.026-.014C.225.647.225.64.225.632q0-.01-.004-.022L.08.044.075.022c0-.015.012-.032.034-.032.027 0 .04.02.046.042l.049.194C.275.22.332.196.332.144L.33.124C.326.11.326.104.326.094c0-.072.058-.104.106-.104.097 0 .127.152.127.153 0 .013-.013.013-.016.013C.529.156.528.151.523.132.511.09.484.018.435.018.408.018.4.043.4.07.4.087.4.09.406.115l.005.031c0 .09-.12.103-.162.106.029.018.066.051.083.066.051.048.101.095.157.095Q.509.414.522.4A.06.06 0 0 1 .47.344C.47.322.487.307.51.307c.027 0 .057.022.057.064 0 .033-.024.07-.077.07C.433.441.381.401.33.353A.4.4 0 0 0 .214.265z"/><path id="h" d="M.16.078C.15.039.148.031.069.031c-.017 0-.027 0-.027-.02C.042 0 .051 0 .069 0h.357c.158 0 .276.118.276.216 0 .072-.058.13-.155.14.104.02.209.094.209.189C.756.619.69.683.57.683H.234c-.019 0-.029 0-.029-.02 0-.011.009-.011.028-.011.002 0 .021 0 .038-.002C.289.648.298.647.298.634L.294.614zm.151.288.062.248c.009.035.011.038.054.038h.129c.088 0 .109-.06.109-.103C.665.46.579.366.457.366zM.266.03.244.032q-.014 0-.013.01c0 .003 0 .005.005.023l.069.279h.189C.59.344.609.27.609.227A.205.205 0 0 0 .402.03z"/><path id="i" d="M.438.383A.06.06 0 0 1 .387.327C.387.3.408.29.426.29c.022 0 .057.016.057.064 0 .068-.078.087-.132.087C.201.441.062.303.062.164c0-.086.06-.174.185-.174.169 0 .248.1.248.113C.495.11.486.12.478.12.472.12.47.118.462.11.384.018.267.018.249.018.177.018.145.068.145.13c0 .03.014.138.066.207.038.05.09.077.14.077.014 0 .062-.002.087-.03"/><path id="j" d="M.287.683c0 .001 0 .011-.013.011C.251.694.178.686.152.684.144.684.133.682.133.664c0-.012.009-.012.024-.012.048 0 .05-.007.05-.017L.204.615.059.04C.055.025.055.023.055.017c0-.023.02-.028.029-.028A.04.04 0 0 1 .118.01c.005.01.05.194.056.22C.208.225.29.21.29.143c0-.007 0-.01-.003-.02L.283.087c0-.059.04-.099.092-.099q.046-.001.079.053A.4.4 0 0 1 .49.143c0 .01-.009.01-.012.01C.468.153.467.15.464.135.444.062.421.011.377.011.358.011.345.022.345.058c0 .017.004.04.008.056a.1.1 0 0 1 .004.031C.357.21.294.24.209.25.24.268.272.3.295.324.343.377.389.42.438.42h.009C.459.416.46.416.468.41Q.47.411.472.407A.057.057 0 0 1 .415.353c0-.016.011-.035.038-.035.026 0 .055.022.055.061C.508.41.485.442.44.442.412.442.366.434.294.354A.4.4 0 0 0 .183.261z"/><path id="k" d="M.324.625a.04.04 0 0 1-.04.038C.257.663.228.637.228.608.228.591.241.57.268.57c.029 0 .056.028.056.055M.12.117Q.113.1.111.075c0-.047.04-.085.095-.085.1 0 .144.138.144.153C.35.156.337.156.334.156.32.156.319.15.315.14.292.06.248.02.209.02.189.018.184.03.184.052Q.185.086.2.117l.032.08.049.127a.1.1 0 0 1 .006.032c0 .047-.04.085-.095.085C.093.441.047.305.047.288c0-.013.014-.013.017-.013.014 0 .015.005.018.016.026.086.07.122.107.122.016 0 .025-.008.025-.035C.214.355.208.34.183.278z"/><path id="l" d="M.439.625a.04.04 0 0 1-.04.038C.37.663.343.635.343.608.343.592.355.57.383.57.41.57.439.596.439.625M.227-.049C.21-.118.157-.176.098-.176a.1.1 0 0 0-.036.006.06.06 0 0 1 .034.051c0 .024-.019.037-.039.037A.06.06 0 0 1 0-.141c0-.038.039-.063.099-.063s.177.036.208.158l.09.358C.4.323.402.332.402.347c0 .055-.047.094-.107.094C.184.441.12.302.12.288S.134.275.137.275c.012 0 .013.003.02.018.025.058.077.12.135.12q.036 0 .034-.049L.323.334z"/><path id="m" d="M.284.625c0 .02-.014.036-.037.036C.22.661.193.635.193.608.193.59.207.572.231.572c.023 0 .053.023.053.053M.208.25.23.307c.008.02.013.034.013.053a.08.08 0 0 1-.082.082C.067.442.029.297.029.288s.01-.01.012-.01c.01 0 .011.002.016.018C.084.39.124.42.158.42.166.42.183.42.183.388A.2.2 0 0 0 .172.336C.164.31.119.194.103.151.093.125.08.092.08.071A.08.08 0 0 1 .162-.01c.094 0 .131.145.131.154s-.009.01-.012.01C.271.153.271.15.266.135.248.072.215.011.164.011Q.139.011.14.044c0 .025.006.04.029.1z"/><path id="n" d="M.397.625c0 .02-.014.036-.038.036C.336.661.306.638.306.608c0-.02.014-.036.037-.036.027 0 .054.026.054.053M.196-.05C.177-.126.129-.183.073-.183c-.006 0-.021 0-.039.009.03.007.045.033.045.053 0 .016-.011.035-.038.035a.056.056 0 0 1-.054-.057c0-.04.04-.062.088-.062.07 0 .163.053.188.152l.092.366Q.361.344.36.35a.09.09 0 0 1-.092.092C.166.442.109.297.109.288s.01-.01.012-.01c.009 0 .01.001.018.02C.164.36.21.42.265.42.279.42.297.416.297.374.297.351.294.34.29.324z"/><path id="o" d="M.926.606c.009.036.011.046.086.046.023 0 .032 0 .032.02 0 .01-.01.01-.027.01H.885c-.026 0-.027 0-.039-.018L.481.094.403.66C.4.683.398.683.372.683H.235c-.019 0-.03 0-.03-.02 0-.011.009-.011.029-.011L.277.65Q.3.649.299.634L.295.614.168.107C.158.066.141.034.06.03.055.031.042.03.042.012Q.043-.001.056 0l.1.003L.259 0c.005 0 .018 0 .018.02 0 .011-.011.011-.018.011C.202.032.191.052.191.075c0 .007.001.012.004.023l.136.545h.001l.086-.62C.42.011.421 0 .433 0 .444 0 .45.011.455.018l.404.633H.86L.717.078C.707.039.705.031.626.031c-.017 0-.028 0-.028-.019C.598 0 .61 0 .613 0l.124.003L.862 0c.006 0 .019 0 .019.02 0 .011-.009.011-.028.011-.037 0-.065 0-.065.018 0 .004 0 .006.005.024z"/><path id="p" d="M.687.327c.015 0 .034 0 .034.02s-.019.02-.033.02H.089c-.014 0-.033 0-.033-.02S.075.327.09.327zM.688.133c.014 0 .033 0 .033.02s-.019.02-.034.02H.09c-.015 0-.034 0-.034-.02s.019-.02.033-.02z"/><path id="q" d="M.173.4h.143v.03H.173v.185H.148C.147.533.117.425.019.422V.4h.085V.124c0-.123.093-.135.129-.135.071 0 .099.071.099.135v.057H.307V.126C.307.052.277.014.24.014.173.014.173.105.173.122z"/><path id="r" d="M.167.332v.11L.028.432V.4C.098.4.106.393.106.344V.076C.106.031.095.031.028.031V0l.114.003c.04 0 .087 0 .127-.003v.031H.248C.174.031.172.042.172.078v.154c0 .1.042.188.118.188h.011A.04.04 0 0 1 .278.38c0-.028.021-.043.043-.043.018 0 .043.012.043.044S.333.442.29.442C.217.442.181.375.167.332"/><path id="s" d="M.331-.24c0 .003 0 .005-.017.022C.189-.092.157.097.157.25c0 .174.038.348.161.473.013.012.013.014.013.017q0 .01-.01.01C.311.75.221.682.162.555A.7.7 0 0 1 .099.25c0-.078.011-.199.066-.312A.43.43 0 0 1 .321-.25q.01 0 .01.01"/><path id="t" d="M.289.25a.7.7 0 0 1-.066.312.43.43 0 0 1-.156.188q-.01 0-.01-.01c0-.003 0-.005.019-.023C.174.618.231.459.231.25.231.079.194-.097.07-.223.057-.235.057-.237.057-.24q0-.01.01-.01c.01 0 .1.068.159.195.051.11.063.221.063.305"/></defs><path fill="#f44336" d="M54.316 20.303a5.636 5.636 0 1 0-11.272 0 5.636 5.636 0 0 0 11.272 0m-5.636 0"/><path fill="none" stroke="#000" stroke-miterlimit="10" stroke-width=".797" d="M54.316 20.303a5.636 5.636 0 1 0-11.272 0 5.636 5.636 0 0 0 11.272 0Zm-5.636 0"/><path fill="#4caf50" d="M82.663 20.303a5.636 5.636 0 1 0-11.272 0 5.636 5.636 0 0 0 11.272 0m-5.636 0"/><path fill="none" stroke="#000" stroke-miterlimit="10" stroke-width=".797" d="M82.663 20.303a5.636 5.636 0 1 0-11.272 0 5.636 5.636 0 0 0 11.272 0Zm-5.636 0"/><use xlink:href="#a" data-text="a" transform="matrix(9.9626 0 0 -9.9626 23.37 8.274)"/><use xlink:href="#b" data-text="b" transform="matrix(9.9626 0 0 -9.9626 23.865 37.935)"/><use xlink:href="#c" data-text="c" transform="matrix(9.9626 0 0 -9.9626 97.548 22.447)"/><use xlink:href="#d" data-text="A" transform="matrix(9.9626 0 0 -9.9626 44.744 56.975)"/><use xlink:href="#e" data-text="a" transform="matrix(6.9738 0 0 -6.9738 52.216 58.469)"/><use xlink:href="#f" data-text="b" transform="matrix(6.9738 0 0 -6.9738 56.54 58.469)"/><use xlink:href="#g" data-text="k" transform="matrix(6.9738 0 0 -6.9738 60.04 58.469)"/><use xlink:href="#h" data-text="B" transform="matrix(9.9626 0 0 -9.9626 64.943 56.975)"/><use xlink:href="#g" data-text="k" transform="matrix(6.9738 0 0 -6.9738 72.5 58.469)"/><use xlink:href="#i" data-text="c" transform="matrix(6.9738 0 0 -6.9738 76.9 58.469)"/><path fill="none" stroke="#000" stroke-miterlimit="10" stroke-width=".797" d="m43.563 17.105-10.544-6.59M43.563 23.5l-11.04 6.9m50.538-10.098h10.104M54.715 20.303h16.277"/><use xlink:href="#j" data-text="k" transform="matrix(9.9626 0 0 -9.9626 60.103 15.919)"/><path fill="#f44336" d="M54.316 105.343a5.636 5.636 0 1 0-11.272 0 5.636 5.636 0 0 0 11.272 0m-5.636 0"/><path fill="none" stroke="#000" stroke-miterlimit="10" stroke-width=".797" d="M54.316 105.343a5.636 5.636 0 1 0-11.272 0 5.636 5.636 0 0 0 11.272 0Zm-5.636 0"/><path fill="#4caf50" d="M82.663 105.343a5.636 5.636 0 1 0-11.272 0 5.636 5.636 0 0 0 11.272 0m-5.636 0"/><path fill="none" stroke="#000" stroke-miterlimit="10" stroke-width=".797" d="M82.663 105.343a5.636 5.636 0 1 0-11.272 0 5.636 5.636 0 0 0 11.272 0Zm-5.636 0"/><use xlink:href="#a" data-text="a" transform="matrix(9.9626 0 0 -9.9626 23.37 93.314)"/><use xlink:href="#b" data-text="b" transform="matrix(9.9626 0 0 -9.9626 23.865 122.974)"/><use xlink:href="#c" data-text="c" transform="matrix(9.9626 0 0 -9.9626 97.548 107.487)"/><use xlink:href="#d" data-text="A" transform="matrix(9.9626 0 0 -9.9626 42.63 141.336)"/><use xlink:href="#e" data-text="a" transform="matrix(6.9738 0 0 -6.9738 50.102 142.831)"/><use xlink:href="#f" data-text="b" transform="matrix(6.9738 0 0 -6.9738 54.426 142.831)"/><use xlink:href="#k" data-text="i" transform="matrix(6.9738 0 0 -6.9738 57.927 142.831)"/><use xlink:href="#l" data-text="j" transform="matrix(6.9738 0 0 -6.9738 60.744 142.831)"/><use xlink:href="#h" data-text="B" transform="matrix(9.9626 0 0 -9.9626 64.943 141.336)"/><use xlink:href="#k" data-text="i" transform="matrix(6.9738 0 0 -6.9738 72.5 142.831)"/><use xlink:href="#l" data-text="j" transform="matrix(6.9738 0 0 -6.9738 75.317 142.831)"/><use xlink:href="#i" data-text="c" transform="matrix(6.9738 0 0 -6.9738 79.02 142.831)"/><path fill="none" stroke="#000" stroke-miterlimit="10" stroke-width=".797" d="M53.303 101.465c5.706-4.789 13.395-4.789 19.101 0m-19.101 7.757c5.706 4.789 13.395 4.789 19.101 0m-28.841-7.077-10.544-6.59m10.544 12.987-11.04 6.9m50.538-10.099h10.104"/><use xlink:href="#m" data-text="i" transform="matrix(9.9626 0 0 -9.9626 61.137 93.489)"/><use xlink:href="#n" data-text="j" transform="matrix(9.9626 0 0 -9.9626 60.517 123.766)"/><path fill="#2196f3" d="M68.49 190.384a5.636 5.636 0 1 0-11.273 0 5.636 5.636 0 0 0 11.273 0m-5.637 0"/><path fill="none" stroke="#000" stroke-miterlimit="10" stroke-width=".797" d="M68.49 190.384a5.636 5.636 0 1 0-11.273 0 5.636 5.636 0 0 0 11.273 0Zm-5.637 0"/><use xlink:href="#o" data-text="M" transform="matrix(9.9626 0 0 -9.9626 35.173 209.88)"/><use xlink:href="#k" data-text="i" transform="matrix(6.9738 0 0 -6.9738 44.838 211.374)"/><use xlink:href="#k" data-text="i" transform="matrix(6.9738 0 0 -6.9738 47.655 211.374)"/><use xlink:href="#p" data-text="=" transform="matrix(9.9626 0 0 -9.9626 53.741 209.88)"/><use xlink:href="#q" data-text="t" transform="matrix(9.9626 0 0 -9.9626 64.262 209.88)"/><use xlink:href="#r" data-text="r" transform="matrix(9.9626 0 0 -9.9626 68.137 209.88)"/><use xlink:href="#s" data-text="(" transform="matrix(9.9626 0 0 -9.9626 72.042 209.88)"/><use xlink:href="#o" data-text="M" transform="matrix(9.9626 0 0 -9.9626 75.918 209.88)"/><use xlink:href="#t" data-text=")" transform="matrix(9.9626 0 0 -9.9626 86.667 209.88)"/><path fill="none" stroke="#000" stroke-miterlimit="10" stroke-width=".797" d="M57.456 187.685c-11.61-5.805-11.61-14.31 5.397-14.31 17.009 0 17.009 8.505 5.398 14.31"/><use xlink:href="#m" data-text="i" transform="matrix(9.9626 0 0 -9.9626 80.979 187.997)"/><path fill="#f44336" d="M54.316 264.086a5.636 5.636 0 1 0-11.272 0 5.636 5.636 0 0 0 11.272 0m-5.636 0"/><path fill="none" stroke="#000" stroke-miterlimit="10" stroke-width=".797" d="M54.316 264.086a5.636 5.636 0 1 0-11.272 0 5.636 5.636 0 0 0 11.272 0Zm-5.636 0"/><path fill="#4caf50" d="M82.663 264.086a5.636 5.636 0 1 0-11.272 0 5.636 5.636 0 0 0 11.272 0m-5.636 0"/><path fill="none" stroke="#000" stroke-miterlimit="10" stroke-width=".797" d="M82.663 264.086a5.636 5.636 0 1 0-11.272 0 5.636 5.636 0 0 0 11.272 0Zm-5.636 0"/><use xlink:href="#d" data-text="A" transform="matrix(9.9626 0 0 -9.9626 3.985 294.74)"/><use xlink:href="#k" data-text="i" transform="matrix(6.9738 0 0 -6.9738 11.457 296.234)"/><use xlink:href="#l" data-text="j" transform="matrix(6.9738 0 0 -6.9738 14.274 296.234)"/><use xlink:href="#h" data-text="B" transform="matrix(9.9626 0 0 -9.9626 18.474 294.74)"/><use xlink:href="#l" data-text="j" transform="matrix(6.9738 0 0 -6.9738 26.03 296.234)"/><use xlink:href="#k" data-text="i" transform="matrix(6.9738 0 0 -6.9738 29.733 296.234)"/><use xlink:href="#p" data-text="=" transform="matrix(9.9626 0 0 -9.9626 35.814 294.74)"/><use xlink:href="#q" data-text="t" transform="matrix(9.9626 0 0 -9.9626 46.335 294.74)"/><use xlink:href="#r" data-text="r" transform="matrix(9.9626 0 0 -9.9626 50.21 294.74)"/><use xlink:href="#s" data-text="(" transform="matrix(9.9626 0 0 -9.9626 54.115 294.74)"/><use xlink:href="#d" data-text="A" transform="matrix(9.9626 0 0 -9.9626 57.99 294.74)"/><use xlink:href="#h" data-text="B" transform="matrix(9.9626 0 0 -9.9626 65.463 294.74)"/><use xlink:href="#t" data-text=")" transform="matrix(9.9626 0 0 -9.9626 73.522 294.74)"/><use xlink:href="#p" data-text="=" transform="matrix(9.9626 0 0 -9.9626 80.167 294.74)"/><use xlink:href="#q" data-text="t" transform="matrix(9.9626 0 0 -9.9626 90.678 294.74)"/><use xlink:href="#r" data-text="r" transform="matrix(9.9626 0 0 -9.9626 94.553 294.74)"/><use xlink:href="#s" data-text="(" transform="matrix(9.9626 0 0 -9.9626 98.459 294.74)"/><use xlink:href="#h" data-text="B" transform="matrix(9.9626 0 0 -9.9626 102.334 294.74)"/><use xlink:href="#d" data-text="A" transform="matrix(9.9626 0 0 -9.9626 110.404 294.74)"/><use xlink:href="#t" data-text=")" transform="matrix(9.9626 0 0 -9.9626 117.876 294.74)"/><path fill="none" stroke="#000" stroke-miterlimit="10" stroke-width=".797" d="M54.692 264.612c6.34.555 9.982.555 16.323 0m11.986-1.38c13.868-1.981 13.868-16.154-20.148-16.154s-34.016 14.173-20.147 16.155"/><use xlink:href="#n" data-text="j" transform="matrix(9.9626 0 0 -9.9626 60.517 275.978)"/><use xlink:href="#m" data-text="i" transform="matrix(9.9626 0 0 -9.9626 75.31 244.69)"/></svg>