<svg xmlns="http://www.w3.org/2000/svg" xmlns:xlink="http://www.w3.org/1999/xlink" version="1.1" width="238.9pt" height="76.54pt" viewBox="0 0 238.9 76.54">
<defs>
<path id="font_0_1" d="M.18499756 .11885071C.13899231 .04597473 .09799194 .035980226 .06199646 .032989503 .051986696 .03199768 .039993287 .0309906 .039993287 .01399231 .039993287 .010986328 .041992189 0 .053985597 0 .06298828 0 .068984989 .0029907227 .13899231 .0029907227 .20698548 .0029907227 .22999573 0 .23498535 0 .23999024 0 .25498963 0 .25498963 .018997193 .25498963 .03199768 .24198914 .032989503 .23699951 .032989503 .21598816 .033996583 .19499207 .04197693 .19499207 .063934329 .19499207 .07891846 .20298767 .09188843 .22200012 .12084961L.2899933 .23066712H.56399539L.58499148 .061950685C.58499148 .047973634 .5669861 .032989503 .519989 .032989503 .5049896 .032989503 .49198915 .032989503 .49198915 .01399231 .49198915 .0129852299 .49299623 0 .5089874 0 .5189972 0 .5569916 .0019989014 .56599429 .0029907227H.6289978C.71899417 .0029907227 .73599246 0 .74398806 0 .7480011 0 .7639923 0 .7639923 .018997193 .7639923 .032989503 .7509918 .032989503 .7350006 .032989503 .6799927 .032989503 .67900088 .04197693 .6759949 .06694031L.5970001 .6848602C.59399417 .7068634 .59298709 .7138672 .57598879 .7138672 .55799868 .7138672 .5519867 .7038574 .54599 .6938629L.18499756 .11885071M.31098939 .26367188 .5179901 .5928192 .55999758 .26367188H.31098939Z"/>
<path id="font_1_1" d="M.42099 .67089846C.37998963 .625885 .34899903 .625885 .33799745 .625885 .31498719 .625885 .2939911 .6358948 .269989 .64889529 .24299622 .66189578 .22499085 .67089846 .20199585 .67089846 .16299439 .67089846 .14299011 .6498871 .08898926 .5908966L.10899353 .57188418C.1499939 .6168976 .18099976 .6168976 .19198609 .6168976 .21499634 .6168976 .23599243 .6068878 .2599945 .5938873 .2869873 .58088687 .30499269 .57188418 .32798768 .57188418 .36698915 .57188418 .3869934 .5928955 .44099427 .651886L.42099 .67089846Z"/>
<path id="font_0_2" d="M.5219879 .3817749C.56999209 .43074037 .71199038 .57666018 .73599246 .5956421 .7779999 .6276245 .8029938 .6456146 .875 .6496124 .8809967 .65060427 .8889923 .65560916 .8889923 .6686096 .8889923 .6776123 .8799896 .6826172 .875 .6826172 .86499026 .6826172 .85899356 .6796112 .7809906 .6796112 .70599368 .6796112 .67900088 .6826172 .673996 .6826172 .66999819 .6826172 .6539917 .6826172 .6539917 .66360476 .6539917 .6626129 .6539917 .65060427 .6689911 .6496124 .6759949 .64860537 .7029877 .64660647 .7029877 .6236267 .7029877 .6166229 .69898989 .6056366 .69099429 .597641L.6879883 .5926361C.68499758 .5896454 .68499758 .5876465 .6749878 .57865908L.5079956 .40975953 .4059906 .6216278C.41999818 .6456146 .44999696 .64860537 .46199037 .6496124 .46699525 .6496124 .48098756 .65060427 .48098756 .66760256 .48098756 .6766052 .47399903 .6826172 .46499635 .6826172 .45498658 .6826172 .4169922 .680603 .40699769 .680603 .40098573 .6796112 .3639984 .6796112 .34298707 .6796112 .25 .6796112 .23799134 .6826172 .22898865 .6826172 .22499085 .6826172 .20899964 .6826172 .20899964 .66360476 .20899964 .6496124 .22200012 .6496124 .23799134 .6496124 .28799439 .6496124 .29699708 .6396179 .30599977 .6206207L.43899537 .34080506 .23399353 .13192749C.17399597 .07197571 .1269989 .036987306 .055999757 .032989503 .04399109 .03199768 .03199768 .03199768 .03199768 .01399231 .03199768 .0079956059 .036987306 0 .04699707 0 .053985597 0 .06498718 .0029907227 .14099121 .0029907227 .21299744 .0029907227 .24398804 0 .24798584 0 .25299073 0 .2679901 0 .2679901 .018997193 .2679901 .020996094 .2669983 .03199768 .2519989 .032989503 .23298645 .033996583 .21899414 .040985109 .21899414 .05897522 .21899414 .07496643 .23098755 .08795166 .24598694 .10295105 .2630005 .12193298 .31498719 .17390442 .35099793 .20887757 .37399293 .23187256 .42999269 .28982545 .45298768 .31181336L.56799319 .07296753C.57299807 .06297302 .57299807 .0619812 .57299807 .06097412 .57299807 .051986696 .5519867 .034988405 .5189972 .032989503 .5119934 .032989503 .49899293 .03199768 .49899293 .01399231 .49899293 .0129852299 .5 0 .5159912 0 .526001 0 .5629883 .0019989014 .57299807 .0029907227H.6369934C.72898867 .0029907227 .7429962 0 .7519989 0 .7559967 0 .7709961 0 .7709961 .018997193 .7709961 .032989503 .7579956 .032989503 .7429962 .032989503 .68899539 .032989503 .68299868 .04498291 .6759949 .0599823L.5219879 .3817749Z"/>
<path id="font_2_1" d="M.79599 .22436524C.81199648 .22436524 .83699038 .22436524 .83699038 .2503662 .83699038 .2763672 .81199648 .2763672 .79599 .2763672H.1659851C.1499939 .2763672 .125 .2763672 .125 .2503662 .125 .22436524 .1499939 .22436524 .1659851 .22436524H.79599Z"/>
<path id="font_3_1" d="M.35899354 .6349335C.35899354 .66503909 .35499574 .66503909 .32499696 .66503909 .25898744 .60058596 .15699768 .60058596 .12098694 .60058596V.5615845C.14698792 .5615845 .21299744 .5615845 .272995 .58958438V.08496094C.272995 .051986696 .272995 .038986207 .16999817 .038986207H.1269989V0C.18199158 .0039978029 .2599945 .0039978029 .31599427 .0039978029 .37199403 .0039978029 .44999696 .0039978029 .5049896 0V.038986207H.46199037C.35899354 .038986207 .35899354 .051986696 .35899354 .08496094V.6349335Z"/>
<path id="font_4_1" d="M.68699648 .32714845C.70199587 .32714845 .72099307 .32714845 .72099307 .34713746 .72099307 .36714173 .70199587 .36714173 .6879883 .36714173H.08898926C.07499695 .36714173 .055999757 .36714173 .055999757 .34713746 .055999757 .32714845 .07499695 .32714845 .08999634 .32714845H.68699648M.6879883 .13284302C.70199587 .13284302 .72099307 .13284302 .72099307 .15284729 .72099307 .17285156 .70199587 .17285156 .68699648 .17285156H.08999634C.07499695 .17285156 .055999757 .17285156 .055999757 .15284729 .055999757 .13284302 .07499695 .13284302 .08898926 .13284302H.6879883Z"/>
</defs>
<path transform="matrix(1,0,0,-1,22.316002,19.353997)" stroke-width=".79701" stroke-linecap="butt" stroke-miterlimit="10" stroke-linejoin="miter" fill="none" stroke="#000000" d="M-19.92554 0H44.83246M74.72076 0H214.19953M74.72076-39.85107H139.47876M94.6463-39.85107V-54.79523M119.55322-39.85107V-54.79523"/>
<path transform="matrix(1,0,0,-1,22.316002,19.353997)" stroke-width=".79701" stroke-linecap="butt" stroke-miterlimit="10" stroke-linejoin="miter" fill="none" stroke="#000000" d="M0 0V-14.94415"/>
<path transform="matrix(1,0,0,-1,22.316002,19.353997)" stroke-width=".79701" stroke-linecap="butt" stroke-miterlimit="10" stroke-linejoin="miter" fill="none" stroke="#000000" d="M24.90692 0V-14.94415"/>
<path transform="matrix(1,0,0,-1,22.316002,19.353997)" stroke-width=".79701" stroke-linecap="butt" stroke-miterlimit="10" stroke-linejoin="miter" fill="none" stroke="#000000" d="M114.57184 0V-14.94415"/>
<path transform="matrix(1,0,0,-1,22.316002,19.353997)" stroke-width=".79701" stroke-linecap="butt" stroke-miterlimit="10" stroke-linejoin="miter" fill="none" stroke="#000000" d="M174.34845 0V-14.94415"/>
<path transform="matrix(1,0,0,-1,22.316002,19.353997)" d="M4.98138 0C4.98138 2.75117 2.75117 4.98138 0 4.98138-2.75117 4.98138-4.98138 2.75117-4.98138 0-4.98138-2.75117-2.75117-4.98138 0-4.98138 2.75117-4.98138 4.98138-2.75117 4.98138 0ZM0 4.98138" fill="#2196f3"/>
<path transform="matrix(1,0,0,-1,22.316002,19.353997)" stroke-width=".79701" stroke-linecap="butt" stroke-miterlimit="10" stroke-linejoin="miter" fill="none" stroke="#000000" d="M4.98138 0C4.98138 2.75117 2.75117 4.98138 0 4.98138-2.75117 4.98138-4.98138 2.75117-4.98138 0-4.98138-2.75117-2.75117-4.98138 0-4.98138 2.75117-4.98138 4.98138-2.75117 4.98138 0ZM0 4.98138"/>
<use data-text="A" xlink:href="#font_0_1" transform="matrix(7.9701,0,0,-7.9701,19.144005,11.317997)"/>
<path transform="matrix(1,0,0,-1,22.316002,19.353997)" d="M29.8883 0C29.8883 2.75117 27.6581 4.98138 24.90692 4.98138 22.15573 4.98138 19.92554 2.75117 19.92554 0 19.92554-2.75117 22.15573-4.98138 24.90692-4.98138 27.6581-4.98138 29.8883-2.75117 29.8883 0ZM24.90692 4.98138" fill="#2196f3"/>
<path transform="matrix(1,0,0,-1,22.316002,19.353997)" stroke-width=".79701" stroke-linecap="butt" stroke-miterlimit="10" stroke-linejoin="miter" fill="none" stroke="#000000" d="M29.8883 0C29.8883 2.75117 27.6581 4.98138 24.90692 4.98138 22.15573 4.98138 19.92554 2.75117 19.92554 0 19.92554-2.75117 22.15573-4.98138 24.90692-4.98138 27.6581-4.98138 29.8883-2.75117 29.8883 0ZM24.90692 4.98138"/>
<use data-text="A" xlink:href="#font_0_1" transform="matrix(7.9701,0,0,-7.9701,44.051004,11.317997)"/>
<path transform="matrix(1,0,0,-1,22.316002,19.353997)" d="M119.55322 0C119.55322 2.75117 117.32301 4.98138 114.57184 4.98138 111.82065 4.98138 109.59045 2.75117 109.59045 0 109.59045-2.75117 111.82065-4.98138 114.57184-4.98138 117.32301-4.98138 119.55322-2.75117 119.55322 0ZM114.57184 4.98138" fill="#2196f3"/>
<path transform="matrix(1,0,0,-1,22.316002,19.353997)" stroke-width=".79701" stroke-linecap="butt" stroke-miterlimit="10" stroke-linejoin="miter" fill="none" stroke="#000000" d="M119.55322 0C119.55322 2.75117 117.32301 4.98138 114.57184 4.98138 111.82065 4.98138 109.59045 2.75117 109.59045 0 109.59045-2.75117 111.82065-4.98138 114.57184-4.98138 117.32301-4.98138 119.55322-2.75117 119.55322 0ZM114.57184 4.98138"/>
<use data-text="A" xlink:href="#font_0_1" transform="matrix(7.9701,0,0,-7.9701,133.716,11.317997)"/>
<path transform="matrix(1,0,0,-1,22.316002,19.353997)" d="M179.32984 0C179.32984 2.75117 177.09963 4.98138 174.34845 4.98138 171.59726 4.98138 169.36707 2.75117 169.36707 0 169.36707-2.75117 171.59726-4.98138 174.34845-4.98138 177.09963-4.98138 179.32984-2.75117 179.32984 0ZM174.34845 4.98138" fill="#2196f3"/>
<path transform="matrix(1,0,0,-1,22.316002,19.353997)" stroke-width=".79701" stroke-linecap="butt" stroke-miterlimit="10" stroke-linejoin="miter" fill="none" stroke="#000000" d="M179.32984 0C179.32984 2.75117 177.09963 4.98138 174.34845 4.98138 171.59726 4.98138 169.36707 2.75117 169.36707 0 169.36707-2.75117 171.59726-4.98138 174.34845-4.98138 177.09963-4.98138 179.32984-2.75117 179.32984 0ZM174.34845 4.98138"/>
<use data-text="A" xlink:href="#font_0_1" transform="matrix(7.9701,0,0,-7.9701,193.49301,11.317997)"/>
<path transform="matrix(1,0,0,-1,22.316002,19.353997)" d="M99.62769-39.85107C99.62769-37.09988 97.39748-34.86969 94.6463-34.86969 91.89511-34.86969 89.66492-37.09988 89.66492-39.85107 89.66492-42.60225 91.89511-44.83246 94.6463-44.83246 97.39748-44.83246 99.62769-42.60225 99.62769-39.85107ZM94.6463-34.86969" fill="#009688"/>
<path transform="matrix(1,0,0,-1,22.316002,19.353997)" stroke-width=".79701" stroke-linecap="butt" stroke-miterlimit="10" stroke-linejoin="miter" fill="none" stroke="#000000" d="M99.62769-39.85107C99.62769-37.09988 97.39748-34.86969 94.6463-34.86969 91.89511-34.86969 89.66492-37.09988 89.66492-39.85107 89.66492-42.60225 91.89511-44.83246 94.6463-44.83246 97.39748-44.83246 99.62769-42.60225 99.62769-39.85107ZM94.6463-34.86969"/>
<use data-text="&#x02dc;" xlink:href="#font_1_1" transform="matrix(7.9701,0,0,-7.9701,116.022,49.155)"/>
<use data-text="A" xlink:href="#font_0_1" transform="matrix(7.9701,0,0,-7.9701,113.79101,51.169)"/>
<path transform="matrix(1,0,0,-1,22.316002,19.353997)" d="M124.5346-39.85107C124.5346-37.09988 122.3044-34.86969 119.55322-34.86969 116.80203-34.86969 114.57184-37.09988 114.57184-39.85107 114.57184-42.60225 116.80203-44.83246 119.55322-44.83246 122.3044-44.83246 124.5346-42.60225 124.5346-39.85107ZM119.55322-34.86969" fill="#009688"/>
<path transform="matrix(1,0,0,-1,22.316002,19.353997)" stroke-width=".79701" stroke-linecap="butt" stroke-miterlimit="10" stroke-linejoin="miter" fill="none" stroke="#000000" d="M124.5346-39.85107C124.5346-37.09988 122.3044-34.86969 119.55322-34.86969 116.80203-34.86969 114.57184-37.09988 114.57184-39.85107 114.57184-42.60225 116.80203-44.83246 119.55322-44.83246 122.3044-44.83246 124.5346-42.60225 124.5346-39.85107ZM119.55322-34.86969"/>
<use data-text="&#x02dc;" xlink:href="#font_1_1" transform="matrix(7.9701,0,0,-7.9701,140.929,49.155)"/>
<use data-text="A" xlink:href="#font_0_1" transform="matrix(7.9701,0,0,-7.9701,138.698,51.169)"/>
<path transform="matrix(1,0,0,-1,22.316002,19.353997)" d="M99.62769 0 94.6463 4.98138 89.66492 0 94.6463-4.98138Z" fill="#ff9800"/>
<path transform="matrix(1,0,0,-1,22.316002,19.353997)" stroke-width=".79701" stroke-linecap="butt" stroke-miterlimit="10" stroke-linejoin="miter" fill="none" stroke="#000000" d="M99.62769 0 94.6463 4.98138 89.66492 0 94.6463-4.98138Z"/>
<use data-text="X" xlink:href="#font_0_2" transform="matrix(7.9701,0,0,-7.9701,108.215007,11.317997)"/>
<use data-text="&#x2212;" xlink:href="#font_2_1" transform="matrix(5.9776,0,0,-5.9776,115.802,8.504997)"/>
<use data-text="1" xlink:href="#font_3_1" transform="matrix(5.9776,0,0,-5.9776,121.558,8.504997)"/>
<path transform="matrix(1,0,0,-1,22.316002,19.353997)" d="M139.47876 0 134.49738 4.98138 129.51599 0 134.49738-4.98138Z" fill="#ff9800"/>
<path transform="matrix(1,0,0,-1,22.316002,19.353997)" stroke-width=".79701" stroke-linecap="butt" stroke-miterlimit="10" stroke-linejoin="miter" fill="none" stroke="#000000" d="M139.47876 0 134.49738 4.98138 129.51599 0 134.49738-4.98138Z"/>
<use data-text="X" xlink:href="#font_0_2" transform="matrix(7.9701,0,0,-7.9701,153.01999,11.317997)"/>
<path transform="matrix(1,0,0,-1,22.316002,19.353997)" d="M159.4043 0 154.42292 4.98138 149.44153 0 154.42292-4.98138Z" fill="#ff9800"/>
<path transform="matrix(1,0,0,-1,22.316002,19.353997)" stroke-width=".79701" stroke-linecap="butt" stroke-miterlimit="10" stroke-linejoin="miter" fill="none" stroke="#000000" d="M159.4043 0 154.42292 4.98138 149.44153 0 154.42292-4.98138Z"/>
<use data-text="X" xlink:href="#font_0_2" transform="matrix(7.9701,0,0,-7.9701,167.992,11.317997)"/>
<use data-text="&#x2212;" xlink:href="#font_2_1" transform="matrix(5.9776,0,0,-5.9776,175.579,8.504997)"/>
<use data-text="1" xlink:href="#font_3_1" transform="matrix(5.9776,0,0,-5.9776,181.33499,8.504997)"/>
<path transform="matrix(1,0,0,-1,22.316002,19.353997)" d="M199.25537 0 194.27399 4.98138 189.2926 0 194.27399-4.98138Z" fill="#ff9800"/>
<path transform="matrix(1,0,0,-1,22.316002,19.353997)" stroke-width=".79701" stroke-linecap="butt" stroke-miterlimit="10" stroke-linejoin="miter" fill="none" stroke="#000000" d="M199.25537 0 194.27399 4.98138 189.2926 0 194.27399-4.98138Z"/>
<use data-text="X" xlink:href="#font_0_2" transform="matrix(7.9701,0,0,-7.9701,212.79599,11.317997)"/>
<path transform="matrix(1,0,0,-1,22.316002,19.353997)" stroke-width=".79701" stroke-linecap="butt" stroke-miterlimit="10" stroke-linejoin="miter" fill="none" stroke="#000000" d="M59.77661-39.85107"/>
<use data-text="=" xlink:href="#font_4_1" transform="matrix(9.9626,0,0,-9.9626,78.218,21.182)"/>
<use data-text="=" xlink:href="#font_4_1" transform="matrix(9.9626,0,0,-9.9626,78.218,61.032999)"/>
</svg>
