<svg xmlns="http://www.w3.org/2000/svg" xmlns:xlink="http://www.w3.org/1999/xlink" version="1.1" width="218.98pt" height="34.67pt" viewBox="0 0 218.98 34.67">
<path transform="matrix(1,0,0,-1,7.3720018,17.335)" stroke-width=".79701" stroke-linecap="butt" stroke-miterlimit="10" stroke-linejoin="miter" fill="none" stroke="#000000" d="M0 0H74.72076"/>
<path transform="matrix(1,0,0,-1,7.3720018,17.335)" stroke-width=".79701" stroke-linecap="butt" stroke-miterlimit="10" stroke-linejoin="miter" fill="none" stroke="#000000" d="M0 0V-14.94415"/>
<path transform="matrix(1,0,0,-1,7.3720018,17.335)" stroke-width=".79701" stroke-linecap="butt" stroke-miterlimit="10" stroke-linejoin="miter" fill="none" stroke="#000000" d="M24.90692 0V-14.94415"/>
<path transform="matrix(1,0,0,-1,7.3720018,17.335)" stroke-width=".79701" stroke-linecap="butt" stroke-miterlimit="10" stroke-linejoin="miter" fill="none" stroke="#000000" d="M49.81384 0V-14.94415"/>
<path transform="matrix(1,0,0,-1,7.3720018,17.335)" stroke-width=".79701" stroke-linecap="butt" stroke-miterlimit="10" stroke-linejoin="miter" fill="none" stroke="#000000" d="M74.72076 0V-14.94415"/>
<path transform="matrix(1,0,0,-1,7.3720018,17.335)" d="M4.98138 0C4.98138 2.75117 2.75117 4.98138 0 4.98138-2.75117 4.98138-4.98138 2.75117-4.98138 0-4.98138-2.75117-2.75117-4.98138 0-4.98138 2.75117-4.98138 4.98138-2.75117 4.98138 0ZM0 0" fill="#2196f3"/>
<path transform="matrix(1,0,0,-1,7.3720018,17.335)" stroke-width=".79701" stroke-linecap="butt" stroke-miterlimit="10" stroke-linejoin="miter" fill="none" stroke="#000000" d="M4.98138 0C4.98138 2.75117 2.75117 4.98138 0 4.98138-2.75117 4.98138-4.98138 2.75117-4.98138 0-4.98138-2.75117-2.75117-4.98138 0-4.98138 2.75117-4.98138 4.98138-2.75117 4.98138 0ZM0 0"/>
<path transform="matrix(1,0,0,-1,7.3720018,17.335)" d="M29.8883 0C29.8883 2.75117 27.6581 4.98138 24.90692 4.98138 22.15573 4.98138 19.92554 2.75117 19.92554 0 19.92554-2.75117 22.15573-4.98138 24.90692-4.98138 27.6581-4.98138 29.8883-2.75117 29.8883 0ZM24.90692 0" fill="#2196f3"/>
<path transform="matrix(1,0,0,-1,7.3720018,17.335)" stroke-width=".79701" stroke-linecap="butt" stroke-miterlimit="10" stroke-linejoin="miter" fill="none" stroke="#000000" d="M29.8883 0C29.8883 2.75117 27.6581 4.98138 24.90692 4.98138 22.15573 4.98138 19.92554 2.75117 19.92554 0 19.92554-2.75117 22.15573-4.98138 24.90692-4.98138 27.6581-4.98138 29.8883-2.75117 29.8883 0ZM24.90692 0"/>
<path transform="matrix(1,0,0,-1,7.3720018,17.335)" d="M54.79523 0C54.79523 2.75117 52.56502 4.98138 49.81384 4.98138 47.06265 4.98138 44.83246 2.75117 44.83246 0 44.83246-2.75117 47.06265-4.98138 49.81384-4.98138 52.56502-4.98138 54.79523-2.75117 54.79523 0ZM49.81384 0" fill="#2196f3"/>
<path transform="matrix(1,0,0,-1,7.3720018,17.335)" stroke-width=".79701" stroke-linecap="butt" stroke-miterlimit="10" stroke-linejoin="miter" fill="none" stroke="#000000" d="M54.79523 0C54.79523 2.75117 52.56502 4.98138 49.81384 4.98138 47.06265 4.98138 44.83246 2.75117 44.83246 0 44.83246-2.75117 47.06265-4.98138 49.81384-4.98138 52.56502-4.98138 54.79523-2.75117 54.79523 0ZM49.81384 0"/>
<path transform="matrix(1,0,0,-1,7.3720018,17.335)" d="M79.70215 0C79.70215 2.75117 77.47194 4.98138 74.72076 4.98138 71.96957 4.98138 69.73938 2.75117 69.73938 0 69.73938-2.75117 71.96957-4.98138 74.72076-4.98138 77.47194-4.98138 79.70215-2.75117 79.70215 0ZM74.72076 0" fill="#2196f3"/>
<path transform="matrix(1,0,0,-1,7.3720018,17.335)" stroke-width=".79701" stroke-linecap="butt" stroke-miterlimit="10" stroke-linejoin="miter" fill="none" stroke="#000000" d="M79.70215 0C79.70215 2.75117 77.47194 4.98138 74.72076 4.98138 71.96957 4.98138 69.73938 2.75117 69.73938 0 69.73938-2.75117 71.96957-4.98138 74.72076-4.98138 77.47194-4.98138 79.70215-2.75117 79.70215 0ZM74.72076 0"/>
<path transform="matrix(1,0,0,-1,7.3720018,17.335)" stroke-width=".79701" stroke-linecap="butt" stroke-miterlimit="10" stroke-linejoin="miter" fill="none" stroke="#000000" d="M104.60907 7.47208V7.47208C104.60907 11.59883 107.95438 14.94415 112.08115 14.94415H201.74607C205.87282 14.94415 209.21814 11.59883 209.21814 7.47208 209.21814 3.3453 205.87282 0 201.74607 0H112.08115C107.95438 0 104.60907 3.3453 104.60907 7.47208ZM209.21814 14.94415"/>
<path transform="matrix(1,0,0,-1,7.3720018,17.335)" stroke-width=".79701" stroke-linecap="butt" stroke-miterlimit="10" stroke-linejoin="miter" fill="none" stroke="#000000" d="M119.55322 0V-14.94415"/>
<path transform="matrix(1,0,0,-1,7.3720018,17.335)" stroke-width=".79701" stroke-linecap="butt" stroke-miterlimit="10" stroke-linejoin="miter" fill="none" stroke="#000000" d="M144.46015 0V-14.94415"/>
<path transform="matrix(1,0,0,-1,7.3720018,17.335)" stroke-width=".79701" stroke-linecap="butt" stroke-miterlimit="10" stroke-linejoin="miter" fill="none" stroke="#000000" d="M169.36707 0V-14.94415"/>
<path transform="matrix(1,0,0,-1,7.3720018,17.335)" stroke-width=".79701" stroke-linecap="butt" stroke-miterlimit="10" stroke-linejoin="miter" fill="none" stroke="#000000" d="M194.27399 0V-14.94415"/>
<path transform="matrix(1,0,0,-1,7.3720018,17.335)" d="M124.5346 0C124.5346 2.75117 122.3044 4.98138 119.55322 4.98138 116.80203 4.98138 114.57184 2.75117 114.57184 0 114.57184-2.75117 116.80203-4.98138 119.55322-4.98138 122.3044-4.98138 124.5346-2.75117 124.5346 0ZM119.55322 0" fill="#2196f3"/>
<path transform="matrix(1,0,0,-1,7.3720018,17.335)" stroke-width=".79701" stroke-linecap="butt" stroke-miterlimit="10" stroke-linejoin="miter" fill="none" stroke="#000000" d="M124.5346 0C124.5346 2.75117 122.3044 4.98138 119.55322 4.98138 116.80203 4.98138 114.57184 2.75117 114.57184 0 114.57184-2.75117 116.80203-4.98138 119.55322-4.98138 122.3044-4.98138 124.5346-2.75117 124.5346 0ZM119.55322 0"/>
<path transform="matrix(1,0,0,-1,7.3720018,17.335)" d="M149.44153 0C149.44153 2.75117 147.21132 4.98138 144.46015 4.98138 141.70896 4.98138 139.47876 2.75117 139.47876 0 139.47876-2.75117 141.70896-4.98138 144.46015-4.98138 147.21132-4.98138 149.44153-2.75117 149.44153 0ZM144.46015 0" fill="#2196f3"/>
<path transform="matrix(1,0,0,-1,7.3720018,17.335)" stroke-width=".79701" stroke-linecap="butt" stroke-miterlimit="10" stroke-linejoin="miter" fill="none" stroke="#000000" d="M149.44153 0C149.44153 2.75117 147.21132 4.98138 144.46015 4.98138 141.70896 4.98138 139.47876 2.75117 139.47876 0 139.47876-2.75117 141.70896-4.98138 144.46015-4.98138 147.21132-4.98138 149.44153-2.75117 149.44153 0ZM144.46015 0"/>
<path transform="matrix(1,0,0,-1,7.3720018,17.335)" d="M174.34845 0C174.34845 2.75117 172.11824 4.98138 169.36707 4.98138 166.61588 4.98138 164.38568 2.75117 164.38568 0 164.38568-2.75117 166.61588-4.98138 169.36707-4.98138 172.11824-4.98138 174.34845-2.75117 174.34845 0ZM169.36707 0" fill="#2196f3"/>
<path transform="matrix(1,0,0,-1,7.3720018,17.335)" stroke-width=".79701" stroke-linecap="butt" stroke-miterlimit="10" stroke-linejoin="miter" fill="none" stroke="#000000" d="M174.34845 0C174.34845 2.75117 172.11824 4.98138 169.36707 4.98138 166.61588 4.98138 164.38568 2.75117 164.38568 0 164.38568-2.75117 166.61588-4.98138 169.36707-4.98138 172.11824-4.98138 174.34845-2.75117 174.34845 0ZM169.36707 0"/>
<path transform="matrix(1,0,0,-1,7.3720018,17.335)" d="M199.25537 0C199.25537 2.75117 197.02516 4.98138 194.27399 4.98138 191.5228 4.98138 189.2926 2.75117 189.2926 0 189.2926-2.75117 191.5228-4.98138 194.27399-4.98138 197.02516-4.98138 199.25537-2.75117 199.25537 0ZM194.27399 0" fill="#2196f3"/>
<path transform="matrix(1,0,0,-1,7.3720018,17.335)" stroke-width=".79701" stroke-linecap="butt" stroke-miterlimit="10" stroke-linejoin="miter" fill="none" stroke="#000000" d="M199.25537 0C199.25537 2.75117 197.02516 4.98138 194.27399 4.98138 191.5228 4.98138 189.2926 2.75117 189.2926 0 189.2926-2.75117 191.5228-4.98138 194.27399-4.98138 197.02516-4.98138 199.25537-2.75117 199.25537 0ZM194.27399 0"/>
</svg>
