<svg xmlns="http://www.w3.org/2000/svg" xmlns:xlink="http://www.w3.org/1999/xlink" viewBox="-50 -440 1800 2100"><title>Singular value decomposition visualisation</title><desc>Visualisation of the priciple of singular value decomposition by CMG Lee.</desc><style>text{font-family:Helvetica,Arial,sans-serif;font-size:200px;text-anchor:middle;cursor:default;stroke:none}.dim{font-size:160px}.mat{font-weight:700}.var{font-style:italic}</style><defs><pattern id="pattern_grid" width="100" height="100" patternUnits="userSpaceOnUse"><path fill="none" stroke="#000" d="M0 0h100v100H0z"/></pattern><pattern id="pattern_zero" width="100" height="100" patternUnits="userSpaceOnUse"><path fill="#fff" d="M0 0h100v100H0z"/><text x="50" y="50" fill="#ccc"><tspan dy=".7ex" font-size="100">0</tspan></text></pattern><pattern id="pattern_one" width="100" height="100" patternUnits="userSpaceOnUse"><path fill="#fff" d="M0 0h100v100H0z"/><text x="50" y="50" fill="#666"><tspan dy=".7ex" font-size="100">1</tspan></text></pattern><pattern id="pattern_eye4" width="400" height="400" patternUnits="userSpaceOnUse"><path fill="url(#pattern_zero)" d="M0 0h400v400H0z"/><path fill="url(#pattern_one)" d="M0 0h100v100H0z"/><path fill="url(#pattern_one)" d="M100 100h100v100H100z"/><path fill="url(#pattern_one)" d="M200 200h100v100H200z"/><path fill="url(#pattern_one)" d="M300 300h100v100H300z"/></pattern><g id="matrix_u"><path fill="#9cc" d="M0-400h100V0H0z"/><path fill="#9c6" d="M100-400h100V0H100z"/><path fill="#9cf" d="M200-400h100V0H200z"/><path fill="#9c9" d="M300-400h100V0H300z"/></g><g id="matrix_v"><path fill="#ccf" d="M0-300h100V0H0z"/><path fill="#c9f" d="M100-300h100V0H100z"/><path fill="#fcf" d="M200-300h100V0H200z"/></g><g id="matrices"><path fill="#ccc" d="M0-400h300V0H0z"/><text x="150" y="1em" class="mat">M</text><text x="150" y="2em" class="dim"><tspan class="var">m</tspan><tspan>×</tspan><tspan class="var">n</tspan></text><use xlink:href="#equal" transform="translate(400)"/><g transform="translate(500)"><use xlink:href="#matrix_u"/><text x="200" y="1em"><tspan class="mat">U</tspan></text><text x="200" y="2em" class="dim"><tspan class="var">m</tspan><tspan>×</tspan><tspan class="var">m</tspan></text></g><path fill="url(#pattern_zero)" d="M0-400h300V0H0z" transform="translate(1000)"/><path fill="#f90" d="M1000-400h100v100h-100z"/><path fill="#fc0" d="M1100-300h100v100h-100z"/><path fill="#ff0" d="M1200-200h100v100h-100z"/><text x="150" y="1em" transform="translate(1000)"><tspan class="mat">Σ</tspan></text><text x="150" y="2em" class="dim" transform="translate(1000)"><tspan class="var">m</tspan><tspan>×</tspan><tspan class="var">n</tspan></text><g transform="translate(1400)"><use xlink:href="#matrix_vt"/><text x="150" y="1em"><tspan class="mat">V</tspan><tspan dy="-.5ex" font-size="80%">*</tspan></text><text x="150" y="2em" class="dim"><tspan class="var">n</tspan><tspan>×</tspan><tspan class="var">n</tspan></text></g><g transform="translate(100 800)"><g><use xlink:href="#matrix_u"/><text x="200" y="1em"><tspan class="mat">U</tspan></text></g><g transform="translate(500)"><use xlink:href="#matrix_ut"/><text x="200" y="1em"><tspan class="mat">U</tspan><tspan dy="-.5ex" font-size="80%">*</tspan></text></g><use xlink:href="#equal" transform="translate(1000)"/><path fill="url(#pattern_eye4)" d="M0-400h400V0H0z" transform="translate(1100)"/><text x="200" y="1em" transform="translate(1100)"><tspan class="mat">I</tspan><tspan class="var" dy=".5ex" font-size="80%">m</tspan></text></g><g transform="translate(100 1400)"><g transform="translate(100)"><use xlink:href="#matrix_v"/><text x="150" y="1em"><tspan class="mat">V</tspan></text></g><g transform="translate(500)"><use xlink:href="#matrix_vt"/><text x="150" y="1em"><tspan class="mat">V</tspan><tspan dy="-.5ex" font-size="80%">*</tspan></text></g><use xlink:href="#equal" transform="translate(1000)"/><path fill="url(#pattern_eye4)" d="M100-300h300V0H100z" transform="translate(1100)"/><text x="250" y="1em" transform="translate(1100)"><tspan class="mat">I</tspan><tspan class="var" dy=".5ex" font-size="80%">n</tspan></text></g></g><use xlink:href="#matrix_u" id="matrix_ut" transform="matrix(0 1 1 0 400 -400)"/><use xlink:href="#matrix_v" id="matrix_vt" transform="matrix(0 1 1 0 300 -300)"/><text id="equal" x="0" y="1em"><tspan>=</tspan></text><mask id="mask_matrices"><use xlink:href="#matrices"/></mask></defs><circle r="99999" fill="#fff"/><g style="stroke-linejoin:round;stroke-width:4;stroke:#000;fill:#000"><use xlink:href="#matrices"/><circle r="99999" fill="url(#pattern_grid)" mask="url(#mask_matrices)"/></g></svg>