<svg xmlns="http://www.w3.org/2000/svg" xmlns:xlink="http://www.w3.org/1999/xlink" width="516.96" height="109.24" viewBox="0 0 387.72 81.93"><defs><path id="a" d="M.284.625c0 .02-.014.036-.037.036C.22.661.193.635.193.608.193.59.207.572.231.572c.023 0 .053.023.053.053M.208.25.23.307c.008.02.013.034.013.053a.08.08 0 0 1-.082.082C.067.442.029.297.029.288s.01-.01.012-.01c.01 0 .011.002.016.018C.084.39.124.42.158.42.166.42.183.42.183.388A.2.2 0 0 0 .172.336C.164.31.119.194.103.151.093.125.08.092.08.071A.08.08 0 0 1 .162-.01c.094 0 .131.145.131.154s-.009.01-.012.01C.271.153.271.15.266.135.248.072.215.011.164.011Q.139.011.14.044c0 .025.006.04.029.1z"/><path id="b" d="M.335.636c0 .027-.002.028-.03.028C.241.601.15.6.109.6V.564c.024 0 .09 0 .145.028v-.51c0-.033 0-.046-.1-.046H.116V0l.178.004L.473 0v.036H.435c-.1 0-.1.013-.1.046z"/><path id="c" d="M.505.182H.471C.468.16.458.101.445.091.437.085.36.085.346.085H.162a4 4 0 0 0 .2.168c.074.06.143.121.143.216C.505.59.399.664.271.664.147.664.063.577.063.485.063.435.106.43.116.43.14.43.169.446.169.482.169.5.162.535.11.535c.031.071.099.093.146.093.1 0 .152-.078.152-.159C.408.382.346.313.314.277L.073.04C.063.03.063.028.063 0h.412z"/><path id="d" d="M.397.625c0 .02-.014.036-.038.036C.336.661.306.638.306.608c0-.02.014-.036.037-.036.027 0 .054.026.054.053M.196-.05C.177-.126.129-.183.073-.183c-.006 0-.021 0-.039.009.03.007.045.033.045.053 0 .016-.011.035-.038.035a.056.056 0 0 1-.054-.057c0-.04.04-.062.088-.062.07 0 .163.053.188.152l.092.366Q.361.344.36.35a.09.09 0 0 1-.092.092C.166.442.109.297.109.288s.01-.01.012-.01c.009 0 .01.001.018.02C.164.36.21.42.265.42.279.42.297.416.297.374.297.351.294.34.29.324z"/><path id="e" d="M.273.334C.351.334.407.28.407.174.407.048.335.011.277.011c-.04 0-.128.011-.17.07.047.002.058.035.058.056A.054.054 0 0 1 .11.193C.082.193.054.176.054.135c0-.094.104-.155.225-.155.139 0 .235.093.235.193C.514.251.45.33.34.353.445.39.483.464.483.525c0 .08-.091.138-.202.138S.085.61.085.53c0-.034.022-.053.052-.053a.05.05 0 0 1 .051.051c0 .03-.02.05-.051.052.035.044.104.055.141.055.045 0 .108-.022.108-.109a.2.2 0 0 0-.04-.119C.313.37.285.367.235.364L.203.361C.201.361.193.36.193.348c0-.014.009-.014.026-.014z"/><path id="f" d="M.287.683c0 .001 0 .011-.013.011C.251.694.178.686.152.684.144.684.133.682.133.664c0-.012.009-.012.024-.012.048 0 .05-.007.05-.017L.204.615.059.04C.055.025.055.023.055.017c0-.023.02-.028.029-.028A.04.04 0 0 1 .118.01c.005.01.05.194.056.22C.208.225.29.21.29.143c0-.007 0-.01-.003-.02L.283.087c0-.059.04-.099.092-.099q.046-.001.079.053A.4.4 0 0 1 .49.143c0 .01-.009.01-.012.01C.468.153.467.15.464.135.444.062.421.011.377.011.358.011.345.022.345.058c0 .017.004.04.008.056a.1.1 0 0 1 .004.031C.357.21.294.24.209.25.24.268.272.3.295.324.343.377.389.42.438.42h.009C.459.416.46.416.468.41Q.47.411.472.407A.057.057 0 0 1 .415.353c0-.016.011-.035.038-.035.026 0 .055.022.055.061C.508.41.485.442.44.442.412.442.366.434.294.354A.4.4 0 0 0 .183.261z"/><path id="g" d="M.687.327c.015 0 .034 0 .034.02s-.019.02-.033.02H.089c-.014 0-.033 0-.033-.02S.075.327.09.327zM.688.133c.014 0 .033 0 .033.02s-.019.02-.034.02H.09c-.015 0-.034 0-.034-.02s.019-.02.033-.02z"/><path id="h" d="M.179.115C.139.048.1.034.056.03.044.03.035.03.035.011q0-.01.013-.011l.086.003.1-.003C.24 0 .253 0 .253.019.253.03.244.031.237.031.214.033.19.041.19.066q.001.017.014.037L.28.23h.251L.547.064C.547.034.495.03.475.03c-.014 0-.024 0-.024-.02C.451 0 .463 0 .465 0L.59.003.703 0c.006 0 .018 0 .018.02 0 .011-.01.011-.023.011-.062 0-.062.007-.065.036L.572.692C.57.712.57.716.553.716.537.716.533.709.527.699zm.12.147.197.33.032-.33z"/><path id="i" d="M.324.625a.04.04 0 0 1-.04.038C.257.663.228.637.228.608.228.591.241.57.268.57c.029 0 .056.028.056.055M.12.117Q.113.1.111.075c0-.047.04-.085.095-.085.1 0 .144.138.144.153C.35.156.337.156.334.156.32.156.319.15.315.14.292.06.248.02.209.02.189.018.184.03.184.052Q.185.086.2.117l.032.08.049.127a.1.1 0 0 1 .006.032c0 .047-.04.085-.095.085C.093.441.047.305.047.288c0-.013.014-.013.017-.013.014 0 .015.005.018.016.026.086.07.122.107.122.016 0 .025-.008.025-.035C.214.355.208.34.183.278z"/><path id="j" d="M.398.636c0 .03-.003.03-.036.03C.291.602.18.602.16.602H.143V.558H.16c.023 0 .088.003.146.028v-.5C.306.055.306.044.2.044H.15V0c.055.004.144.004.202.004S.499.004.554 0v.044h-.05C.398.044.398.055.398.086z"/><path id="k" d="M.589.193H.547C.544.174.534.112.518.102.51.096.426.096.411.096H.215c.066.049.14.105.2.145.09.062.174.12.174.226 0 .128-.121.199-.264.199C.19.666.091.588.091.49c0-.052.044-.061.058-.061.027 0 .059.018.059.059 0 .036-.026.056-.057.059a.18.18 0 0 0 .153.075C.401.622.482.564.482.466.482.382.424.318.347.253L.103.046C.093.037.092.037.091.03V0h.465z"/><path id="l" d="M.211.016c0-.055-.01-.12-.078-.183Q.126-.172.126-.18c0-.007.008-.014.014-.014.014 0 .099.08.099.199 0 .062-.024.109-.07.109A.056.056 0 0 1 .112.058C.112.026.135 0 .17 0c.024 0 .04.016.041.016"/><path id="m" d="M.439.625a.04.04 0 0 1-.04.038C.37.663.343.635.343.608.343.592.355.57.383.57.41.57.439.596.439.625M.227-.049C.21-.118.157-.176.098-.176a.1.1 0 0 0-.036.006.06.06 0 0 1 .034.051c0 .024-.019.037-.039.037A.06.06 0 0 1 0-.141c0-.038.039-.063.099-.063s.177.036.208.158l.09.358C.4.323.402.332.402.347c0 .055-.047.094-.107.094C.184.441.12.302.12.288S.134.275.137.275c.012 0 .013.003.02.018.025.058.077.12.135.12q.036 0 .034-.049L.323.334z"/><path id="n" d="M.33.331C.422.331.483.274.483.174.483.072.42.02.331.02.32.019.201.019.15.07c.041.006.053.037.053.061a.06.06 0 0 1-.061.061C.11.192.08.172.08.13c0-.103.118-.151.254-.151C.498-.022.6.076.6.173.6.256.527.326.413.353c.12.038.152.114.152.17 0 .082-.102.143-.228.143C.214.666.115.614.115.524c0-.047.038-.06.057-.06.029 0 .057.022.057.058 0 .023-.012.05-.048.057.043.046.132.049.153.049.073 0 .125-.037.125-.105C.459.465.421.374.316.368L.258.365C.247.364.236.363.236.348c0-.017.01-.017.028-.017z"/><path id="o" d="M.635.578c.01.04.028.07.108.074.005 0 .017 0 .017.02 0 0 0 .01-.013.01L.645.68.541.683c-.006 0-.018 0-.018-.02 0-.011.01-.011.018-.011C.598.65.609.63.609.608L.606.587.516.23C.482.096.367.009.267.009c-.068 0-.122.044-.122.13 0 .002 0 .034.011.078l.097.389c.009.036.011.046.084.046.026 0 .034 0 .034.02 0 .01-.011.01-.014.01L.229.68.1.683c-.008 0-.019 0-.019-.02C.081.652.09.652.109.652.111.652.13.652.147.65.165.648.174.647.174.634.174.628.163.586.157.563L.135.475.074.228C.067.2.067.185.067.17c0-.122.091-.192.196-.192.126 0 .25.113.283.245z"/><path id="p" d="M.313.664.317.68c0 .005-.004.014-.016.014-.02 0-.103-.008-.128-.01C.165.684.151.682.151.661c0-.014.014-.014.026-.014C.225.647.225.64.225.632q0-.01-.004-.022L.08.044.075.022c0-.015.012-.032.034-.032.027 0 .04.02.046.042l.049.194C.275.22.332.196.332.144L.33.124C.326.11.326.104.326.094c0-.072.058-.104.106-.104.097 0 .127.152.127.153 0 .013-.013.013-.016.013C.529.156.528.151.523.132.511.09.484.018.435.018.408.018.4.043.4.07.4.087.4.09.406.115l.005.031c0 .09-.12.103-.162.106.029.018.066.051.083.066.051.048.101.095.157.095Q.509.414.522.4A.06.06 0 0 1 .47.344C.47.322.487.307.51.307c.027 0 .057.022.057.064 0 .033-.024.07-.077.07C.433.441.381.401.33.353A.4.4 0 0 0 .214.265z"/><path id="q" d="M.372.326c.009.01.009.014.009.016Q.38.35.374.356L.169.652H.4C.569.652.619.616.64.458h.025L.637.683H.082C.058.683.056.683.056.66L.305.298.067.027C.057.016.057.014.057.011.057 0 .067 0 .082 0h.555l.028.236H.64C.622.069.554.042.397.042H.121z"/><path id="r" d="M.628.569c.049.078.091.08.128.083.012 0 .013.018.013.019q0 .012-.013.012L.674.68.575.683c-.006 0-.019 0-.019-.02 0-.01.009-.011.016-.011C.599.65.618.64.618.619.618.604.603.582.603.58L.296.093.228.622c0 .017.023.03.069.03.014 0 .025 0 .025.02 0 .009-.008.01-.014.01L.184.68H.129L.075.684c-.007 0-.019 0-.019-.02 0-.011.009-.011.025-.011.056 0 .057-.01.06-.034L.22 0c.003-.02.007-.023.02-.023.016 0 .02.005.028.018z"/><path id="s" d="M.29.472a.1.1 0 0 1 .009.032C.299.535.271.559.24.559.202.56.19.528.185.512L.053.08.048.063c0-.012.031-.022.039-.022.007 0 .008.002.015.017z"/></defs><path fill="none" stroke="#000" stroke-miterlimit="10" stroke-width=".797" d="M37.618 30.257 14.94 16.084m22.678 14.173L14.94 44.43m22.678-14.173L60.296 7.579M37.618 30.257h22.678m-22.678 0 22.678 22.678m90.71-22.678-22.678-14.173m22.677 14.173L128.328 44.43m79.37-14.173 22.678-22.678m-79.37 22.678h79.37m-22.677 0 22.677 22.678m90.71-22.678L298.41 16.084m22.677 14.173L298.41 44.43m51.024-14.173L372.11 7.579m-51.024 22.678h51.024m-22.677 0 22.677 22.678m-36.85-34.017"/><use xlink:href="#a" data-text="i" transform="matrix(9.9626 0 0 -9.9626 3.32 18.622)"/><use xlink:href="#b" data-text="1" transform="matrix(6.9738 0 0 -6.9738 6.753 20.116)"/><use xlink:href="#a" data-text="i" transform="matrix(9.9626 0 0 -9.9626 3.32 46.969)"/><use xlink:href="#c" data-text="2" transform="matrix(6.9738 0 0 -6.9738 6.753 48.463)"/><use xlink:href="#d" data-text="j" transform="matrix(9.9626 0 0 -9.9626 64.015 9.896)"/><use xlink:href="#b" data-text="1" transform="matrix(6.9738 0 0 -6.9738 68.118 11.39)"/><use xlink:href="#d" data-text="j" transform="matrix(9.9626 0 0 -9.9626 64.015 32.574)"/><use xlink:href="#c" data-text="2" transform="matrix(6.9738 0 0 -6.9738 68.118 34.068)"/><use xlink:href="#d" data-text="j" transform="matrix(9.9626 0 0 -9.9626 64.015 55.251)"/><use xlink:href="#e" data-text="3" transform="matrix(6.9738 0 0 -6.9738 68.118 56.745)"/><use xlink:href="#a" data-text="i" transform="matrix(9.9626 0 0 -9.9626 116.707 18.622)"/><use xlink:href="#b" data-text="1" transform="matrix(6.9738 0 0 -6.9738 120.14 20.116)"/><use xlink:href="#a" data-text="i" transform="matrix(9.9626 0 0 -9.9626 116.707 46.969)"/><use xlink:href="#c" data-text="2" transform="matrix(6.9738 0 0 -6.9738 120.14 48.463)"/><use xlink:href="#d" data-text="j" transform="matrix(9.9626 0 0 -9.9626 234.095 9.896)"/><use xlink:href="#b" data-text="1" transform="matrix(6.9738 0 0 -6.9738 238.198 11.39)"/><use xlink:href="#d" data-text="j" transform="matrix(9.9626 0 0 -9.9626 234.095 32.574)"/><use xlink:href="#c" data-text="2" transform="matrix(6.9738 0 0 -6.9738 238.198 34.068)"/><use xlink:href="#d" data-text="j" transform="matrix(9.9626 0 0 -9.9626 234.095 55.251)"/><use xlink:href="#e" data-text="3" transform="matrix(6.9738 0 0 -6.9738 238.198 56.745)"/><use xlink:href="#a" data-text="i" transform="matrix(9.9626 0 0 -9.9626 286.788 18.622)"/><use xlink:href="#b" data-text="1" transform="matrix(6.9738 0 0 -6.9738 290.221 20.116)"/><use xlink:href="#a" data-text="i" transform="matrix(9.9626 0 0 -9.9626 286.788 46.969)"/><use xlink:href="#c" data-text="2" transform="matrix(6.9738 0 0 -6.9738 290.221 48.463)"/><use xlink:href="#d" data-text="j" transform="matrix(9.9626 0 0 -9.9626 375.829 9.896)"/><use xlink:href="#b" data-text="1" transform="matrix(6.9738 0 0 -6.9738 379.932 11.39)"/><use xlink:href="#d" data-text="j" transform="matrix(9.9626 0 0 -9.9626 375.829 32.574)"/><use xlink:href="#c" data-text="2" transform="matrix(6.9738 0 0 -6.9738 379.932 34.068)"/><use xlink:href="#d" data-text="j" transform="matrix(9.9626 0 0 -9.9626 375.829 55.251)"/><use xlink:href="#e" data-text="3" transform="matrix(6.9738 0 0 -6.9738 379.932 56.745)"/><use xlink:href="#f" data-text="k" transform="matrix(9.9626 0 0 -9.9626 162.428 22.378)"/><use xlink:href="#f" data-text="k" transform="matrix(9.9626 0 0 -9.9626 190.775 22.378)"/><use xlink:href="#f" data-text="k" transform="matrix(9.9626 0 0 -9.9626 332.509 22.378)"/><path fill="#f44336" d="M42.314 30.257a4.696 4.696 0 1 0-9.392 0 4.696 4.696 0 0 0 9.392 0m-4.696 0"/><path fill="none" stroke="#000" stroke-miterlimit="10" stroke-width=".797" d="M42.314 30.257a4.696 4.696 0 1 0-9.392 0 4.696 4.696 0 0 0 9.392 0Zm-4.696 0"/><path fill="#4caf50" d="M155.702 30.257a4.696 4.696 0 1 0-9.393 0 4.696 4.696 0 0 0 9.393 0m-4.697 0"/><path fill="none" stroke="#000" stroke-miterlimit="10" stroke-width=".797" d="M155.702 30.257a4.696 4.696 0 1 0-9.393 0 4.696 4.696 0 0 0 9.393 0Zm-4.697 0"/><path fill="#2196f3" d="M212.395 30.257a4.696 4.696 0 1 0-9.392 0 4.696 4.696 0 0 0 9.392 0m-4.696 0"/><path fill="none" stroke="#000" stroke-miterlimit="10" stroke-width=".797" d="M212.395 30.257a4.696 4.696 0 1 0-9.392 0 4.696 4.696 0 0 0 9.392 0Zm-4.696 0"/><path fill="#4caf50" d="M325.782 30.257a4.696 4.696 0 1 0-9.392 0 4.696 4.696 0 0 0 9.392 0m-4.696 0"/><path fill="none" stroke="#000" stroke-miterlimit="10" stroke-width=".797" d="M325.782 30.257a4.696 4.696 0 1 0-9.392 0 4.696 4.696 0 0 0 9.392 0Zm-4.696 0"/><path fill="#2196f3" d="M354.13 30.257a4.696 4.696 0 1 0-9.393 0 4.696 4.696 0 0 0 9.392 0m-4.697 0"/><path fill="none" stroke="#000" stroke-miterlimit="10" stroke-width=".797" d="M354.13 30.257a4.696 4.696 0 1 0-9.393 0 4.696 4.696 0 0 0 9.392 0Zm-4.697 0"/><path fill="#ff9800" d="m187.856 30.257-8.504-8.504-8.504 8.504 8.504 8.504Z"/><path fill="none" stroke="#000" stroke-miterlimit="10" stroke-width=".797" d="m187.856 30.257-8.504-8.504-8.504 8.504 8.504 8.504Z"/><use xlink:href="#g" data-text="=" transform="matrix(9.9626 0 0 -9.9626 90.437 32.085)"/><use xlink:href="#g" data-text="=" transform="matrix(9.9626 0 0 -9.9626 260.518 32.085)"/><use xlink:href="#h" data-text="A" transform="matrix(9.9626 0 0 -9.9626 14.965 74.756)"/><use xlink:href="#i" data-text="i" transform="matrix(6.9738 0 0 -6.9738 22.437 76.25)"/><use xlink:href="#j" data-text="1" transform="matrix(4.9813 0 0 -4.9813 25.256 77.246)"/><use xlink:href="#i" data-text="i" transform="matrix(6.9738 0 0 -6.9738 29.144 76.25)"/><use xlink:href="#k" data-text="2" transform="matrix(4.9813 0 0 -4.9813 31.963 77.246)"/><use xlink:href="#l" data-text="," transform="matrix(6.9738 0 0 -6.9738 35.851 76.25)"/><use xlink:href="#m" data-text="j" transform="matrix(6.9738 0 0 -6.9738 38.215 76.25)"/><use xlink:href="#j" data-text="1" transform="matrix(4.9813 0 0 -4.9813 41.514 77.246)"/><use xlink:href="#m" data-text="j" transform="matrix(6.9738 0 0 -6.9738 45.402 76.25)"/><use xlink:href="#k" data-text="2" transform="matrix(4.9813 0 0 -4.9813 48.699 77.246)"/><use xlink:href="#m" data-text="j" transform="matrix(6.9738 0 0 -6.9738 52.587 76.25)"/><use xlink:href="#n" data-text="3" transform="matrix(4.9813 0 0 -4.9813 55.884 77.246)"/><use xlink:href="#o" data-text="U" transform="matrix(9.9626 0 0 -9.9626 140.042 74.756)"/><use xlink:href="#i" data-text="i" transform="matrix(6.9738 0 0 -6.9738 146.845 76.25)"/><use xlink:href="#j" data-text="1" transform="matrix(4.9813 0 0 -4.9813 149.663 77.246)"/><use xlink:href="#i" data-text="i" transform="matrix(6.9738 0 0 -6.9738 153.552 76.25)"/><use xlink:href="#k" data-text="2" transform="matrix(4.9813 0 0 -4.9813 156.37 77.246)"/><use xlink:href="#l" data-text="," transform="matrix(6.9738 0 0 -6.9738 160.259 76.25)"/><use xlink:href="#p" data-text="k" transform="matrix(6.9738 0 0 -6.9738 162.623 76.25)"/><use xlink:href="#q" data-text="Σ" transform="matrix(9.9626 0 0 -9.9626 167.527 74.756)"/><use xlink:href="#p" data-text="k" transform="matrix(6.9738 0 0 -6.9738 174.722 76.25)"/><use xlink:href="#p" data-text="k" transform="matrix(6.9738 0 0 -6.9738 179.122 76.25)"/><use xlink:href="#r" data-text="V" transform="matrix(9.9626 0 0 -9.9626 184.027 74.756)"/><use xlink:href="#p" data-text="k" transform="matrix(6.9738 0 0 -6.9738 189.839 76.25)"/><use xlink:href="#l" data-text="," transform="matrix(6.9738 0 0 -6.9738 194.24 76.25)"/><use xlink:href="#m" data-text="j" transform="matrix(6.9738 0 0 -6.9738 196.604 76.25)"/><use xlink:href="#j" data-text="1" transform="matrix(4.9813 0 0 -4.9813 199.905 77.246)"/><use xlink:href="#m" data-text="j" transform="matrix(6.9738 0 0 -6.9738 203.793 76.25)"/><use xlink:href="#k" data-text="2" transform="matrix(4.9813 0 0 -4.9813 207.09 77.246)"/><use xlink:href="#m" data-text="j" transform="matrix(6.9738 0 0 -6.9738 210.978 76.25)"/><use xlink:href="#n" data-text="3" transform="matrix(4.9813 0 0 -4.9813 214.275 77.246)"/><use xlink:href="#o" data-text="U" transform="matrix(9.9626 0 0 -9.9626 304.2 74.433)"/><use xlink:href="#s" data-text="′" transform="matrix(6.9738 0 0 -6.9738 312.089 70.817)"/><use xlink:href="#i" data-text="i" transform="matrix(6.9738 0 0 -6.9738 311.003 77.254)"/><use xlink:href="#j" data-text="1" transform="matrix(4.9813 0 0 -4.9813 313.821 78.25)"/><use xlink:href="#i" data-text="i" transform="matrix(6.9738 0 0 -6.9738 317.71 77.254)"/><use xlink:href="#k" data-text="2" transform="matrix(4.9813 0 0 -4.9813 320.528 78.25)"/><use xlink:href="#l" data-text="," transform="matrix(6.9738 0 0 -6.9738 324.417 77.254)"/><use xlink:href="#p" data-text="k" transform="matrix(6.9738 0 0 -6.9738 326.781 77.254)"/><use xlink:href="#r" data-text="V" transform="matrix(9.9626 0 0 -9.9626 331.685 74.433)"/><use xlink:href="#s" data-text="′" transform="matrix(6.9738 0 0 -6.9738 339.71 70.817)"/><use xlink:href="#p" data-text="k" transform="matrix(6.9738 0 0 -6.9738 337.496 77.254)"/><use xlink:href="#l" data-text="," transform="matrix(6.9738 0 0 -6.9738 341.896 77.254)"/><use xlink:href="#m" data-text="j" transform="matrix(6.9738 0 0 -6.9738 344.26 77.254)"/><use xlink:href="#j" data-text="1" transform="matrix(4.9813 0 0 -4.9813 347.563 78.25)"/><use xlink:href="#m" data-text="j" transform="matrix(6.9738 0 0 -6.9738 351.451 77.254)"/><use xlink:href="#k" data-text="2" transform="matrix(4.9813 0 0 -4.9813 354.748 78.25)"/><use xlink:href="#m" data-text="j" transform="matrix(6.9738 0 0 -6.9738 358.636 77.254)"/><use xlink:href="#n" data-text="3" transform="matrix(4.9813 0 0 -4.9813 361.932 78.25)"/></svg>