<svg xmlns="http://www.w3.org/2000/svg" xmlns:xlink="http://www.w3.org/1999/xlink" width="911" height="181" viewBox="0 0 911 181"><defs><path id="f" d="M.373 0H.285v.56A.59.59 0 0 0 .109.454V.54a.5.5 0 0 1 .129.084.3.3 0 0 1 .078.096h.057z"/><path id="g" d="M.09 0v.1h.1V0z"/><path id="h" d="M.042.353q0 .128.026.204a.25.25 0 0 0 .077.12.2.2 0 0 0 .13.042.193.193 0 0 0 .173-.09.4.4 0 0 0 .044-.107.7.7 0 0 0 .016-.169A.7.7 0 0 0 .482.15.25.25 0 0 0 .405.03a.2.2 0 0 0-.13-.042.2.2 0 0 0-.163.074q-.07.09-.07.291m.09 0q0-.175.041-.234Q.215.06.275.06t.102.058q.04.059.041.234 0 .177-.041.234-.042.06-.103.059A.11.11 0 0 1 .177.594Q.132.53.132.353"/><path id="i" d="m.042.188.092.007a.17.17 0 0 1 .047-.1.13.13 0 0 1 .09-.034.14.14 0 0 1 .108.047.18.18 0 0 1 .044.127Q.423.31.38.354A.15.15 0 0 1 .27.397a.15.15 0 0 1-.13-.07L.057.34l.07.368h.355V.623H.197L.158.43q.065.045.135.046A.21.21 0 0 0 .452.41.23.23 0 0 0 .516.243.26.26 0 0 0 .46.075a.23.23 0 0 0-.188-.087.23.23 0 0 0-.159.055.21.21 0 0 0-.07.145"/><path id="j" d="M.503.085V0H.03q0 .032.01.061a.3.3 0 0 0 .058.095 1 1 0 0 0 .115.109Q.33.36.371.416a.2.2 0 0 1 .041.106.12.12 0 0 1-.037.088.14.14 0 0 1-.098.036.14.14 0 0 1-.101-.039.14.14 0 0 1-.039-.105l-.09.01q.01.1.07.154t.162.053A.23.23 0 0 0 .442.662.19.19 0 0 0 .502.52.2.2 0 0 0 .485.436.3.3 0 0 0 .427.348 1.4 1.4 0 0 0 .29.222a2 2 0 0 1-.102-.09.3.3 0 0 1-.037-.047z"/><path id="k" d="M.042.19.13.202A.2.2 0 0 1 .18.094.13.13 0 0 1 .27.062q.062 0 .105.042a.14.14 0 0 1 .042.107.135.135 0 0 1-.14.139.3.3 0 0 1-.062-.01l.01.077L.24.416q.056 0 .101.03.045.028.045.09 0 .047-.032.079a.12.12 0 0 1-.085.031.12.12 0 0 1-.085-.032.16.16 0 0 1-.044-.096L.05.533q.015.09.073.137A.2.2 0 0 0 .266.72q.06 0 .108-.025a.18.18 0 0 0 .102-.16A.15.15 0 0 0 .45.448a.17.17 0 0 0-.074-.06.17.17 0 0 0 .099-.061A.2.2 0 0 0 .51.212.21.21 0 0 0 .442.053.24.24 0 0 0 .27-.012.218.218 0 0 0 .042.19"/><path id="l" d="M.323 0v.172h-.31v.08l.326.464h.072V.253h.097V.172H.41V0zm0 .253v.32L.1.254z"/><path id="m" d="M.177.389a.17.17 0 0 0-.081.057.15.15 0 0 0-.027.089q.001.078.056.13a.2.2 0 0 0 .15.054.2.2 0 0 0 .15-.055.18.18 0 0 0 .058-.132.15.15 0 0 0-.026-.086.17.17 0 0 0-.08-.057.2.2 0 0 0 .1-.07.2.2 0 0 0 .035-.114.2.2 0 0 0-.065-.154.24.24 0 0 0-.17-.063q-.106 0-.172.063a.2.2 0 0 0-.064.157.2.2 0 0 0 .035.117.18.18 0 0 0 .1.064M.16.538A.11.11 0 0 1 .277.423q.05 0 .083.032a.1.1 0 0 1 .033.078q0 .048-.034.08a.11.11 0 0 1-.083.033.12.12 0 0 1-.084-.032A.1.1 0 0 1 .16.538M.131.207q0-.038.018-.073A.13.13 0 0 1 .202.08.16.16 0 0 1 .277.06Q.34.06.381.102a.14.14 0 0 1 .041.103A.14.14 0 0 1 .38.31a.14.14 0 0 1-.106.042.14.14 0 0 1-.143-.144"/><path id="n" d="M.498.54.41.533A.2.2 0 0 1 .377.61a.12.12 0 0 1-.088.037.12.12 0 0 1-.074-.023A.2.2 0 0 1 .15.535.5.5 0 0 1 .125.37a.2.2 0 0 0 .174.095A.2.2 0 0 0 .449.4.23.23 0 0 0 .51.233.3.3 0 0 0 .481.108a.21.21 0 0 0-.195-.12.23.23 0 0 0-.18.081Q.039.15.039.335q0 .207.076.302a.22.22 0 0 0 .18.082A.2.2 0 0 0 .433.67.2.2 0 0 0 .498.54M.138.232q0-.045.02-.087A.14.14 0 0 1 .212.082.14.14 0 0 1 .285.061Q.34.06.38.105.42.15.42.227q0 .075-.04.117a.13.13 0 0 1-.099.043.14.14 0 0 1-.1-.043.15.15 0 0 1-.042-.112"/><path id="o" d="M.077 0v.716h.27a1 1 0 0 0 .11-.007.2.2 0 0 0 .087-.033.2.2 0 0 0 .058-.07A.2.2 0 0 0 .624.51.22.22 0 0 0 .565.354Q.508.291.355.291H.172V0zm.095.376h.185q.092 0 .13.034a.12.12 0 0 1 .039.096q0 .045-.023.076a.1.1 0 0 1-.06.043.4.4 0 0 1-.088.006H.172z"/><path id="p" d="M.404.065a.267.267 0 0 0-.19-.077q-.086 0-.132.042a.14.14 0 0 0-.046.107.14.14 0 0 0 .063.12q.028.019.063.029A1 1 0 0 0 .24.299a1 1 0 0 1 .157.03v.023q0 .053-.024.075-.034.03-.1.03Q.21.457.18.435T.137.358L.051.37Q.062.425.09.46q.027.033.077.052A.4.4 0 0 0 .285.53.3.3 0 0 0 .393.515a.14.14 0 0 0 .061-.04.14.14 0 0 0 .027-.06 1 1 0 0 0 .005-.08V.216q0-.122.005-.154A.2.2 0 0 1 .514 0H.422a.2.2 0 0 0-.018.065M.397.26A.7.7 0 0 0 .253.227.3.3 0 0 1 .177.209.074.074 0 0 1 .13.14q0-.035.026-.058Q.183.058.234.058t.09.022a.14.14 0 0 1 .059.06.2.2 0 0 1 .014.088z"/><path id="q" d="M.065 0v.519h.079v-.08Q.174.496.2.514A.1.1 0 0 0 .256.53q.045 0 .09-.028L.317.42a.13.13 0 0 1-.064.02A.1.1 0 0 1 .2.421.1.1 0 0 1 .167.374.3.3 0 0 1 .153.271V0z"/><path id="r" d="M.258.079.27 0a.3.3 0 0 0-.067-.008.15.15 0 0 0-.074.015.1.1 0 0 0-.037.04.3.3 0 0 0-.011.104V.45H.018V.52h.064v.128L.169.7V.519h.089V.45H.169V.147q0-.038.005-.048A.04.04 0 0 1 .19.082.1.1 0 0 1 .22.075q.015 0 .039.004"/><path id="s" d="M.066.615v.1h.088v-.1zm0-.615v.519h.088V0z"/><path id="t" d="M.033.26q0 .143.08.213A.24.24 0 0 0 .276.53Q.384.53.451.46A.27.27 0 0 0 .52.267q0-.1-.03-.158A.2.2 0 0 0 .402.02a.25.25 0 0 0-.126-.032.23.23 0 0 0-.176.07Q.034.128.033.26m.09 0q0-.1.044-.149a.14.14 0 0 1 .11-.05q.065 0 .108.05Q.43.16.43.262q0 .096-.044.146a.14.14 0 0 1-.109.049.14.14 0 0 1-.109-.05Q.124.36.124.26"/><path id="u" d="M.066 0v.519h.079V.445A.19.19 0 0 0 .31.53Q.357.53.396.513A.14.14 0 0 0 .482.404 1 1 0 0 0 .487.32V0H.4v.315a.2.2 0 0 1-.01.08.1.1 0 0 1-.036.043.142.142 0 0 1-.158-.02Q.153.383.154.283V0z"/><path id="v" d="M.087 0v.45H.009V.52h.078v.055q0 .051.01.077A.1.1 0 0 0 .14.706a.16.16 0 0 0 .09.022.4.4 0 0 0 .081-.01L.3.643a.3.3 0 0 1-.051.004Q.208.646.19.63.174.612.174.566V.519h.101V.45h-.1V0z"/><path id="w" d="M.406 0v.077A.19.19 0 0 0 .24-.012a.2.2 0 0 0-.085.018.14.14 0 0 0-.06.044.2.2 0 0 0-.027.065.5.5 0 0 0-.005.082V.52h.088V.23q0-.068.005-.092A.1.1 0 0 1 .192.084.1.1 0 0 1 .26.064q.039 0 .074.02.035.021.05.056.013.035.013.101v.278h.088V0z"/><path id="x" d="M.404.19.491.18a.22.22 0 0 0-.073-.14.2.2 0 0 0-.143-.05.22.22 0 0 0-.171.069q-.065.07-.065.2 0 .083.028.146A.2.2 0 0 0 .152.5q.057.03.123.031A.22.22 0 0 0 .414.488a.2.2 0 0 0 .068-.12L.397.353a.14.14 0 0 1-.043.078.1.1 0 0 1-.075.026A.14.14 0 0 1 .17.41Q.129.363.129.26q0-.104.04-.152A.13.13 0 0 1 .274.06Q.325.06.36.092A.16.16 0 0 1 .404.19"/><path id="D" d="M.529.22H.055V.3H.53z"/><path id="E" d="M.08 0v.716h.517V.63H.174V.413H.57V.328H.174V.085h.44V0z"/><path id="F" d="M.42.168.513.156a.22.22 0 0 0-.08-.124.24.24 0 0 0-.148-.044.24.24 0 0 0-.18.07.27.27 0 0 0-.067.197q0 .13.067.203A.23.23 0 0 0 .279.53q.105 0 .17-.07a.28.28 0 0 0 .066-.2V.238H.126a.2.2 0 0 1 .049-.13A.14.14 0 0 1 .284.06q.048 0 .083.025A.17.17 0 0 1 .42.168M.132.31h.29a.2.2 0 0 1-.033.097.14.14 0 0 1-.11.051.14.14 0 0 1-.101-.04A.16.16 0 0 1 .132.31"/><path id="G" d="m.05-.043.085-.012q.006-.04.03-.058a.14.14 0 0 1 .09-.025q.06 0 .094.025a.12.12 0 0 1 .045.068A.6.6 0 0 1 .4.068.18.18 0 0 0 .256 0a.2.2 0 0 0-.165.077.3.3 0 0 0-.059.185Q.032.337.06.4a.2.2 0 0 0 .078.097.2.2 0 0 0 .12.034.19.19 0 0 0 .151-.075V.52H.49V.07a.4.4 0 0 0-.024-.172.2.2 0 0 0-.079-.08.3.3 0 0 0-.131-.029.25.25 0 0 0-.15.042Q.048-.127.05-.043m.073.312q0-.102.04-.149A.13.13 0 0 1 .265.073.13.13 0 0 1 .366.12q.042.046.041.146 0 .094-.042.143a.13.13 0 0 1-.201 0Q.123.363.123.27"/><path id="H" d="m.062-.2-.01.082a.2.2 0 0 1 .05-.008q.03 0 .047.01a.1.1 0 0 1 .03.027.4.4 0 0 1 .034.087l-.197.52h.095l.108-.3q.02-.057.037-.12.015.06.036.118L.403.52h.088L.294-.01a1 1 0 0 0-.05-.118.2.2 0 0 0-.053-.064.13.13 0 0 0-.072-.02.2.2 0 0 0-.057.01"/><path id="R" d="m.045.23.09.008A.2.2 0 0 1 .163.15.16.16 0 0 1 .236.094a.3.3 0 0 1 .11-.02Q.4.073.44.088q.042.017.062.045t.02.06a.1.1 0 0 1-.02.06.14.14 0 0 1-.064.041Q.411.307.312.33a.7.7 0 0 0-.138.045.2.2 0 0 0-.077.067.16.16 0 0 0-.025.089q0 .054.031.101a.2.2 0 0 0 .09.072.3.3 0 0 0 .131.025q.08 0 .14-.026a.2.2 0 0 0 .13-.188L.501.508a.14.14 0 0 1-.05.101Q.412.644.329.644.242.644.203.612a.1.1 0 0 1-.04-.076Q.164.5.192.473a.4.4 0 0 1 .143-.05A1 1 0 0 0 .493.376.2.2 0 0 0 .585.304Q.615.26.615.202A.2.2 0 0 0 .582.095.2.2 0 0 0 .488.016a.412.412 0 0 0-.3 0 .23.23 0 0 0-.104.086.24.24 0 0 0-.04.128"/><path id="S" d="M.066-.2V.52h.08V.45Q.174.49.21.51t.086.02A.2.2 0 0 0 .414.495.2.2 0 0 0 .49.4.4.4 0 0 0 .516.263Q.516.184.488.12A.22.22 0 0 0 .29-.012a.2.2 0 0 0-.079.019.2.2 0 0 0-.057.047V-.2zm.08.455q0-.1.04-.148A.12.12 0 0 1 .284.061q.06 0 .1.049.042.05.042.153 0 .1-.04.149A.12.12 0 0 1 .287.46q-.055 0-.1-.052Q.147.356.147.256"/><path id="T" d="M.066 0v.716h.088V.459A.2.2 0 0 0 .309.53a.2.2 0 0 0 .1-.022A.13.13 0 0 0 .47.445.3.3 0 0 0 .488.329V0H.4v.328Q.4.394.372.424a.1.1 0 0 1-.081.03.14.14 0 0 1-.073-.02.1.1 0 0 1-.05-.055.3.3 0 0 1-.014-.096V0z"/><path id="U" d="m.505.107-.06-.06-.153.154L.138.047.08.107l.154.152L.08.413l.06.06L.292.32l.153.153.058-.059L.352.26z"/><clipPath id="a"><path d="M57 20.879h2v142.082h-2Z"/></clipPath><clipPath id="b"><path d="M94 20.879h2v142.082h-2Z"/></clipPath><clipPath id="c"><path d="M131 20.879h2v142.082h-2Z"/></clipPath><clipPath id="d"><path d="M168 20.879h2v142.082h-2Z"/></clipPath><clipPath id="e"><path d="M204 20.879h2v142.082h-2Z"/></clipPath><clipPath id="y"><path d="M328 20.398h2V158.64h-2Z"/></clipPath><clipPath id="z"><path d="M364 20.398h2V158.64h-2Z"/></clipPath><clipPath id="A"><path d="M400 20.398h2V158.64h-2Z"/></clipPath><clipPath id="B"><path d="M435 20.398h2V158.64h-2Z"/></clipPath><clipPath id="C"><path d="M471 20.398h2V158.64h-2Z"/></clipPath><clipPath id="I"><path d="M586 18h2v145.441h-2Z"/></clipPath><clipPath id="J"><path d="M624 18h2v145.441h-2Z"/></clipPath><clipPath id="K"><path d="M662 18h2v145.441h-2Z"/></clipPath><clipPath id="L"><path d="M700 18h2v145.441h-2Z"/></clipPath><clipPath id="M"><path d="M738 18h2v145.441h-2Z"/></clipPath><clipPath id="N"><path d="M544 127h237.68v2H544Z"/></clipPath><clipPath id="O"><path d="M544 99h237.68v2H544Z"/></clipPath><clipPath id="P"><path d="M544 71h237.68v2H544Z"/></clipPath><clipPath id="Q"><path d="M544 43h237.68v2H544Z"/></clipPath></defs><g clip-path="url(#a)"><path fill="none" stroke="#666" stroke-dasharray="1,2" stroke-miterlimit="3.25" stroke-opacity=".5" d="M58.328 162.781V20.887"/></g><g clip-path="url(#b)"><path fill="none" stroke="#666" stroke-dasharray="1,2" stroke-miterlimit="3.25" stroke-opacity=".5" d="M95.062 162.781V20.887"/></g><g clip-path="url(#c)"><path fill="none" stroke="#666" stroke-dasharray="1,2" stroke-miterlimit="3.25" stroke-opacity=".5" d="M131.797 162.781V20.887"/></g><g clip-path="url(#d)"><path fill="none" stroke="#666" stroke-dasharray="1,2" stroke-miterlimit="3.25" stroke-opacity=".5" d="M168.531 162.781V20.887"/></g><g clip-path="url(#e)"><path fill="none" stroke="#666" stroke-dasharray="1,2" stroke-miterlimit="3.25" stroke-opacity=".5" d="M205.266 162.781V20.887"/></g><path fill="none" stroke="#666" stroke-dasharray="1,2" stroke-miterlimit="3.25" stroke-opacity=".5" d="M17 151.879h229.594M17 133.254h229.594M17 114.629h229.594M17 96.004h229.594M17 77.375h229.594M17 58.75h229.594M17 40.125h229.594"/><path fill="none" stroke="gray" stroke-dasharray="5,7" stroke-miterlimit="3.25" stroke-width="2" d="m21.594 40.094.066.172.067.168.136.339.27.68.539 1.34 1.082 2.617 2.164 5.024 4.691 9.972 4.379 8.328 4.293 7.375 4.657 7.235 4.347 6.125 4.711 6.039 4.625 5.398 4.313 4.61 4.679 4.589 4.367 3.934 4.278 3.559 4.648 3.554 4.332 3.059 4.7 3.047 4.609 2.746 4.305 2.348 4.664 2.336 4.355 1.98 4.715 1.937 4.633 1.665 4.324 1.339 4.684 1.293 4.375 1.082 4.289.965 4.652.949 4.34.813 4.707.809 4.621.726 4.309.629 4.671.629 4.364.547 4.277.496 4.637.508 4.332.437 4.691.449 4.383.387 4.297.363 4.66.368 4.348.32 4.715.328 4.628.305 4.317.269 4.68.278 4.371.242 4.281.226 4.648.235 4.34.207.149.008.152.003.305.016.601.027 1.211.055.078.004.074.004.153.008.301.011.605.028.078.004.074.004.153.007.301.012.074.004.078.004.152.008h.074l.075.004.078.004.074.004"/><path fill="none" stroke="#5e81b5" stroke-linecap="square" stroke-miterlimit="3.25" stroke-width="2" d="m21.594 27.98.734 1.844.734 1.801.735 1.77.734 1.734.735 1.703L26 38.5l.734 1.637.735 1.609.734 1.574.735 1.551.734 1.52.734 1.488.739 1.469.734 1.437.734 1.414.735 1.387.734 1.367.734 1.34.735 1.316.734 1.297.735 1.274.734 1.254.734 1.23.735 1.211.738 1.191.734 1.168.735 1.153.734 1.136.734 1.114.735 1.097.734 1.082.735 1.063.734 1.047.734 1.031.735 1.016.734.996.738.984.735.969.734.953.734.941.735.926.734.91.735.899.734.887.734.871.735.859.734.848.734.836.739.824.734.808.734.801.735.789.734.778.735.765.734.754.734.746.735.735.734.722.735.715.734.707.734.695.739.688.734.676.734.668.735.656.734.652.734.641.735.633.734.625.735.613.734.609.734.602.735.594.738.582.734.578.735.57.734.563.734.554.735.551.734.543.735.535.734.528.734.519.735.516.734.508.738.503.735.497.734.488.734.484.735.481.734.472.735.465.734.461.734.457.735.449.734.446.734.441.739.434.734.429.734.422.735.418.734.414.735.41.734.407.734.398.735.395.734.39.735.387 1.468.758.739.371.734.371.734.363.735.36.734.355.734.352.735.347.734.344.735.34.734.336.734.332.735.328.738.328.734.32.735.317 1.468.625 1.469.609.735.301.734.297.734.293 1.469.578.738.285 2.203.832 1.469.539.735.266 1.468.523 2.203.762.739.246.734.246 1.469.485.734.238.735.234 1.468.461 1.469.453.735.223 1.468.437.739.215.734.215.734.207.735.211.734.203.734.207 2.204.598.734.195 1.469.383.738.188.734.187 1.469.367 1.469.36 1.469.351 2.203.516.734.168.738.164.735.164.734.16.734.164 2.938.625.734.149.735.152 1.468.297.739.144 1.468.289.735.141.734.137.735.14 1.468.274 1.469.265.735.129.734.133.734.125.739.129 1.468.25.735.121.734.125.734.121 2.938.469 1.469.226.738.114.734.109.735.113.734.106.734.109 2.938.422 1.469.203.734.098.738.102 2.203.292 2.938.375.734.09.735.094.734.09.734.086.739.09 3.672.429 2.937.328 2.203.235.739.078 1.468.156 2.938.297.734.07.735.075 2.203.211.738.07.734.07 4.407.399.734.062.734.067 1.469.125.738.062.735.063.734.058.734.063 1.469.117.735.062.734.055 2.203.176.734.055.739.054 3.672.274.734.05"/><path fill="none" stroke="#e19c24" stroke-linecap="square" stroke-miterlimit="3.25" stroke-width="2" d="m21.594 37.066.734 1.84.734 1.805.735 1.769.734 1.735.735 1.703.734 1.668.734 1.641.735 1.605.734 1.578.735 1.551.734 1.519.734 1.493.739 1.465.734 1.441.734 1.414.735 1.391.734 1.363.734 1.344.735 1.32.734 1.297.735 1.273.734 1.254.734 1.231.735 1.214.738 1.192.734 1.172.735 1.152.734 1.137.734 1.117.735 1.098.734 1.082.735 1.066.734 1.047.734 1.031.735 1.016.734 1 .738.988.735.969.734.953.734.941.735.93.734.91.735.903.734.886.734.871.735.86.734.851.734.832.739.825.734.812.734.801.735.789.734.777.735.766.734.758.734.742.735.734.734.727.735.711.734.707.734.691.739.688.734.676.734.664.735.656.734.648.734.641.735.629.734.621.735.613.734.606.734.593.735.59.738.578.734.575.735.566.734.555.734.55.735.543.734.532.735.527.734.523.734.512.735.508.734.5.738.492.735.485.734.48.734.473.735.468.734.461.735.453.734.45.734.441 1.469.867.734.422.739.418.734.414.734.406.735.403.734.398.735.391.734.387.734.378.735.375.734.372.735.367.734.359.734.356.739.351.734.348.734.34.735.336.734.332.734.328.735.324 1.469.633.734.308 1.469.61.738.297.734.293.735.289.734.285.734.281.735.277.734.274.735.269.734.266.734.262.735.258.734.253.738.25.735.25 1.468.485 1.469.469.735.23.734.227 1.469.445 1.468.43.739.211.734.207 1.469.406.734.199.735.195 1.468.383.735.188 1.469.367.734.18.734.175.739.172.734.172 1.469.336.734.164 1.469.32 1.469.313.734.152 1.469.297.738.145.734.144 1.469.281 1.469.274 1.469.265 2.203.387.734.121.738.125 1.469.242 1.469.235 1.469.226.734.11.734.113.735.109 1.468.211.739.106 2.203.305 2.203.292.734.094.735.098.734.09.735.094 1.468.179.739.09 2.203.258.734.082.734.086 1.469.164 2.938.312.738.079 2.937.296.735.071.734.074 1.469.141.734.066.735.07.734.067.738.066 1.469.133.734.062.735.067 2.203.187.734.059.735.062.734.059.734.062.739.059.734.055 1.469.117 1.469.109.734.059.734.055.735.05 1.469.11 1.468.101.739.055 1.468.102.735.046 1.468.102 1.469.094.735.051 2.203.14.738.043.734.047.735.043.734.047 1.469.086.734.047.735.043.734.039 2.203.129.738.039.735.043 5.875.312.734.035.734.039.739.039 1.468.071.735.039 2.203.105"/><path fill="none" stroke="#8fb032" stroke-linecap="square" stroke-miterlimit="3.25" stroke-width="2" d="m21.594 39.902.734 1.844.734 1.805.735 1.769.734 1.735.735 1.703.734 1.668.734 1.64.735 1.606.734 1.578.735 1.551.734 1.519.734 1.492.739 1.469.734 1.442.734 1.414.735 1.39.734 1.364.734 1.343.735 1.321.734 1.297.735 1.273.734 1.254.734 1.234.735 1.211.738 1.196.734 1.171.735 1.157.734 1.132.734 1.118.735 1.101.734 1.082.735 1.067.734 1.05.734 1.032.735 1.015.734 1.004.738.985.735.972.734.953.734.946.735.925.734.915.735.902.734.887.734.875.735.863.734.848.734.835.739.829.734.812.734.801.735.789.734.781.735.766.734.758.734.75.735.734.734.727.735.714.734.707.734.696.739.687.734.68.734.668.735.656.734.652.734.641.735.633.734.625.735.613.734.61.734.597.735.594.738.582.734.574.735.567.734.562.734.551.735.547.734.535.735.531.734.524.734.515.735.512.734.5.738.496.735.492.734.481.734.476.735.469.734.465.735.457.734.449.734.445.735.438.734.434.734.425.739.422.734.414.734.407.735.402.734.398.735.391.734.387.734.379.735.375.734.371.735.363.734.359.734.352.739.348.734.339.734.336.735.332 1.468.649.735.312.734.309.735.305.734.3.734.293.735.289.738.286.734.277.735.273.734.27.734.262.735.257.734.254.735.25.734.242.734.239 1.469.461.738.222.735.219.734.215.734.211.735.207.734.203 1.469.391.734.191.735.188.734.183.734.18.739.18 1.468.343.735.168 1.469.328 1.468.321 2.204.457.734.148.734.145.739.144 1.468.281 1.469.274 1.469.266 1.469.257 2.203.375.738.121 2.937.469.735.113.734.11.735.113.734.11 2.203.316.738.105 1.469.203.734.098.735.102.734.097.735.094.734.098.734.094.735.089.734.094.734.09.739.09.734.09 2.938.343 2.937.329 2.203.234.739.078.734.074.734.078 1.469.149.734.07.735.074 2.937.282.735.066.738.07 2.203.2.734.062.735.066 2.937.25.735.059.734.063.738.058 2.938.235.734.054.735.059 3.671.273.739.051.734.055 5.141.355 1.469.094.734.051.734.047.739.046 1.468.094.735.043.734.047.734.043.735.047 3.672.215.738.043.734.043.735.039.734.043 1.469.078.734.043 3.672.195.738.035.735.039.734.035.734.04.735.035.734.039 4.406.211.739.035.734.031 1.469.07.734.032.735.035.734.031"/><path fill="none" stroke="#eb6235" stroke-linecap="square" stroke-miterlimit="3.25" stroke-width="2" d="m21.594 40.094.734 1.84.734 1.804.735 1.77.734 1.738.735 1.699.734 1.672.734 1.637.735 1.609.734 1.578.735 1.547.734 1.52.734 1.496.739 1.465.734 1.441.734 1.414.735 1.391.734 1.367.734 1.34.735 1.32.734 1.297.735 1.277.734 1.254.734 1.231.735 1.215.738 1.191.734 1.172.735 1.156.734 1.137.734 1.117.735 1.102.734 1.082.735 1.062.734 1.051.734 1.031.735 1.02.734 1 .738.988.735.969.734.957.734.941.735.93.734.914.735.902.734.887.734.875.735.859.734.852.734.836.739.824.734.817.734.8.735.789.734.782.735.765.734.758.734.75.735.734.734.727.735.715.734.707.734.699.739.684.734.679.734.668.735.66.734.649.734.644.735.633.734.621.735.618.734.609.734.598.735.589.738.586.734.575.735.566.734.562.734.551.735.547.734.539.735.531.734.524.734.515.735.508.734.504.738.496.735.492.734.481.734.477.735.468.734.465.735.457.734.453.734.446.735.437.734.434.734.425.739.422.734.414.734.411.735.402.734.398.735.391.734.387.734.382.735.376.734.371.735.363.734.359.734.352.739.351 1.468.68.735.332.734.328.734.321.735.316.734.312.735.305.734.301.734.293.735.289.738.285.734.277.735.274.734.265.734.258.735.254 1.469.485 1.468.461 1.469.445.738.215.735.211.734.207.734.203 1.469.398 1.469.383 1.469.367 1.468.36.739.171.734.172 1.469.336.734.164 1.469.321.734.156 1.469.305.735.148.734.145.734.148.739.141 1.468.281.735.137 2.203.398.734.129 2.203.375.735.121.738.121.734.121.735.117.734.114.734.117.735.113 2.937.438.735.105.734.102.738.105 1.469.203 2.938.391 1.468.187.735.09.734.094.734.09.739.09.734.086.734.089.735.086.734.082.735.086 2.937.328 2.203.235.739.078 3.671.371 3.672.352.735.066.738.066.734.071.735.062 1.468.133 3.672.313.735.058.734.063.738.058 2.938.235 1.469.109.734.059 1.469.109.734.051.734.054.739.055 1.468.102.735.054.734.051.735.047 1.468.102.735.046.734.051 2.203.141.739.047 2.203.14.734.043.734.047 4.407.258.738.043.734.043.735.039.734.043 1.469.078.734.043 2.203.117.735.035.734.04.738.039.735.039 1.468.07.735.039 5.14.246.739.035.734.035.734.032.735.035.734.031.735.035.734.032"/><path fill="none" stroke="#666" stroke-linecap="square" stroke-miterlimit="3.25" stroke-width=".5" d="M246.594 162.781H17M17 162.781V20.887M17 20.887h229.594M246.594 20.887v141.894"/><path fill="none" stroke="#666" stroke-miterlimit="3.25" stroke-width=".5" d="M21.594 162.781v-2.707"/><use xlink:href="#f" fill="#666" data-text="1" transform="matrix(10 0 0 -10 14.592 174.782)"/><use xlink:href="#g" fill="#666" data-text="." transform="matrix(10 0 0 -10 20.152 174.782)"/><use xlink:href="#h" fill="#666" data-text="0" transform="matrix(10 0 0 -10 22.922 174.782)"/><path fill="none" stroke="#666" stroke-miterlimit="3.25" stroke-width=".5" d="M28.938 162.781v-1.625M36.285 162.781v-1.625M43.633 162.781v-1.625M50.98 162.781v-1.625M58.328 162.781v-2.707"/><use xlink:href="#f" fill="#666" data-text="1" transform="matrix(10 0 0 -10 51.327 174.782)"/><use xlink:href="#g" fill="#666" data-text="." transform="matrix(10 0 0 -10 56.887 174.782)"/><use xlink:href="#i" fill="#666" data-text="5" transform="matrix(10 0 0 -10 59.657 174.782)"/><path fill="none" stroke="#666" stroke-miterlimit="3.25" stroke-width=".5" d="M65.672 162.781v-1.625M73.02 162.781v-1.625M80.367 162.781v-1.625M87.715 162.781v-1.625M95.062 162.781v-2.707"/><use xlink:href="#j" fill="#666" data-text="2" transform="matrix(10 0 0 -10 88.061 174.782)"/><use xlink:href="#g" fill="#666" data-text="." transform="matrix(10 0 0 -10 93.621 174.782)"/><use xlink:href="#h" fill="#666" data-text="0" transform="matrix(10 0 0 -10 96.391 174.782)"/><path fill="none" stroke="#666" stroke-miterlimit="3.25" stroke-width=".5" d="M102.406 162.781v-1.625M109.754 162.781v-1.625M117.102 162.781v-1.625M124.449 162.781v-1.625M131.797 162.781v-2.707"/><use xlink:href="#j" fill="#666" data-text="2" transform="matrix(10 0 0 -10 124.796 174.782)"/><use xlink:href="#g" fill="#666" data-text="." transform="matrix(10 0 0 -10 130.356 174.782)"/><use xlink:href="#i" fill="#666" data-text="5" transform="matrix(10 0 0 -10 133.126 174.782)"/><path fill="none" stroke="#666" stroke-miterlimit="3.25" stroke-width=".5" d="M139.145 162.781v-1.625M146.488 162.781v-1.625M153.836 162.781v-1.625M161.184 162.781v-1.625M168.531 162.781v-2.707"/><use xlink:href="#k" fill="#666" data-text="3" transform="matrix(10 0 0 -10 161.53 174.782)"/><use xlink:href="#g" fill="#666" data-text="." transform="matrix(10 0 0 -10 167.09 174.782)"/><use xlink:href="#h" fill="#666" data-text="0" transform="matrix(10 0 0 -10 169.86 174.782)"/><path fill="none" stroke="#666" stroke-miterlimit="3.25" stroke-width=".5" d="M175.879 162.781v-1.625M183.223 162.781v-1.625M190.57 162.781v-1.625M197.918 162.781v-1.625M205.266 162.781v-2.707"/><use xlink:href="#k" fill="#666" data-text="3" transform="matrix(10 0 0 -10 198.265 174.782)"/><use xlink:href="#g" fill="#666" data-text="." transform="matrix(10 0 0 -10 203.825 174.782)"/><use xlink:href="#i" fill="#666" data-text="5" transform="matrix(10 0 0 -10 206.595 174.782)"/><path fill="none" stroke="#666" stroke-miterlimit="3.25" stroke-width=".5" d="M212.613 162.781v-1.625M219.961 162.781v-1.625M227.305 162.781v-1.625M234.652 162.781v-1.625M242 162.781v-2.707"/><use xlink:href="#l" fill="#666" data-text="4" transform="matrix(10 0 0 -10 235 174.782)"/><use xlink:href="#g" fill="#666" data-text="." transform="matrix(10 0 0 -10 240.56 174.782)"/><use xlink:href="#h" fill="#666" data-text="0" transform="matrix(10 0 0 -10 243.33 174.782)"/><path fill="none" stroke="#666" stroke-miterlimit="3.25" stroke-width=".5" d="M17 161.191h1.625M17 156.535h1.625M17 151.879h2.707"/><use xlink:href="#h" fill="#666" data-text="0" transform="matrix(10 0 0 -10 0 154.38)"/><use xlink:href="#g" fill="#666" data-text="." transform="matrix(10 0 0 -10 5.56 154.38)"/><use xlink:href="#m" fill="#666" data-text="8" transform="matrix(10 0 0 -10 8.33 154.38)"/><path fill="none" stroke="#666" stroke-miterlimit="3.25" stroke-width=".5" d="M17 147.223h1.625M17 142.566h1.625M17 137.91h1.625M17 133.254h2.707"/><use xlink:href="#f" fill="#666" data-text="1" transform="matrix(10 0 0 -10 0 135.754)"/><use xlink:href="#g" fill="#666" data-text="." transform="matrix(10 0 0 -10 5.56 135.754)"/><use xlink:href="#h" fill="#666" data-text="0" transform="matrix(10 0 0 -10 8.33 135.754)"/><path fill="none" stroke="#666" stroke-miterlimit="3.25" stroke-width=".5" d="M17 128.598h1.625M17 123.941h1.625M17 119.285h1.625M17 114.629h2.707"/><use xlink:href="#f" fill="#666" data-text="1" transform="matrix(10 0 0 -10 0 117.128)"/><use xlink:href="#g" fill="#666" data-text="." transform="matrix(10 0 0 -10 5.56 117.128)"/><use xlink:href="#j" fill="#666" data-text="2" transform="matrix(10 0 0 -10 8.33 117.128)"/><path fill="none" stroke="#666" stroke-miterlimit="3.25" stroke-width=".5" d="M17 109.973h1.625M17 105.316h1.625M17 100.66h1.625M17 96.004h2.707"/><use xlink:href="#f" fill="#666" data-text="1" transform="matrix(10 0 0 -10 0 98.502)"/><use xlink:href="#g" fill="#666" data-text="." transform="matrix(10 0 0 -10 5.56 98.502)"/><use xlink:href="#l" fill="#666" data-text="4" transform="matrix(10 0 0 -10 8.33 98.502)"/><path fill="none" stroke="#666" stroke-miterlimit="3.25" stroke-width=".5" d="M17 91.348h1.625M17 86.691h1.625M17 82.035h1.625M17 77.375h2.707"/><use xlink:href="#f" fill="#666" data-text="1" transform="matrix(10 0 0 -10 0 79.877)"/><use xlink:href="#g" fill="#666" data-text="." transform="matrix(10 0 0 -10 5.56 79.877)"/><use xlink:href="#n" fill="#666" data-text="6" transform="matrix(10 0 0 -10 8.33 79.877)"/><path fill="none" stroke="#666" stroke-miterlimit="3.25" stroke-width=".5" d="M17 72.719h1.625M17 68.062h1.625M17 63.406h1.625M17 58.75h2.707"/><use xlink:href="#f" fill="#666" data-text="1" transform="matrix(10 0 0 -10 0 61.251)"/><use xlink:href="#g" fill="#666" data-text="." transform="matrix(10 0 0 -10 5.56 61.251)"/><use xlink:href="#m" fill="#666" data-text="8" transform="matrix(10 0 0 -10 8.33 61.251)"/><path fill="none" stroke="#666" stroke-miterlimit="3.25" stroke-width=".5" d="M17 54.094h1.625M17 49.438h1.625M17 44.781h1.625M17 40.125h2.707"/><use xlink:href="#j" fill="#666" data-text="2" transform="matrix(10 0 0 -10 0 42.626)"/><use xlink:href="#g" fill="#666" data-text="." transform="matrix(10 0 0 -10 5.56 42.626)"/><use xlink:href="#h" fill="#666" data-text="0" transform="matrix(10 0 0 -10 8.33 42.626)"/><path fill="none" stroke="#666" stroke-miterlimit="3.25" stroke-width=".5" d="M17 35.469h1.625M17 30.812h1.625M17 26.156h1.625M17 21.5h2.707"/><use xlink:href="#j" fill="#666" data-text="2" transform="matrix(10 0 0 -10 0 24)"/><use xlink:href="#g" fill="#666" data-text="." transform="matrix(10 0 0 -10 5.56 24)"/><use xlink:href="#j" fill="#666" data-text="2" transform="matrix(10 0 0 -10 8.33 24)"/><path fill="none" stroke="#666" stroke-miterlimit="3.25" stroke-width=".5" d="M21.594 20.887v2.707M28.938 20.887v1.625M36.285 20.887v1.625M43.633 20.887v1.625M50.98 20.887v1.625M58.328 20.887v2.707M65.672 20.887v1.625M73.02 20.887v1.625M80.367 20.887v1.625M87.715 20.887v1.625M95.062 20.887v2.707M102.406 20.887v1.625M109.754 20.887v1.625M117.102 20.887v1.625M124.449 20.887v1.625M131.797 20.887v2.707M139.145 20.887v1.625M146.488 20.887v1.625M153.836 20.887v1.625M161.184 20.887v1.625M168.531 20.887v2.707M175.879 20.887v1.625M183.223 20.887v1.625M190.57 20.887v1.625M197.918 20.887v1.625M205.266 20.887v2.707M212.613 20.887v1.625M219.961 20.887v1.625M227.305 20.887v1.625M234.652 20.887v1.625M242 20.887v2.707M246.594 161.191h-1.625M246.594 156.535h-1.625M246.594 151.879h-2.711M246.594 147.223h-1.625M246.594 142.566h-1.625M246.594 137.91h-1.625M246.594 133.254h-2.711M246.594 128.598h-1.625M246.594 123.941h-1.625M246.594 119.285h-1.625M246.594 114.629h-2.711M246.594 109.973h-1.625M246.594 105.316h-1.625M246.594 100.66h-1.625M246.594 96.004h-2.711M246.594 91.348h-1.625M246.594 86.691h-1.625M246.594 82.035h-1.625M246.594 77.375h-2.711M246.594 72.719h-1.625M246.594 68.062h-1.625M246.594 63.406h-1.625M246.594 58.75h-2.711M246.594 54.094h-1.625M246.594 49.438h-1.625M246.594 44.781h-1.625M246.594 40.125h-2.711M246.594 35.469h-1.625M246.594 30.812h-1.625M246.594 26.156h-1.625M246.594 21.5h-2.711"/><use xlink:href="#o" fill="#666" data-text="P" transform="matrix(12 0 0 -12 87.296 12)"/><use xlink:href="#p" fill="#666" data-text="a" transform="matrix(12 0 0 -12 95.288 12)"/><use xlink:href="#q" fill="#666" data-text="r" transform="matrix(12 0 0 -12 101.96 12)"/><use xlink:href="#r" fill="#666" data-text="t" transform="matrix(12 0 0 -12 105.956 12)"/><use xlink:href="#s" fill="#666" data-text="i" transform="matrix(12 0 0 -12 109.28 12)"/><use xlink:href="#r" fill="#666" data-text="t" transform="matrix(12 0 0 -12 111.944 12)"/><use xlink:href="#s" fill="#666" data-text="i" transform="matrix(12 0 0 -12 115.268 12)"/><use xlink:href="#t" fill="#666" data-text="o" transform="matrix(12 0 0 -12 117.932 12)"/><use xlink:href="#u" fill="#666" data-text="n" transform="matrix(12 0 0 -12 124.604 12)"/><use xlink:href="#v" fill="#666" data-text="f" transform="matrix(12 0 0 -12 134.252 12)"/><use xlink:href="#w" fill="#666" data-text="u" transform="matrix(12 0 0 -12 137.576 12)"/><use xlink:href="#u" fill="#666" data-text="n" transform="matrix(12 0 0 -12 144.248 12)"/><use xlink:href="#x" fill="#666" data-text="c" transform="matrix(12 0 0 -12 150.92 12)"/><use xlink:href="#r" fill="#666" data-text="t" transform="matrix(12 0 0 -12 156.92 12)"/><use xlink:href="#s" fill="#666" data-text="i" transform="matrix(12 0 0 -12 160.244 12)"/><use xlink:href="#t" fill="#666" data-text="o" transform="matrix(12 0 0 -12 162.908 12)"/><use xlink:href="#u" fill="#666" data-text="n" transform="matrix(12 0 0 -12 169.58 12)"/><g clip-path="url(#y)"><path fill="none" stroke="#666" stroke-dasharray="1,2" stroke-miterlimit="3.25" stroke-opacity=".5" d="M329.223 158.613V20.5"/></g><g clip-path="url(#z)"><path fill="none" stroke="#666" stroke-dasharray="1,2" stroke-miterlimit="3.25" stroke-opacity=".5" d="M364.98 158.613V20.5"/></g><g clip-path="url(#A)"><path fill="none" stroke="#666" stroke-dasharray="1,2" stroke-miterlimit="3.25" stroke-opacity=".5" d="M400.734 158.613V20.5"/></g><g clip-path="url(#B)"><path fill="none" stroke="#666" stroke-dasharray="1,2" stroke-miterlimit="3.25" stroke-opacity=".5" d="M436.488 158.613V20.5"/></g><g clip-path="url(#C)"><path fill="none" stroke="#666" stroke-dasharray="1,2" stroke-miterlimit="3.25" stroke-opacity=".5" d="M472.246 158.613V20.5"/></g><path fill="none" stroke="#666" stroke-dasharray="1,2" stroke-miterlimit="3.25" stroke-opacity=".5" d="M289 151.953h223.469M289 134.688h223.469M289 117.422h223.469M289 100.156h223.469M289 82.891h223.469M289 65.625h223.469M289 48.359h223.469M289 31.094h223.469"/><path fill="none" stroke="gray" stroke-dasharray="5,7" stroke-miterlimit="3.25" stroke-width="2" d="m293.469 151.707.066-.004h.067l.132-.004.262-.008.527-.015 1.051-.035.067-.004h.066l.133-.004.262-.012.527-.016 1.051-.043.07-.003h.074l.141-.008.855-.035 1.145-.055h.07l.07-.004.145-.008.285-.015.57-.028 1.141-.062.531-.032.535-.031 1.063-.066.07-.004.067-.004.133-.012.265-.015.531-.039 1.067-.075.066-.007.067-.004.129-.008.261-.02.524-.043 1.043-.086.066-.007.063-.004.132-.012.262-.023.52-.047 1.047-.098.07-.004.211-.023.285-.028 1.699-.175 2.266-.266.133-.016.132-.019.266-.031.527-.071 1.059-.14 2.113-.309.074-.012.071-.011.144-.02.285-.047.575-.09 1.144-.191 2.293-.414.07-.016.071-.012.984-.191 1.125-.23 2.254-.496.063-.016.199-.047.785-.187 1.051-.258 2.097-.555 4.555-1.371 4.25-1.508 4.168-1.726 4.52-2.184 4.218-2.371 4.575-2.992 4.488-3.438 4.187-3.754.141-.14.141-.137.285-.281.566-.567 1.137-1.179 2.269-2.524.266-.312.266-.317.527-.64 1.062-1.329.067-.085.062-.086.133-.172.266-.348.531-.707 1.059-1.48.07-.102.074-.102.145-.21.285-.422.574-.864 1.149-1.824.07-.117.074-.121.141-.238.289-.489.574-1.004 1.148-2.16.071-.136.07-.141.141-.285.281-.582.562-1.219.141-.32.141-.325.285-.671.562-1.45.071-.191.07-.199.141-.407.07-.21.07-.215.141-.45.07-.238.07-.246.141-.551.07-.351.071-.332.07-.278.07-.261.071-.246.07-.235.144-.449.282-.828.562-1.488.067-.161.066-.164.129-.316.266-.613.523-1.168 1.051-2.141.066-.129.199-.375.262-.492.527-.953 1.051-1.805.141-.234.144-.235.286-.461.57-.894 1.14-1.715 2.278-3.148.133-.172.132-.176.27-.34.531-.676 1.063-1.308 2.129-2.469 4.175-4.355 4.528-4.161 4.226-3.464 4.582-3.387 4.496-3.02 4.192-2.586 4.551-2.582 4.246-2.238 4.16-2.043 4.516-2.07 4.214-1.813 4.571-1.84 4.265-1.621 4.18-1.5 4.535-1.539 4.235-1.363 4.589-1.398 4.504-1.305 4.199-1.156 4.559-1.2 4.25-1.066 4.172-1.004 4.523-1.039 4.223-.93.07-.015.075-.016.148-.035.293-.063 1.77-.375.148-.031.145-.031.296-.063.586-.125.075-.011.222-.047.293-.063.297-.062.07-.012.223-.047"/><path fill="none" stroke="#5e81b5" stroke-linecap="square" stroke-miterlimit="3.25" stroke-width="2" d="m293.469 151.645 2.144-.083.715-.031.715-.035.719-.035.715-.035 1.429-.078.715-.043 1.43-.094 1.429-.102.715-.054 1.43-.117 1.43-.126.715-.07.718-.07 1.43-.149.715-.078.715-.082.714-.086 1.43-.179 2.145-.293.715-.106 1.429-.219.715-.113.719-.117.715-.121 1.429-.25 1.43-.266.715-.136.715-.141.715-.145.714-.148 1.43-.305 1.43-.32.715-.164.718-.168.715-.168 1.43-.352.715-.183.715-.18.714-.187 1.43-.383.715-.195.715-.2 1.43-.406.714-.207.715-.211.719-.211.715-.215 1.429-.437.715-.227.715-.222 1.43-.461 1.43-.469 1.429-.477.715-.242 1.43-.492.719-.25 2.144-.762.715-.258 1.43-.523 1.429-.531 1.43-.539.715-.274 1.43-.554.714-.282.719-.281 1.43-.57 1.429-.578.715-.293 1.43-.594.715-.301 2.144-.914.715-.312.715-.309.715-.316.719-.317.714-.32 1.43-.649 1.43-.656.715-.336.715-.332 1.429-.68.715-.343 1.43-.696.715-.355.714-.352.715-.359.719-.359.715-.364 1.43-.734.714-.371.715-.375 1.43-.758 1.43-.766 2.144-1.171 1.43-.797.719-.399 2.144-1.219.715-.41.715-.414 2.144-1.254.715-.422 1.43-.851 2.144-1.289.719-.438.715-.433.715-.438.715-.441.715-.438.714-.445.715-.441.715-.446.715-.449.715-.445.715-.449.714-.454.715-.449 1.43-.906.719-.453 1.429-.914.715-.453.715-.457.715-.461 1.43-.914.715-.461.714-.457 1.43-.922.715-.457 1.43-.922.718-.461.715-.457 1.43-.922 1.43-.914.714-.461 3.575-2.285 2.144-1.359.719-.454.715-.453 2.859-1.797 2.859-1.781 1.43-.883 2.145-1.312.718-.438 1.43-.867 2.145-1.289 1.429-.851 2.145-1.266 2.144-1.254.715-.41.719-.414 1.43-.821 1.429-.812 1.43-.805 1.43-.797 2.144-1.183.715-.391 2.145-1.16.718-.383.715-.383 1.43-.757 1.43-.75 1.429-.743 1.43-.734 1.43-.727 1.429-.718.715-.356.719-.355.715-.356.715-.351 1.429-.696 2.145-1.031 1.43-.68.714-.335 2.145-.997.715-.328.719-.328 1.429-.648 1.43-.641 2.144-.949.715-.313 2.145-.925 1.429-.61.715-.3.719-.301 2.145-.891.714-.293.715-.289.715-.293.715-.285"/><path fill="none" stroke="#e19c24" stroke-linecap="square" stroke-miterlimit="3.25" stroke-width="2" d="m293.469 151.688.715-.02.714-.023 2.145-.083.719-.031 1.429-.062.715-.035 1.43-.079 1.43-.085 1.429-.094.715-.051 1.43-.109 1.43-.118.718-.066.715-.066 1.43-.141 1.429-.156.715-.082 1.43-.172.715-.094 1.43-.195 1.429-.211.715-.113.719-.118.715-.117.715-.125.714-.129.715-.133.715-.136 1.43-.289.715-.153.714-.156.715-.164.715-.168.715-.172.715-.176.715-.183.718-.192.715-.195.715-.199.715-.207.715-.211.715-.219.714-.226.715-.231.715-.238.715-.246.715-.25 1.43-.524.714-.273.715-.281.719-.286.715-.293.715-.3.714-.309.715-.316.715-.325.715-.332.715-.339.715-.348.715-.352.714-.363.715-.371.715-.375.715-.387.715-.394.719-.403.714-.406.715-.418.715-.426.715-.433.715-.438.715-.449.714-.453.715-.461.715-.473.715-.476.715-.485.715-.488.715-.5.714-.504.719-.511.715-.516.715-.523.715-.532.714-.535.715-.543.715-.551.715-.554.715-.559.715-.566.715-.575.714-.578.715-.582.715-.59.715-.593.719-.602 1.429-1.219 1.43-1.242 1.43-1.265.715-.645.714-.648.715-.653.715-.66.715-.668.715-.672.715-.679.714-.684.715-.691.719-.696 1.43-1.414 1.429-1.437 1.43-1.461.715-.739 1.43-1.492.715-.754 1.429-1.523.715-.766.715-.769.719-.774 1.429-1.554.715-.782 2.145-2.355.715-.789.714-.785.715-.789 2.145-2.356 1.429-1.562.719-.782.715-.777.715-.773.715-.77.715-.765.714-.762.715-.758.715-.754.715-.75.715-.746.715-.738.714-.735.715-.73.715-.723.715-.715.719-.711.715-.703.714-.699.715-.691.715-.684.715-.68.715-.671.715-.665.715-.656.714-.652.715-.645.715-.636.715-.629.715-.621.715-.614.718-.609.715-.602.715-.593.715-.586.715-.582.715-.571.714-.566.715-.559.715-.55.715-.547.715-.539.715-.532.714-.523.715-.52.715-.511.719-.504.715-.5.715-.492.714-.485.715-.48.715-.477 1.43-.93 1.429-.906 1.43-.883.715-.433.715-.426.715-.422.718-.418.715-.41.715-.406.715-.403.715-.398.715-.391.715-.386.714-.383.715-.375 1.43-.742.715-.364.715-.359 1.429-.703.719-.348 1.43-.679 1.429-.665 1.43-.648.715-.32 1.43-.625.714-.309.715-.305.715-.3.715-.297 1.43-.586.718-.285.715-.285 1.43-.563 1.43-.547.714-.269 1.43-.532.715-.257.715-.262 1.43-.508.714-.25.715-.246.719-.246 1.43-.484.715-.239 1.429-.469 1.43-.46.715-.227 2.144-.668.715-.219 1.43-.429.719-.211.714-.211 2.145-.621.715-.204 2.144-.597.715-.195.715-.192.715-.195.715-.188.714-.191.715-.188.719-.183 2.145-.551.714-.18.715-.175.715-.18.715-.172"/><path fill="none" stroke="#8fb032" stroke-linecap="square" stroke-miterlimit="3.25" stroke-width="2" d="m293.469 151.703.715-.019 2.144-.071.715-.027.719-.027 2.144-.094.715-.035 2.145-.118.714-.042 1.43-.094 1.43-.102.715-.054.715-.059.718-.059 1.43-.125 1.43-.14 1.429-.149 1.43-.164.715-.086 1.43-.179.714-.098 1.43-.203.719-.106 1.43-.226 1.429-.242 1.43-.258.715-.137.715-.141.714-.144.715-.149 1.43-.312.715-.164.715-.172.718-.172.715-.18.715-.183.715-.192.715-.195.715-.199.714-.207.715-.215.715-.219.715-.222 1.43-.469.715-.246.714-.25.715-.258.719-.266.715-.269.715-.281.714-.286.715-.293.715-.3.715-.309.715-.32.715-.324.715-.332.714-.344.715-.352.715-.359.715-.367.715-.379.719-.391.714-.398.715-.407.715-.418.715-.429.715-.438.715-.453.714-.461.715-.472.715-.489.715-.5.715-.508.715-.527.715-.535.714-.555.719-.566.715-.582.715-.598.715-.613.714-.629.715-.648.715-.668.715-.684.715-.707.715-.723.715-.75.714-.769.715-.793.715-.817.715-.843.719-.868.714-.898.715-.926.715-.953.715-.98.715-1.012.715-1.039.715-1.07.714-1.094.715-1.121.715-1.149.715-1.172.715-1.195.715-1.223.714-1.25.715-1.277.719-1.305.715-1.336.715-1.398.715-1.461.714-1.324.715-1.387.715-1.422.715-1.418.715-1.406 1.43-2.703.714-1.313.715-1.273.715-1.234.715-1.192.719-1.152.714-1.102.715-1.066.715-1.027.715-.989.715-.953.715-.918.715-.887.714-.855.715-.801.715-.758.715-.867.715-.742.715-.73.714-.715.719-.664.715-.633.715-.762.715-.648.715-.653.714-.566.715-.613.715-.582.715-.567.715-.601.715-.559.714-.547.715-.539.715-.531.715-.524.719-.511.715-.504.714-.496.715-.489.715-.48.715-.473.715-.468.715-.457.715-.454.714-.449.715-.441.715-.434.715-.43.715-.421.715-.418.718-.411.715-.406.715-.402.715-.395.715-.39.715-.387.714-.383 1.43-.75.715-.367.715-.363.715-.36.714-.355.715-.352.715-.343.719-.344.715-.34.715-.336.714-.332.715-.328.715-.324.715-.321 1.43-.632 1.429-.618.715-.304.715-.301 1.43-.594.718-.289 1.43-.578 1.43-.563 1.43-.554 2.144-.809.715-.265.715-.262 1.429-.516.715-.254.719-.254 1.43-.5.715-.246 1.429-.484 1.43-.477 1.43-.468.714-.231 2.145-.68 1.43-.445.718-.219.715-.218 1.43-.43 1.43-.422 2.144-.621 1.43-.406 2.144-.598.715-.195.719-.196 2.145-.574 1.429-.375 2.145-.551.715-.179.714-.184.715-.176.715-.179 1.43-.352.719-.172 1.429-.343 2.86-.672 2.144-.493 2.145-.48.714-.156.715-.16.719-.157.715-.152.715-.156 1.429-.305.715-.148.715-.153.715-.148"/><path fill="none" stroke="#eb6235" stroke-linecap="square" stroke-miterlimit="3.25" stroke-width="2" d="m293.469 151.707.715-.019 1.429-.047 1.43-.055.719-.027.715-.028.714-.031 2.145-.105.715-.04 2.144-.128.715-.047 1.43-.102.715-.055.715-.058.718-.059 1.43-.125.715-.066.715-.07.714-.075 1.43-.156.715-.082.715-.086 1.43-.18 1.429-.195.715-.101.719-.11.715-.109.715-.113.714-.118 1.43-.25 1.43-.265.715-.141.714-.144.715-.149.715-.152.715-.157.715-.164.715-.168.718-.171.715-.18.715-.184.715-.187.715-.196.715-.199.714-.203 1.43-.43.715-.222.715-.231.715-.238.715-.242.714-.246.715-.258.719-.262.715-.269.715-.278.714-.281.715-.293.715-.297.715-.308.715-.313.715-.324.715-.328.714-.34.715-.348.715-.355.715-.367.715-.375.719-.383.714-.395.715-.402.715-.414.715-.422.715-.437.715-.442.714-.457.715-.469.715-.48.715-.488.715-.504.715-.52.715-.527.714-.543.719-.559.715-.57.715-.586.715-.602.714-.617.715-.636.715-.649.715-.672.715-.687.715-.703.715-.731.714-.746.715-.769.715-.797.715-.817.719-.843.714-.872.715-.902.715-.934.715-.964.715-1.004.715-1.043.715-1.09.714-1.137.715-1.191.715-1.254.715-1.328.715-1.418.715-1.528.714-1.683.715-1.922.719-2.289.715-2.484.715-2.047.715-1.637.714-1.508.715-1.406.715-1.324.715-1.25.715-1.192.715-1.144.715-1.098.714-1.055.715-1.019.715-.985.715-.953.719-.922.714-.902.715-.875.715-.851.715-.829.715-.804.715-.789.715-.77.714-.754.715-.734.715-.719.715-.707.715-.687.715-.676.714-.664.719-.649.715-.636.715-.629.715-.614.715-.601.714-.594.715-.582.715-.57.715-.563.715-.554.715-.543.714-.536.715-.527.715-.519.715-.512.719-.5.715-.496.714-.489.715-.48.715-.473.715-.468.715-.461.715-.453.715-.45.714-.441.715-.438.715-.429.715-.422.715-.418.715-.414.718-.41.715-.403 1.43-.789.715-.386.715-.383.714-.379.715-.375.715-.371.715-.364 1.43-.718.714-.352.715-.348.715-.343.719-.344.715-.336.715-.332 1.429-.656 1.43-.641.715-.316.715-.313.714-.308.715-.305 1.43-.602.715-.297.715-.292.718-.29.715-.289.715-.285.715-.281 1.43-.555 1.429-.547 2.145-.796.715-.258.715-.262 1.429-.508.719-.25.715-.25 1.43-.492.714-.242 2.145-.715.715-.234 1.429-.461 1.43-.453 2.145-.668.718-.219 2.145-.645.715-.211 2.859-.828.715-.203 2.145-.598 1.429-.39.719-.195.715-.192.715-.187.715-.192.714-.187.715-.184.715-.187.715-.184.715-.18.715-.183.714-.176.715-.18 2.145-.527.719-.172.714-.172.715-.168.715-.172.715-.168.715-.164.715-.168.714-.164.715-.16.715-.164 2.145-.48 1.429-.313.719-.156.715-.153.715-.156.715-.152.714-.149.715-.152 1.43-.297"/><path fill="none" stroke="#666" stroke-linecap="square" stroke-miterlimit="3.25" stroke-width=".5" d="M512.469 158.613H289M289 158.613V20.5M289 20.5h223.469M512.469 20.5v138.113"/><path fill="none" stroke="#666" stroke-miterlimit="3.25" stroke-width=".5" d="M293.469 158.613v-2.636"/><use xlink:href="#f" fill="#666" data-text="1" transform="matrix(10 0 0 -10 286.47 170.612)"/><use xlink:href="#g" fill="#666" data-text="." transform="matrix(10 0 0 -10 292.03 170.612)"/><use xlink:href="#h" fill="#666" data-text="0" transform="matrix(10 0 0 -10 294.8 170.612)"/><path fill="none" stroke="#666" stroke-miterlimit="3.25" stroke-width=".5" d="M300.621 158.613v-1.582M307.77 158.613v-1.582M314.922 158.613v-1.582M322.074 158.613v-1.582M329.223 158.613v-2.636"/><use xlink:href="#f" fill="#666" data-text="1" transform="matrix(10 0 0 -10 322.224 170.612)"/><use xlink:href="#g" fill="#666" data-text="." transform="matrix(10 0 0 -10 327.784 170.612)"/><use xlink:href="#i" fill="#666" data-text="5" transform="matrix(10 0 0 -10 330.554 170.612)"/><path fill="none" stroke="#666" stroke-miterlimit="3.25" stroke-width=".5" d="M336.375 158.613v-1.582M343.527 158.613v-1.582M350.676 158.613v-1.582M357.828 158.613v-1.582M364.98 158.613v-2.636"/><use xlink:href="#j" fill="#666" data-text="2" transform="matrix(10 0 0 -10 357.98 170.612)"/><use xlink:href="#g" fill="#666" data-text="." transform="matrix(10 0 0 -10 363.54 170.612)"/><use xlink:href="#h" fill="#666" data-text="0" transform="matrix(10 0 0 -10 366.31 170.612)"/><path fill="none" stroke="#666" stroke-miterlimit="3.25" stroke-width=".5" d="M372.129 158.613v-1.582M379.281 158.613v-1.582M386.434 158.613v-1.582M393.582 158.613v-1.582M400.734 158.613v-2.636"/><use xlink:href="#j" fill="#666" data-text="2" transform="matrix(10 0 0 -10 393.735 170.612)"/><use xlink:href="#g" fill="#666" data-text="." transform="matrix(10 0 0 -10 399.295 170.612)"/><use xlink:href="#i" fill="#666" data-text="5" transform="matrix(10 0 0 -10 402.065 170.612)"/><path fill="none" stroke="#666" stroke-miterlimit="3.25" stroke-width=".5" d="M407.887 158.613v-1.582M415.035 158.613v-1.582M422.188 158.613v-1.582M429.34 158.613v-1.582M436.488 158.613v-2.636"/><use xlink:href="#k" fill="#666" data-text="3" transform="matrix(10 0 0 -10 429.49 170.612)"/><use xlink:href="#g" fill="#666" data-text="." transform="matrix(10 0 0 -10 435.05 170.612)"/><use xlink:href="#h" fill="#666" data-text="0" transform="matrix(10 0 0 -10 437.82 170.612)"/><path fill="none" stroke="#666" stroke-miterlimit="3.25" stroke-width=".5" d="M443.641 158.613v-1.582M450.793 158.613v-1.582M457.941 158.613v-1.582M465.094 158.613v-1.582M472.246 158.613v-2.636"/><use xlink:href="#k" fill="#666" data-text="3" transform="matrix(10 0 0 -10 465.245 170.612)"/><use xlink:href="#g" fill="#666" data-text="." transform="matrix(10 0 0 -10 470.805 170.612)"/><use xlink:href="#i" fill="#666" data-text="5" transform="matrix(10 0 0 -10 473.575 170.612)"/><path fill="none" stroke="#666" stroke-miterlimit="3.25" stroke-width=".5" d="M479.395 158.613v-1.582M486.547 158.613v-1.582M493.699 158.613v-1.582M500.848 158.613v-1.582M508 158.613v-2.636"/><use xlink:href="#l" fill="#666" data-text="4" transform="matrix(10 0 0 -10 501 170.612)"/><use xlink:href="#g" fill="#666" data-text="." transform="matrix(10 0 0 -10 506.56 170.612)"/><use xlink:href="#h" fill="#666" data-text="0" transform="matrix(10 0 0 -10 509.33 170.612)"/><path fill="none" stroke="#666" stroke-miterlimit="3.25" stroke-width=".5" d="M289 156.266h1.582M289 151.953h2.637"/><use xlink:href="#D" fill="#666" data-text="-" transform="matrix(10 0 0 -10 266 154.451)"/><use xlink:href="#j" fill="#666" data-text="2" transform="matrix(10 0 0 -10 271.99 154.451)"/><use xlink:href="#g" fill="#666" data-text="." transform="matrix(10 0 0 -10 277.55 154.451)"/><use xlink:href="#h" fill="#666" data-text="0" transform="matrix(10 0 0 -10 280.32 154.451)"/><path fill="none" stroke="#666" stroke-miterlimit="3.25" stroke-width=".5" d="M289 147.637h1.582M289 143.32h1.582M289 139.004h1.582M289 134.688h2.637"/><use xlink:href="#D" fill="#666" data-text="-" transform="matrix(10 0 0 -10 266 137.186)"/><use xlink:href="#f" fill="#666" data-text="1" transform="matrix(10 0 0 -10 271.99 137.186)"/><use xlink:href="#g" fill="#666" data-text="." transform="matrix(10 0 0 -10 277.55 137.186)"/><use xlink:href="#m" fill="#666" data-text="8" transform="matrix(10 0 0 -10 280.32 137.186)"/><path fill="none" stroke="#666" stroke-miterlimit="3.25" stroke-width=".5" d="M289 130.371h1.582M289 126.055h1.582M289 121.738h1.582M289 117.422h2.637"/><use xlink:href="#D" fill="#666" data-text="-" transform="matrix(10 0 0 -10 266 119.92)"/><use xlink:href="#f" fill="#666" data-text="1" transform="matrix(10 0 0 -10 271.99 119.92)"/><use xlink:href="#g" fill="#666" data-text="." transform="matrix(10 0 0 -10 277.55 119.92)"/><use xlink:href="#n" fill="#666" data-text="6" transform="matrix(10 0 0 -10 280.32 119.92)"/><path fill="none" stroke="#666" stroke-miterlimit="3.25" stroke-width=".5" d="M289 113.105h1.582M289 108.789h1.582M289 104.473h1.582M289 100.156h2.637"/><use xlink:href="#D" fill="#666" data-text="-" transform="matrix(10 0 0 -10 266 102.655)"/><use xlink:href="#f" fill="#666" data-text="1" transform="matrix(10 0 0 -10 271.99 102.655)"/><use xlink:href="#g" fill="#666" data-text="." transform="matrix(10 0 0 -10 277.55 102.655)"/><use xlink:href="#l" fill="#666" data-text="4" transform="matrix(10 0 0 -10 280.32 102.655)"/><path fill="none" stroke="#666" stroke-miterlimit="3.25" stroke-width=".5" d="M289 95.84h1.582M289 91.523h1.582M289 87.207h1.582M289 82.891h2.637"/><use xlink:href="#D" fill="#666" data-text="-" transform="matrix(10 0 0 -10 266 85.39)"/><use xlink:href="#f" fill="#666" data-text="1" transform="matrix(10 0 0 -10 271.99 85.39)"/><use xlink:href="#g" fill="#666" data-text="." transform="matrix(10 0 0 -10 277.55 85.39)"/><use xlink:href="#j" fill="#666" data-text="2" transform="matrix(10 0 0 -10 280.32 85.39)"/><path fill="none" stroke="#666" stroke-miterlimit="3.25" stroke-width=".5" d="M289 78.574h1.582M289 74.258h1.582M289 69.941h1.582M289 65.625h2.637"/><use xlink:href="#D" fill="#666" data-text="-" transform="matrix(10 0 0 -10 266 68.125)"/><use xlink:href="#f" fill="#666" data-text="1" transform="matrix(10 0 0 -10 271.99 68.125)"/><use xlink:href="#g" fill="#666" data-text="." transform="matrix(10 0 0 -10 277.55 68.125)"/><use xlink:href="#h" fill="#666" data-text="0" transform="matrix(10 0 0 -10 280.32 68.125)"/><path fill="none" stroke="#666" stroke-miterlimit="3.25" stroke-width=".5" d="M289 61.309h1.582M289 56.992h1.582M289 52.676h1.582M289 48.359h2.637"/><use xlink:href="#D" fill="#666" data-text="-" transform="matrix(10 0 0 -10 266 50.86)"/><use xlink:href="#h" fill="#666" data-text="0" transform="matrix(10 0 0 -10 271.99 50.86)"/><use xlink:href="#g" fill="#666" data-text="." transform="matrix(10 0 0 -10 277.55 50.86)"/><use xlink:href="#m" fill="#666" data-text="8" transform="matrix(10 0 0 -10 280.32 50.86)"/><path fill="none" stroke="#666" stroke-miterlimit="3.25" stroke-width=".5" d="M289 44.043h1.582M289 39.727h1.582M289 35.41h1.582M289 31.094h2.637"/><use xlink:href="#D" fill="#666" data-text="-" transform="matrix(10 0 0 -10 266 33.594)"/><use xlink:href="#h" fill="#666" data-text="0" transform="matrix(10 0 0 -10 271.99 33.594)"/><use xlink:href="#g" fill="#666" data-text="." transform="matrix(10 0 0 -10 277.55 33.594)"/><use xlink:href="#n" fill="#666" data-text="6" transform="matrix(10 0 0 -10 280.32 33.594)"/><path fill="none" stroke="#666" stroke-miterlimit="3.25" stroke-width=".5" d="M289 26.777h1.582M289 22.461h1.582M293.469 20.5v2.637M300.621 20.5v1.582M307.77 20.5v1.582M314.922 20.5v1.582M322.074 20.5v1.582M329.223 20.5v2.637M336.375 20.5v1.582M343.527 20.5v1.582M350.676 20.5v1.582M357.828 20.5v1.582M364.98 20.5v2.637M372.129 20.5v1.582M379.281 20.5v1.582M386.434 20.5v1.582M393.582 20.5v1.582M400.734 20.5v2.637M407.887 20.5v1.582M415.035 20.5v1.582M422.188 20.5v1.582M429.34 20.5v1.582M436.488 20.5v2.637M443.641 20.5v1.582M450.793 20.5v1.582M457.941 20.5v1.582M465.094 20.5v1.582M472.246 20.5v2.637M479.395 20.5v1.582M486.547 20.5v1.582M493.699 20.5v1.582M500.848 20.5v1.582M508 20.5v2.637M512.469 156.266h-1.582M512.469 151.953h-2.633M512.469 147.637h-1.582M512.469 143.32h-1.582M512.469 139.004h-1.582M512.469 134.688h-2.633M512.469 130.371h-1.582M512.469 126.055h-1.582M512.469 121.738h-1.582M512.469 117.422h-2.633M512.469 113.105h-1.582M512.469 108.789h-1.582M512.469 104.473h-1.582M512.469 100.156h-2.633M512.469 95.84h-1.582M512.469 91.523h-1.582M512.469 87.207h-1.582M512.469 82.891h-2.633M512.469 78.574h-1.582M512.469 74.258h-1.582M512.469 69.941h-1.582M512.469 65.625h-2.633M512.469 61.309h-1.582M512.469 56.992h-1.582M512.469 52.676h-1.582M512.469 48.359h-2.633M512.469 44.043h-1.582M512.469 39.727h-1.582M512.469 35.41h-1.582M512.469 31.094h-2.633M512.469 26.777h-1.582M512.469 22.461h-1.582"/><use xlink:href="#E" fill="#666" data-text="E" transform="matrix(12 0 0 -12 381.735 17)"/><use xlink:href="#u" fill="#666" data-text="n" transform="matrix(12 0 0 -12 389.727 17)"/><use xlink:href="#F" fill="#666" data-text="e" transform="matrix(12 0 0 -12 396.399 17)"/><use xlink:href="#q" fill="#666" data-text="r" transform="matrix(12 0 0 -12 403.07 17)"/><use xlink:href="#G" fill="#666" data-text="g" transform="matrix(12 0 0 -12 407.067 17)"/><use xlink:href="#H" fill="#666" data-text="y" transform="matrix(12 0 0 -12 413.739 17)"/><g clip-path="url(#I)"><path fill="none" stroke="#666" stroke-dasharray="1,2" stroke-miterlimit="3.25" stroke-opacity=".5" d="M586.797 163.441V16.5"/></g><g clip-path="url(#J)"><path fill="none" stroke="#666" stroke-dasharray="1,2" stroke-miterlimit="3.25" stroke-opacity=".5" d="M624.836 163.441V16.5"/></g><g clip-path="url(#K)"><path fill="none" stroke="#666" stroke-dasharray="1,2" stroke-miterlimit="3.25" stroke-opacity=".5" d="M662.879 163.441V16.5"/></g><g clip-path="url(#L)"><path fill="none" stroke="#666" stroke-dasharray="1,2" stroke-miterlimit="3.25" stroke-opacity=".5" d="M700.918 163.441V16.5"/></g><g clip-path="url(#M)"><path fill="none" stroke="#666" stroke-dasharray="1,2" stroke-miterlimit="3.25" stroke-opacity=".5" d="M738.961 163.441V16.5"/></g><g clip-path="url(#N)"><path fill="none" stroke="#666" stroke-dasharray="1,2" stroke-miterlimit="3.25" stroke-opacity=".5" d="M544 128.418h237.754"/></g><g clip-path="url(#O)"><path fill="none" stroke="#666" stroke-dasharray="1,2" stroke-miterlimit="3.25" stroke-opacity=".5" d="M544 100.203h237.754"/></g><g clip-path="url(#P)"><path fill="none" stroke="#666" stroke-dasharray="1,2" stroke-miterlimit="3.25" stroke-opacity=".5" d="M544 71.984h237.754"/></g><g clip-path="url(#Q)"><path fill="none" stroke="#666" stroke-dasharray="1,2" stroke-miterlimit="3.25" stroke-opacity=".5" d="M544 43.77h237.754"/></g><path fill="none" stroke="gray" stroke-dasharray="5,7" stroke-miterlimit="3.25" stroke-width="2" d="m548.754 155.977.562-.032.559-.031 1.121-.07 2.238-.145.078-.008.075-.003.152-.012.305-.02.605-.047 1.215-.089 2.43-.204.07-.004.07-.007.141-.012.285-.023.567-.051 1.132-.11 2.27-.226 4.445-.5 4.824-.641 4.5-.691 4.879-.86 4.789-.964 4.465-1.012 4.844-1.242 4.523-1.309 4.434-1.445 4.809-1.785 4.488-1.911.078-.035.074-.035.457-.211.606-.285 1.218-.594 2.434-1.258.074-.043.075-.039.445-.246.598-.336 1.195-.695 2.387-1.492.14-.094.137-.09.281-.187.555-.383 1.113-.793.141-.102.14-.105.278-.207.554-.426 1.114-.887.078-.062.074-.063.152-.128.301-.254.606-.524 1.207-1.105.074-.071.074-.074.152-.144.301-.297.606-.61 1.207-1.3.07-.082.07-.078.141-.161.285-.328.563-.679 1.125-1.461.14-.196.145-.195.281-.398.563-.836 1.128-1.825.075-.132.078-.133.152-.27.305-.558.609-1.184.078-.156.075-.156.152-.321.308-.656.61-1.418.078-.187.074-.192.152-.387.305-.804.078-.211.075-.211.156-.434.304-.91.075-.238.078-.242.152-.493.305-1.043.078-.273.074-.277.153-.575.304-1.222.078-.317.075-.324.148-.672.301-1.445.074-.387.074-.394.153-.828.296-1.821.079-.492.074-.512.148-1.082.074-.574.079-.598.148-1.281.074-.683.074-.723.075-.762.078-.801.074-.855.074-.906.149-2.016.078-1.125.074-1.226.074-1.344.074-1.488.075-1.661.078-1.89.074-2.184.074-2.586.074-3.179.075-4.125.074-5.879.078-10.36.074-32.058.074 34.617.075 9.074.074 5.453.078 3.91.074 3.051.074 2.5.075 2.117.074 1.84.078 1.625.074 1.453.074 1.317.075 1.203.074 1.105.074 1.028.078.953.074.89.075.84.148 1.539.07.664.071.633.14 1.184.071.554.07.536.141 1.011.07.481.066.461.141.883.281 1.609.071.371.07.367.137.699.281 1.301.07.309.07.301.141.582.277 1.089.071.262.07.254.141.496.277.942.562 1.703.071.199.066.195.141.383.281.734.559 1.356.074.172.078.172.152.336.301.648.61 1.207.074.141.074.144.152.278.305.539.605 1.015.079.121.074.121.152.239.301.461.609.875 1.211 1.589.141.172.144.172.282.332.566.641 1.133 1.191.14.141.145.137.281.273.567.527 1.132.993.071.058.066.059.141.113.277.227.555.437 1.109.832.071.051.07.047.137.101.281.196.555.379 1.109.722.148.094.153.094.3.183.602.36 1.207.687 2.406 1.25.071.035.07.032.141.07.843.398 1.125.504 2.246.946.079.027.074.031.152.059.305.121.609.234 1.219.449 2.437.84.075.028.222.07.301.098.598.191 1.195.367 2.395.696 4.46 1.152 4.84 1.086 4.516.883 4.43.769 4.804.742 4.481.621 4.863.606 4.535.512 4.449.457 4.829.453 4.503.386 4.879.383 4.793.348 4.473.297 4.844.301 4.527.257 4.438.239 4.812.242 4.492.207.625.031.625.028 1.254.054.156.008.157.004.316.016.625.027.078.004h.078l.157.008.316.011.469.024h.078l.078.004"/><path fill="none" stroke="#5e81b5" stroke-linecap="square" stroke-miterlimit="3.25" stroke-width="2" d="m548.754 155.934.762-.184 1.523-.109.758-.059.762-.059.761-.062.762-.066.758-.067 2.285-.211.762-.078.758-.074.761-.082.762-.078.762-.086.758-.082.761-.09.762-.086.762-.09.757-.094 1.524-.187 1.523-.195.758-.098 1.524-.203.761-.106.758-.101.762-.106.762-.109.761-.106.758-.105 3.047-.438.758-.109.762-.113 1.523-.219.758-.109 2.285-.328.758-.11 1.523-.219 1.524-.211.757-.105.762-.105.762-.102.762-.105.757-.102.762-.098.762-.101.762-.098.757-.098 2.286-.281.761-.09.758-.093.762-.086.761-.09.762-.086.758-.086 2.285-.246.758-.082 2.285-.235.762-.074.758-.074 2.285-.223.758-.074 2.285-.211.758-.07 3.046-.281.758-.071.762-.07.762-.074.761-.071.758-.07.762-.07.762-.074.761-.071.758-.074 1.524-.148.761-.078.762-.075.758-.078 2.285-.234.758-.082 2.285-.246.758-.082 3.047-.344.758-.086 1.523-.18.762-.086.757-.09.762-.089.762-.094.762-.09.757-.09.762-.09.762-.093 1.523-.18.758-.094 2.285-.269.758-.09.762-.09.762-.086.761-.09.758-.086 1.524-.172 1.523-.164.758-.082.761-.082 1.524-.156.758-.078 1.523-.149.762-.07.758-.07.761-.071.762-.066.762-.062.758-.063.761-.062 1.524-.118.762-.054.757-.055.762-.051 1.524-.094.757-.046.762-.043 1.523-.078.758-.04.762-.031.762-.035.761-.027.762-.032.758-.023 1.523-.047.762-.019.758-.016.762-.016 1.523-.023.758-.012.762-.004.761-.008h.762l.762-.003.758.003h.761l.762.004.762.008.758.008 2.285.035.758.016.761.019.762.016.762.023.761.02.758.023.762.024 1.523.054.758.032.762.027.762.035.761.031.758.036 1.524.07 1.523.078.758.043.762.039 1.523.086.758.043 2.285.141.758.046.762.051.761.047 1.524.102.758.05.761.055.762.051.762.055.757.054 2.286.164.757.059.762.055 2.285.175.758.059 2.285.176.758.058.762.063 1.523.117.758.063.762.058 1.523.125.762.059.758.062 2.285.188.758.058 2.285.188.758.062.761.063.762.059 1.524.124.757.063.762.063.762.058.762.063.757.062.762.063.762.058.762.063.757.062.762.059.762.062.761.059.762.062.758.059.762.062 1.523.118.758.058.762.063 1.523.117.758.059 2.285.175.762.055.758.059.761.058.762.055.762.058.758.055.761.059.762.054.762.059.758.055.761.054.762.059"/><path fill="none" stroke="#e19c24" stroke-linecap="square" stroke-miterlimit="3.25" stroke-width="2" d="m548.754 156.047.762-.172.761-.047.762-.051.758-.05 1.523-.11.762-.058.758-.063 1.523-.125.762-.066.762-.071.758-.074 1.523-.148.762-.078.758-.082 1.523-.172.762-.09.757-.09.762-.098.762-.093 1.523-.204.758-.105 1.524-.219.761-.117.758-.117.762-.117 1.523-.25.758-.129 1.524-.266 1.523-.281.758-.145.762-.148 1.523-.305.758-.16.761-.16.762-.164.762-.168.758-.176.761-.172.762-.179.762-.184.762-.188.757-.187 1.524-.391.762-.199.757-.207.762-.207.762-.211.762-.215.757-.215 1.524-.445 1.523-.461.758-.23 1.523-.477.762-.242.758-.242.762-.246 1.523-.5.758-.25 1.523-.508.762-.258.762-.254.758-.254.761-.258.762-.253.762-.258.758-.254.761-.25.762-.254.762-.246.758-.25 2.285-.727.761-.234.758-.234.762-.231.762-.227.761-.222.758-.219.762-.215 1.523-.422.758-.203.762-.203.762-.199 1.523-.391.758-.191.762-.192 1.523-.375.758-.187 2.285-.563.758-.187.762-.188 2.285-.574.758-.195.761-.199.762-.196.762-.203.757-.199 1.524-.406.762-.207.757-.203 1.524-.407 1.523-.398.758-.195.762-.192.762-.187.761-.18.758-.176.762-.168.762-.16.761-.156.758-.141.762-.136.762-.125.761-.114.762-.105.758-.09.761-.082.762-.067.762-.058.758-.043.761-.031.762-.016.762-.008.758.008.761.02.762.035.762.043.758.054.761.071.762.078.762.09.762.101.757.114.762.121.762.132.762.141.757.148.762.157.762.164.761.172.758.179 1.524.375 1.523.399.758.207.762.211.761.215.762.218.758.219.762.223 1.523.453.758.23 2.285.692.762.234.758.231.761.234.762.23.762.235.758.23.761.231.762.226.762.231.758.222.761.227 1.524.445.761.219.758.219.762.215 1.523.422.758.211.762.203.762.207.761.199.758.199 1.524.391.761.191.762.188.758.187.762.184 1.523.359.758.176.762.172 1.523.336.758.168 2.285.48.762.152.758.157 1.523.297.762.144.757.145.762.14 1.524.274.757.133.762.132 1.524.258.761.125.758.121 1.524.242.761.118.758.113 1.524.226.761.11.758.109.762.106.762.101.761.106.762.097.758.102.761.098 1.524.187.758.094 2.285.269.758.086.761.086.762.082.762.086.762.078.757.082 1.524.157.762.074.757.078.762.074.762.071.762.074.757.07.762.066.762.071 1.523.133.758.066 2.285.187.758.063.762.059.761.062.762.059.758.054.762.059.761.055.762.058.762.051.758.055.761.054 1.524.102.758.051 1.523.101.762.047.758.047.761.047.762.051"/><path fill="none" stroke="#8fb032" stroke-linecap="square" stroke-miterlimit="3.25" stroke-width="2" d="m548.754 156.09.762-.172.761-.043.762-.047.758-.047 1.523-.101.762-.055.758-.059 1.523-.117.762-.062.762-.067.758-.066.761-.066.762-.075.762-.07.758-.078 1.523-.156.762-.082.757-.086.762-.086.762-.09 1.523-.188.758-.097.762-.098.762-.105.761-.102.758-.109.762-.11 1.523-.226.758-.118.762-.121 1.523-.25.762-.129.758-.132.762-.133 1.523-.281.758-.141 1.523-.297.762-.152.758-.156.761-.161 1.524-.328.762-.168.757-.172 2.286-.539.757-.187.762-.192.762-.195.762-.199.757-.203 1.524-.414 1.523-.438.758-.222.762-.227.761-.234.762-.239.758-.242.762-.25.761-.254.762-.258.758-.265.762-.27.761-.277.762-.281.762-.289.758-.297.761-.301.762-.309.762-.316.758-.328.761-.332.762-.34.762-.352.758-.359.761-.367.762-.379.762-.391.761-.402.758-.41.762-.426.762-.441.761-.454.758-.464.762-.485.762-.5.761-.519.758-.539.762-.563.762-.582.761-.605.762-.633.758-.66.762-.692.761-.718.762-.754.758-.786.762-.816.761-.848.762-.875.758-.906.762-.922 2.285-2.824.758-.93.761-.906.762-.879.762-.851.757-.828.762-.821.762-.824.762-.848.757-.882.762-.914.762-.926.762-.899.761-4.66.758 4.926.762-.922.762-1.551.761.039.758-.34.762 1.911.762.144.761 1.016.758 1.172.762 1.281.762 1.351.761 1.336.762 1.508.758 1.297.761 1.324.762 1.274.762 1.215.758 1.148.761 1.078.762 1.012.762.945.758 3.629.761-4.859.762 3.711.762.718.758.672.761.645.762 3.679.762-5.898.762 3.723.757-.961.762 3.863.762-1.398.762.41.757 1.418.762-1.582.762 1.039.761.601.758.325.762.308.762.301.761.285.762.277.758.266.762.258.761.246.762.242.758.235.762.222.761.219.762.215.758.207 1.523.398 1.524.375.758.18.761.18.762.172.762.167.758.165.761.171.762.051.762.332.758.071 1.523.289 1.523.281.758.133.762.132 1.523.258.758.129.762.113.762.125.761.118.758.117 1.524.226.761.11.762.105.758.106.762.105.761.102.762.097.758.102.762.098 1.523.187.758.09.762.094.761.086.762.09.762.085.758.086 2.285.246.757.079 2.286.234.757.074.762.074.762.071.762.074.761.07.758.071 2.285.199.758.074.762.047.762.074.761.063.758.062.762.063.762.058.761.063.762.058.758.059.761.055.762.058.762.055.758.055 1.523.109.762.051.758.05.761.055 1.524.102.762.047.757.05 2.286.141.757.047 1.524.094.762.043.757.046 3.047.172.758.043.762.039.761.043.762.039.758.039 2.285.118.758.039.762.039.761.035.762.039.762.035.758.035 2.285.106.758.035.761.035.762.031.762.036.758.031 1.523.07"/><path fill="none" stroke="#eb6235" stroke-linecap="square" stroke-miterlimit="3.25" stroke-width="2" d="m548.754 156.094.762-.172.761-.043.762-.047.758-.047 1.523-.101.762-.055.758-.059.762-.054 2.285-.188.758-.066 2.285-.211.758-.078 1.523-.157.762-.082.757-.086.762-.086 1.524-.179.761-.094.758-.098.762-.097.762-.102.761-.105.758-.106.762-.109 1.523-.227.758-.117 1.524-.242.761-.125.762-.129.758-.129.762-.133.761-.136.762-.141.758-.145.761-.144.762-.149.762-.152.758-.152 1.523-.321.762-.164.762-.168.757-.171.762-.172 1.524-.36.757-.187.762-.188.762-.191.762-.199.757-.2.762-.203 1.524-.422.761-.214.758-.223.762-.227.761-.23.762-.234.758-.239.762-.246.761-.25.762-.254.758-.261.762-.266.761-.27.762-.277.762-.285.758-.289.761-.297.762-.301.762-.312.758-.317.761-.324.762-.332.762-.344.758-.347.761-.36.762-.367.762-.379.761-.387.758-.398.762-.41.762-.422.761-.438.758-.449.762-.461.762-.476.761-.496.758-.512.762-.527.762-.551.761-.571.762-.593.758-.617.762-.649.761-.676.762-.707.758-.742.762-.781.761-.828.762-.875.758-.934.762-.996.761-1.066.762-1.153.762-1.254.758-1.367.761-1.515.762-1.692.762-1.922.757-2.215.762-2.632.762-3.235.762-4.218.757-6.129.762-10.422.762-12.953.762 8.363.761 15.176.758 6.488.762 3.988.762 3.164.761 2.524.758 2.183.762 1.555.762 1.734.761 1.399.758 1.262.762 1.175.762 1.047.761 1.106.762.648.758.969.761.785.762.746.762.692.758.656.761.621.762.59.762.558.758.543.761.492.762.497.762.464.758.446.761.429.762.411.762.398.762.379.757.41.762.266.762.39.762.328.757.321.762.308.762.301.761.289.758.281.762.274.762.265.761.258.762.25.758.242.762.239.761.23.762.223.758.219.762.215.761.207.762.203.758.199.762.191.761.188.762.183.762.18.758.176.761.172.762.168.762.164.758.16.761.156.762.176.762.105.758.172.761.145.762.14 1.523.274.758.133 1.524.258.761.124.758.126.762.121 1.523.234.758.113.762.114 1.523.218.762.106.758.105 1.523.203.762.098.758.098.762.093.761.098.762.09.758.094.762.089 2.285.258.758.086 1.523.164.762.078.757.082.762.075.762.078.762.074.757.074 1.524.149 1.523.14.758.067.762.07 1.523.133.758.101.762-.007.762.097.761.063.758.062.762.063 2.285.176.758.058.761.055.762.058.762.055.758.055.761.054.762.051.762.055.758.051 2.285.152.762.047.757.051 2.286.14.757.047 1.524.094.762.043.757.043 3.047.172.758.043.762.039.761.043.762.039.758.039 2.285.117.758.039.762.035.761.039 1.524.071.758.039 2.285.105.758.031 1.523.071.762.031.758.035.761.031.762.036"/><path fill="none" stroke="#666" stroke-linecap="square" stroke-miterlimit="3.25" stroke-width=".5" d="M781.754 163.441H544M544 163.441V16.5M544 16.5h237.754M781.754 16.5v146.941"/><path fill="none" stroke="#666" stroke-miterlimit="3.25" stroke-width=".5" d="M548.754 163.441v-2.804"/><use xlink:href="#f" fill="#666" data-text="1" transform="matrix(10 0 0 -10 541.755 175.44)"/><use xlink:href="#g" fill="#666" data-text="." transform="matrix(10 0 0 -10 547.315 175.44)"/><use xlink:href="#h" fill="#666" data-text="0" transform="matrix(10 0 0 -10 550.085 175.44)"/><path fill="none" stroke="#666" stroke-miterlimit="3.25" stroke-width=".5" d="M556.363 163.441v-1.683M563.973 163.441v-1.683M571.578 163.441v-1.683M579.188 163.441v-1.683M586.797 163.441v-2.804"/><use xlink:href="#f" fill="#666" data-text="1" transform="matrix(10 0 0 -10 579.796 175.44)"/><use xlink:href="#g" fill="#666" data-text="." transform="matrix(10 0 0 -10 585.356 175.44)"/><use xlink:href="#i" fill="#666" data-text="5" transform="matrix(10 0 0 -10 588.126 175.44)"/><path fill="none" stroke="#666" stroke-miterlimit="3.25" stroke-width=".5" d="M594.402 163.441v-1.683M602.012 163.441v-1.683M609.621 163.441v-1.683M617.23 163.441v-1.683M624.836 163.441v-2.804"/><use xlink:href="#j" fill="#666" data-text="2" transform="matrix(10 0 0 -10 617.837 175.44)"/><use xlink:href="#g" fill="#666" data-text="." transform="matrix(10 0 0 -10 623.397 175.44)"/><use xlink:href="#h" fill="#666" data-text="0" transform="matrix(10 0 0 -10 626.167 175.44)"/><path fill="none" stroke="#666" stroke-miterlimit="3.25" stroke-width=".5" d="M632.445 163.441v-1.683M640.055 163.441v-1.683M647.66 163.441v-1.683M655.27 163.441v-1.683M662.879 163.441v-2.804"/><use xlink:href="#j" fill="#666" data-text="2" transform="matrix(10 0 0 -10 655.878 175.44)"/><use xlink:href="#g" fill="#666" data-text="." transform="matrix(10 0 0 -10 661.438 175.44)"/><use xlink:href="#i" fill="#666" data-text="5" transform="matrix(10 0 0 -10 664.208 175.44)"/><path fill="none" stroke="#666" stroke-miterlimit="3.25" stroke-width=".5" d="M670.484 163.441v-1.683M678.094 163.441v-1.683M685.703 163.441v-1.683M693.309 163.441v-1.683M700.918 163.441v-2.804"/><use xlink:href="#k" fill="#666" data-text="3" transform="matrix(10 0 0 -10 693.918 175.44)"/><use xlink:href="#g" fill="#666" data-text="." transform="matrix(10 0 0 -10 699.478 175.44)"/><use xlink:href="#h" fill="#666" data-text="0" transform="matrix(10 0 0 -10 702.248 175.44)"/><path fill="none" stroke="#666" stroke-miterlimit="3.25" stroke-width=".5" d="M708.527 163.441v-1.683M716.133 163.441v-1.683M723.742 163.441v-1.683M731.352 163.441v-1.683M738.961 163.441v-2.804"/><use xlink:href="#k" fill="#666" data-text="3" transform="matrix(10 0 0 -10 731.96 175.44)"/><use xlink:href="#g" fill="#666" data-text="." transform="matrix(10 0 0 -10 737.52 175.44)"/><use xlink:href="#i" fill="#666" data-text="5" transform="matrix(10 0 0 -10 740.29 175.44)"/><path fill="none" stroke="#666" stroke-miterlimit="3.25" stroke-width=".5" d="M746.566 163.441v-1.683M754.176 163.441v-1.683M761.785 163.441v-1.683M769.391 163.441v-1.683M777 163.441v-2.804"/><use xlink:href="#l" fill="#666" data-text="4" transform="matrix(10 0 0 -10 770 175.44)"/><use xlink:href="#g" fill="#666" data-text="." transform="matrix(10 0 0 -10 775.56 175.44)"/><use xlink:href="#h" fill="#666" data-text="0" transform="matrix(10 0 0 -10 778.33 175.44)"/><path fill="none" stroke="#666" stroke-miterlimit="3.25" stroke-width=".5" d="M544 162.281h1.684M544 156.637h2.805"/><use xlink:href="#h" fill="#666" data-text="0" transform="matrix(10 0 0 -10 535 159.136)"/><path fill="none" stroke="#666" stroke-miterlimit="3.25" stroke-width=".5" d="M544 150.992h1.684M544 145.348h1.684M544 139.707h1.684M544 134.062h1.684M544 128.418h2.805"/><use xlink:href="#f" fill="#666" data-text="1" transform="matrix(10 0 0 -10 535 130.92)"/><path fill="none" stroke="#666" stroke-miterlimit="3.25" stroke-width=".5" d="M544 122.777h1.684M544 117.133h1.684M544 111.488h1.684M544 105.848h1.684M544 100.203h2.805"/><use xlink:href="#j" fill="#666" data-text="2" transform="matrix(10 0 0 -10 535 102.703)"/><path fill="none" stroke="#666" stroke-miterlimit="3.25" stroke-width=".5" d="M544 94.559h1.684M544 88.918h1.684M544 83.273h1.684M544 77.629h1.684M544 71.984h2.805"/><use xlink:href="#k" fill="#666" data-text="3" transform="matrix(10 0 0 -10 535 74.486)"/><path fill="none" stroke="#666" stroke-miterlimit="3.25" stroke-width=".5" d="M544 66.344h1.684M544 60.699h1.684M544 55.055h1.684M544 49.414h1.684M544 43.77h2.805"/><use xlink:href="#l" fill="#666" data-text="4" transform="matrix(10 0 0 -10 535 46.27)"/><path fill="none" stroke="#666" stroke-miterlimit="3.25" stroke-width=".5" d="M544 38.125h1.684M544 32.484h1.684M544 26.84h1.684M544 21.195h1.684M548.754 16.5v2.805M556.363 16.5v1.684M563.973 16.5v1.684M571.578 16.5v1.684M579.188 16.5v1.684M586.797 16.5v2.805M594.402 16.5v1.684M602.012 16.5v1.684M609.621 16.5v1.684M617.23 16.5v1.684M624.836 16.5v2.805M632.445 16.5v1.684M640.055 16.5v1.684M647.66 16.5v1.684M655.27 16.5v1.684M662.879 16.5v2.805M670.484 16.5v1.684M678.094 16.5v1.684M685.703 16.5v1.684M693.309 16.5v1.684M700.918 16.5v2.805M708.527 16.5v1.684M716.133 16.5v1.684M723.742 16.5v1.684M731.352 16.5v1.684M738.961 16.5v2.805M746.566 16.5v1.684M754.176 16.5v1.684M761.785 16.5v1.684M769.391 16.5v1.684M777 16.5v2.805M781.754 162.281h-1.68M781.754 156.637h-2.801M781.754 150.992h-1.68M781.754 145.348h-1.68M781.754 139.707h-1.68M781.754 134.062h-1.68M781.754 128.418h-2.801M781.754 122.777h-1.68M781.754 117.133h-1.68M781.754 111.488h-1.68M781.754 105.848h-1.68M781.754 100.203h-2.801M781.754 94.559h-1.68M781.754 88.918h-1.68M781.754 83.273h-1.68M781.754 77.629h-1.68M781.754 71.984h-2.801M781.754 66.344h-1.68M781.754 60.699h-1.68M781.754 55.055h-1.68M781.754 49.414h-1.68M781.754 43.77h-2.801M781.754 38.125h-1.68M781.754 32.484h-1.68M781.754 26.84h-1.68M781.754 21.195h-1.68"/><use xlink:href="#R" fill="#666" data-text="S" transform="matrix(12 0 0 -12 628.878 13)"/><use xlink:href="#S" fill="#666" data-text="p" transform="matrix(12 0 0 -12 636.87 13)"/><use xlink:href="#F" fill="#666" data-text="e" transform="matrix(12 0 0 -12 643.542 13)"/><use xlink:href="#x" fill="#666" data-text="c" transform="matrix(12 0 0 -12 650.214 13)"/><use xlink:href="#s" fill="#666" data-text="i" transform="matrix(12 0 0 -12 656.214 13)"/><use xlink:href="#v" fill="#666" data-text="f" transform="matrix(12 0 0 -12 658.878 13)"/><use xlink:href="#s" fill="#666" data-text="i" transform="matrix(12 0 0 -12 662.202 13)"/><use xlink:href="#x" fill="#666" data-text="c" transform="matrix(12 0 0 -12 664.866 13)"/><use xlink:href="#T" fill="#666" data-text="h" transform="matrix(12 0 0 -12 673.854 13)"/><use xlink:href="#F" fill="#666" data-text="e" transform="matrix(12 0 0 -12 680.525 13)"/><use xlink:href="#p" fill="#666" data-text="a" transform="matrix(12 0 0 -12 687.197 13)"/><use xlink:href="#r" fill="#666" data-text="t" transform="matrix(12 0 0 -12 693.87 13)"/><path fill="none" stroke="#5e81b5" stroke-linecap="square" stroke-miterlimit="3.25" stroke-width="2" d="M796 55.75h17"/><use xlink:href="#l" data-text="4" transform="matrix(13 0 0 -13 822 60)"/><use xlink:href="#U" data-text="" transform="matrix(13 0 0 -13 830.996 60)"/><use xlink:href="#l" data-text="4" transform="matrix(13 0 0 -13 840.98 60)"/><path fill="none" stroke="#e19c24" stroke-linecap="square" stroke-miterlimit="3.25" stroke-width="2" d="M796 78.75h17"/><use xlink:href="#f" data-text="1" transform="matrix(13 0 0 -13 822 83)"/><use xlink:href="#n" data-text="6" transform="matrix(13 0 0 -13 829.228 83)"/><use xlink:href="#U" data-text="" transform="matrix(13 0 0 -13 837.99 83)"/><use xlink:href="#f" data-text="1" transform="matrix(13 0 0 -13 847.987 83)"/><use xlink:href="#n" data-text="6" transform="matrix(13 0 0 -13 855.215 83)"/><path fill="none" stroke="#8fb032" stroke-linecap="square" stroke-miterlimit="3.25" stroke-width="2" d="M796 101.75h17"/><use xlink:href="#j" data-text="2" transform="matrix(13 0 0 -13 822 106)"/><use xlink:href="#i" data-text="5" transform="matrix(13 0 0 -13 829.228 106)"/><use xlink:href="#n" data-text="6" transform="matrix(13 0 0 -13 836.456 106)"/><use xlink:href="#U" data-text="" transform="matrix(13 0 0 -13 845.998 106)"/><use xlink:href="#j" data-text="2" transform="matrix(13 0 0 -13 855.982 106)"/><use xlink:href="#i" data-text="5" transform="matrix(13 0 0 -13 863.21 106)"/><use xlink:href="#n" data-text="6" transform="matrix(13 0 0 -13 870.438 106)"/><path fill="none" stroke="#eb6235" stroke-linecap="square" stroke-miterlimit="3.25" stroke-width="2" d="M796 124.75h17"/><use xlink:href="#n" data-text="6" transform="matrix(13 0 0 -13 822 129)"/><use xlink:href="#i" data-text="5" transform="matrix(13 0 0 -13 829.228 129)"/><use xlink:href="#i" data-text="5" transform="matrix(13 0 0 -13 836.456 129)"/><use xlink:href="#k" data-text="3" transform="matrix(13 0 0 -13 843.684 129)"/><use xlink:href="#n" data-text="6" transform="matrix(13 0 0 -13 850.912 129)"/><use xlink:href="#U" data-text="" transform="matrix(13 0 0 -13 859.986 129)"/><use xlink:href="#n" data-text="6" transform="matrix(13 0 0 -13 869.983 129)"/><use xlink:href="#i" data-text="5" transform="matrix(13 0 0 -13 877.211 129)"/><use xlink:href="#i" data-text="5" transform="matrix(13 0 0 -13 884.44 129)"/><use xlink:href="#k" data-text="3" transform="matrix(13 0 0 -13 891.667 129)"/><use xlink:href="#n" data-text="6" transform="matrix(13 0 0 -13 898.895 129)"/></svg>