<svg xmlns="http://www.w3.org/2000/svg" xmlns:xlink="http://www.w3.org/1999/xlink" width="149.933" height="255.024"><defs><clipPath id="a"><path d="M0 255.024h149.932V0H0Z" clip-rule="evenodd"/></clipPath><clipPath id="b"><path d="M-435.293 510.672h1024v-768h-1024Z"/></clipPath><clipPath id="c"><path d="M75.433 221.5h62.532v-65.288H75.433Z"/></clipPath><clipPath id="d"><path d="M16.937 220.475h62.252v-64.038H16.937Z"/></clipPath><clipPath id="e"><path d="M16.875 159.573H137.98V42.29H16.875Z"/></clipPath><clipPath id="f"><path d="M59.325 110.754H96.57V91.11H59.325Z"/></clipPath><clipPath id="g"><path d="M16.875 159.573H137.98V42.29H16.875Z"/></clipPath><clipPath id="h"><path d="M10.707 28.569h16.68V11.672h-16.68Z"/></clipPath><clipPath id="j"><path d="M129.027 28.569h13.68V2.672h-13.68Z"/></clipPath><clipPath id="l"><path d="M69.928 250.672H84.65v-16.897H69.928Z"/></clipPath><path id="i" d="M.373.378C.355.415.326.442.281.442.164.442.04.295.04.15c0-.094.055-.16.133-.16.02 0 .07.004.13.075A.09.09 0 0 1 .394-.01c.035 0 .058.023.074.055.017.036.03.097.03.1 0 .01-.009.01-.012.01C.476.153.475.148.472.134.455.07.437.011.396.011c-.027 0-.03.026-.03.046 0 .022.002.03.013.074l.022.09.036.14c.007.028.007.03.007.034Q.442.421.415.422C.391.422.376.4.373.378M.308.12C.303.101.303.1.288.082.244.027.203.012.175.012c-.05 0-.064.054-.064.093 0 .05.032.173.055.22C.197.382.242.42.282.42.347.42.361.338.361.332q0-.01-.003-.017z"/><path id="k" d="M.239.683c0 .001 0 .011-.013.011C.203.694.13.686.104.684.096.684.085.682.085.664c0-.012.009-.012.024-.012.048 0 .05-.007.05-.017C.159.628.15.595.145.573L.063.247C.051.197.047.181.047.147.047.05.1-.012.174-.012c.118 0 .241.15.241.293 0 .091-.053.16-.133.16C.236.442.195.413.165.382zM.145.305C.151.327.151.33.16.34c.049.065.094.08.12.08C.316.42.343.39.343.326A.7.7 0 0 0 .292.114C.259.047.213.011.174.011.14.011.107.038.107.112c0 .02 0 .038.016.101z"/><path id="m" d="M.396.38C.38.38.366.38.352.366A.05.05 0 0 1 .334.327c0-.024.018-.035.037-.035.029 0 .056.024.056.064 0 .05-.047.086-.118.086C.174.442.041.3.041.158c0-.09.058-.169.162-.169.143 0 .227.106.227.118Q.429.118.418.12.412.121.405.11C.326.011.217.011.205.011c-.063 0-.09.05-.09.11 0 .04.02.137.054.199.031.057.086.1.141.1C.344.42.382.407.396.38"/></defs><g clip-path="url(#a)"><g fill="#fff" clip-path="url(#b)"><path d="M-435.293 510.672h1024v-768h-1024Z"/><path d="M-435.293-257.328h1024v768h-1024Z"/></g><g clip-path="url(#c)"><path fill="none" stroke="#000" stroke-width="2" d="m77.146 219.798 58.799-59.77-.138-2.766"/></g><g clip-path="url(#d)"><path fill="none" stroke="#000" stroke-width="2" d="m18.937 157.46.055 2.367L77.48 218.77"/></g><g clip-path="url(#e)"><path fill="none" stroke="#000" stroke-width="2" d="M18.875 43.296c.327 59.138 116.526 57.263 117.105 115.267"/></g><g clip-path="url(#f)"><path fill="#fff" d="m60.325 100.932 17.623 8.822 17.622-8.822-17.622-8.823Zm0 0"/></g><g clip-path="url(#g)"><path fill="none" stroke="#000" stroke-width="2" d="M135.98 43.296c-.327 59.138-116.526 57.263-117.105 115.267"/></g><g clip-path="url(#h)"><use xlink:href="#i" data-text="a" transform="matrix(35.86536 0 0 -35.86536 9.622 28.12)"/></g><g clip-path="url(#j)"><use xlink:href="#k" data-text="b" transform="matrix(35.86536 0 0 -35.86536 127.404 27.92)"/></g><g clip-path="url(#l)"><use xlink:href="#m" data-text="c" transform="matrix(35.86536 0 0 -35.86536 68.34 250.12)"/></g></g></svg>