<svg xmlns="http://www.w3.org/2000/svg" xmlns:xlink="http://www.w3.org/1999/xlink" width="192.688" height="229.399"><defs><clipPath id="a"><path d="M0 229.4h192.688V0H0Z" clip-rule="evenodd"/></clipPath><clipPath id="b"><path d="M-416.284 497.615h1024v-768h-1024Z"/></clipPath><clipPath id="c"><path d="M15.276 183.22H98.82V44.92H15.276Z"/></clipPath><clipPath id="d"><path d="M95.387 181.9h80.767V44.976H95.387Z"/></clipPath><clipPath id="e"><path d="M54.273 143.831h42.64v-99.11h-42.64Z"/></clipPath><clipPath id="f"><path d="M8.716 31.615h16.96V14.637H8.715Z"/></clipPath><clipPath id="h"><path d="M87.716 31.615h14V5.637h-14Z"/></clipPath><clipPath id="j"><path d="M166.756 31.615h14.904V14.637h-14.904Z"/></clipPath><clipPath id="l"><path d="M86.716 222.615h18v-26h-18Z"/></clipPath><clipPath id="n"><path d="M50.716 182.415h11v-25.8h-11Z"/></clipPath><path id="g" d="M.373.378C.355.415.326.442.281.442.164.442.04.295.04.15c0-.094.055-.16.133-.16.02 0 .07.004.13.075A.09.09 0 0 1 .394-.01c.035 0 .058.023.074.055.017.036.03.097.03.1 0 .01-.009.01-.012.01C.476.153.475.148.472.134.455.07.437.011.396.011c-.027 0-.03.026-.03.046 0 .022.002.03.013.074l.022.09.036.14c.007.028.007.03.007.034Q.442.421.415.422C.391.422.376.4.373.378M.308.12C.303.101.303.1.288.082.244.027.203.012.175.012c-.05 0-.064.054-.064.093 0 .05.032.173.055.22C.197.382.242.42.282.42.347.42.361.338.361.332q0-.01-.003-.017z"/><path id="i" d="M.239.683c0 .001 0 .011-.013.011C.203.694.13.686.104.684.096.684.085.682.085.664c0-.012.009-.012.024-.012.048 0 .05-.007.05-.017C.159.628.15.595.145.573L.063.247C.051.197.047.181.047.147.047.05.1-.012.174-.012c.118 0 .241.15.241.293 0 .091-.053.16-.133.16C.236.442.195.413.165.382zM.145.305C.151.327.151.33.16.34c.049.065.094.08.12.08C.316.42.343.39.343.326A.7.7 0 0 0 .292.114C.259.047.213.011.174.011.14.011.107.038.107.112c0 .02 0 .038.016.101z"/><path id="k" d="M.396.38C.38.38.366.38.352.366A.05.05 0 0 1 .334.327c0-.024.018-.035.037-.035.029 0 .056.024.056.064 0 .05-.047.086-.118.086C.174.442.041.3.041.158c0-.09.058-.169.162-.169.143 0 .227.106.227.118Q.429.118.418.12.412.121.405.11C.326.011.217.011.205.011c-.063 0-.09.05-.09.11 0 .04.02.137.054.199.031.057.086.1.141.1C.344.42.382.407.396.38"/><path id="m" d="M.516.683c0 .001 0 .011-.013.011-.015 0-.11-.009-.127-.01Q.363.681.362.663c0-.012.009-.012.024-.012.048 0 .05-.007.05-.017L.433.615.373.378C.355.415.326.442.281.442.164.442.04.295.04.15c0-.094.055-.16.133-.16.02 0 .07.004.13.075A.09.09 0 0 1 .394-.01c.035 0 .058.023.074.055.017.036.03.097.03.1 0 .01-.009.01-.012.01C.476.153.475.148.472.134.455.07.437.011.396.011c-.027 0-.03.026-.03.046 0 .024.002.031.006.048zM.308.12C.303.101.303.1.288.082.244.027.203.012.175.012c-.05 0-.064.054-.064.093 0 .05.032.173.055.22C.197.382.242.42.282.42.347.42.361.338.361.332q0-.01-.003-.017z"/><path id="o" d="M.284.625c0 .02-.014.036-.037.036C.22.661.193.635.193.608.193.59.207.572.231.572c.023 0 .053.023.053.053M.208.25.23.307c.008.02.013.034.013.053a.08.08 0 0 1-.082.082C.067.442.029.297.029.288s.01-.01.012-.01c.01 0 .011.002.016.018C.084.39.124.42.158.42.166.42.183.42.183.388A.2.2 0 0 0 .172.336C.164.31.119.194.103.151.093.125.08.092.08.071A.08.08 0 0 1 .162-.01c.094 0 .131.145.131.154s-.009.01-.012.01C.271.153.271.15.266.135.248.072.215.011.164.011Q.139.011.14.044c0 .025.006.04.029.1z"/></defs><g clip-path="url(#a)"><g fill="#fff" clip-path="url(#b)"><path d="M-416.284 497.615h1024v-768h-1024Z"/><path d="M-416.284-270.385h1024v768h-1024Z"/></g><g clip-path="url(#c)"><path fill="none" stroke="#000" stroke-width="2" d="m17.463 45.923-.186 56.808 79.84 78.777"/></g><g clip-path="url(#d)"><path fill="none" stroke="#000" stroke-width="2" d="M174.154 45.976v57.157l-77.06 77.06"/></g><g clip-path="url(#e)"><path fill="none" stroke="#000" stroke-width="2" d="M94.913 45.721v57.47L55.98 142.125"/></g><g clip-path="url(#f)"><use xlink:href="#g" data-text="a" transform="matrix(35.86536 0 0 -35.86536 7.631 31.063)"/></g><g clip-path="url(#h)"><use xlink:href="#i" data-text="b" transform="matrix(35.86536 0 0 -35.86536 86.413 30.863)"/></g><g clip-path="url(#j)"><use xlink:href="#k" data-text="c" transform="matrix(35.86536 0 0 -35.86536 165.348 31.063)"/></g><g clip-path="url(#l)"><use xlink:href="#m" data-text="d" transform="matrix(35.86536 0 0 -35.86536 85.775 221.863)"/></g><g clip-path="url(#n)"><use xlink:href="#o" data-text="i" transform="matrix(35.86536 0 0 -35.86536 50.332 181.263)"/></g></g></svg>