<svg xmlns="http://www.w3.org/2000/svg" xmlns:xlink="http://www.w3.org/1999/xlink" width="185.027" height="223.697"><defs><clipPath id="a"><path d="M0 223.697h185.027V0H0Z" clip-rule="evenodd"/></clipPath><clipPath id="b"><path d="M-419.573 494.506h1024v-768h-1024Z"/></clipPath><clipPath id="c"><path d="M89.324 180.111h83.543v-138.3H89.324Z"/></clipPath><clipPath id="d"><path d="M11.989 178.791h80.767V41.867H11.99Z"/></clipPath><clipPath id="e"><path d="M91.23 140.723h42.64v-99.11H91.23Z"/></clipPath><clipPath id="f"><path d="M6.427 27.506h16.96V10.528H6.427Z"/></clipPath><clipPath id="h"><path d="M85.427 27.506h14V1.528h-14Z"/></clipPath><clipPath id="j"><path d="M164.468 27.506h14.903V10.528h-14.903Z"/></clipPath><clipPath id="l"><path d="M83.427 219.506h18v-26h-18Z"/></clipPath><clipPath id="n"><path d="M123.427 185.506h16v-32h-16Z"/></clipPath><path id="g" d="M.373.378C.355.415.326.442.281.442.164.442.04.295.04.15c0-.094.055-.16.133-.16.02 0 .07.004.13.075A.09.09 0 0 1 .394-.01c.035 0 .058.023.074.055.017.036.03.097.03.1 0 .01-.009.01-.012.01C.476.153.475.148.472.134.455.07.437.011.396.011c-.027 0-.03.026-.03.046 0 .022.002.03.013.074l.022.09.036.14c.007.028.007.03.007.034Q.442.421.415.422C.391.422.376.4.373.378M.308.12C.303.101.303.1.288.082.244.027.203.012.175.012c-.05 0-.064.054-.064.093 0 .05.032.173.055.22C.197.382.242.42.282.42.347.42.361.338.361.332q0-.01-.003-.017z"/><path id="i" d="M.239.683c0 .001 0 .011-.013.011C.203.694.13.686.104.684.096.684.085.682.085.664c0-.012.009-.012.024-.012.048 0 .05-.007.05-.017C.159.628.15.595.145.573L.063.247C.051.197.047.181.047.147.047.05.1-.012.174-.012c.118 0 .241.15.241.293 0 .091-.053.16-.133.16C.236.442.195.413.165.382zM.145.305C.151.327.151.33.16.34c.049.065.094.08.12.08C.316.42.343.39.343.326A.7.7 0 0 0 .292.114C.259.047.213.011.174.011.14.011.107.038.107.112c0 .02 0 .038.016.101z"/><path id="k" d="M.396.38C.38.38.366.38.352.366A.05.05 0 0 1 .334.327c0-.024.018-.035.037-.035.029 0 .056.024.056.064 0 .05-.047.086-.118.086C.174.442.041.3.041.158c0-.09.058-.169.162-.169.143 0 .227.106.227.118Q.429.118.418.12.412.121.405.11C.326.011.217.011.205.011c-.063 0-.09.05-.09.11 0 .04.02.137.054.199.031.057.086.1.141.1C.344.42.382.407.396.38"/><path id="m" d="M.516.683c0 .001 0 .011-.013.011-.015 0-.11-.009-.127-.01Q.363.681.362.663c0-.012.009-.012.024-.012.048 0 .05-.007.05-.017L.433.615.373.378C.355.415.326.442.281.442.164.442.04.295.04.15c0-.094.055-.16.133-.16.02 0 .07.004.13.075A.09.09 0 0 1 .394-.01c.035 0 .058.023.074.055.017.036.03.097.03.1 0 .01-.009.01-.012.01C.476.153.475.148.472.134.455.07.437.011.396.011c-.027 0-.03.026-.03.046 0 .024.002.031.006.048zM.308.12C.303.101.303.1.288.082.244.027.203.012.175.012c-.05 0-.064.054-.064.093 0 .05.032.173.055.22C.197.382.242.42.282.42.347.42.361.338.361.332q0-.01-.003-.017z"/><path id="o" d="M.397.625c0 .02-.014.036-.038.036C.336.661.306.638.306.608c0-.02.014-.036.037-.036.027 0 .054.026.054.053M.196-.05C.177-.126.129-.183.073-.183c-.006 0-.021 0-.039.009.03.007.045.033.045.053 0 .016-.011.035-.038.035a.056.056 0 0 1-.054-.057c0-.04.04-.062.088-.062.07 0 .163.053.188.152l.092.366Q.361.344.36.35a.09.09 0 0 1-.092.092C.166.442.109.297.109.288s.01-.01.012-.01c.009 0 .01.001.018.02C.164.36.21.42.265.42.279.42.297.416.297.374.297.351.294.34.29.324z"/></defs><g clip-path="url(#a)"><g fill="#fff" clip-path="url(#b)"><path d="M-419.573 494.506h1024v-768h-1024Z"/><path d="M-419.573-273.494h1024v768h-1024Z"/></g><g clip-path="url(#c)"><path fill="none" stroke="#000" stroke-width="2" d="m170.68 42.814.186 56.809-79.84 78.777"/></g><g clip-path="url(#d)"><path fill="none" stroke="#000" stroke-width="2" d="M13.989 42.867v57.157l77.06 77.06"/></g><g clip-path="url(#e)"><path fill="none" stroke="#000" stroke-width="2" d="M93.23 42.613v57.47l38.933 38.933"/></g><g clip-path="url(#f)"><use xlink:href="#g" data-text="a" transform="matrix(35.86536 0 0 -35.86536 5.343 26.954)"/></g><g clip-path="url(#h)"><use xlink:href="#i" data-text="b" transform="matrix(35.86536 0 0 -35.86536 84.124 26.754)"/></g><g clip-path="url(#j)"><use xlink:href="#k" data-text="c" transform="matrix(35.86536 0 0 -35.86536 163.06 26.954)"/></g><g clip-path="url(#l)"><use xlink:href="#m" data-text="d" transform="matrix(35.86536 0 0 -35.86536 82.487 218.754)"/></g><g clip-path="url(#n)"><use xlink:href="#o" data-text="j" transform="matrix(35.86536 0 0 -35.86536 124.408 178.154)"/></g></g></svg>