<svg xmlns="http://www.w3.org/2000/svg" xmlns:xlink="http://www.w3.org/1999/xlink" width="154.211" height="202.968"><defs><clipPath id="a"><path d="M0 202.968h154.212V0H0Z" clip-rule="evenodd"/></clipPath><clipPath id="b"><path d="M-433.744 485.278h1024v-768h-1024Z"/></clipPath><clipPath id="c"><path d="M12.255 33.278h16.68V16.502h-16.68Z"/></clipPath><clipPath id="e"><path d="M130.576 33.278h13.68V7.502h-13.68Z"/></clipPath><clipPath id="g"><path d="M71.476 195.054h14.723v-16.776H71.476Z"/></clipPath><clipPath id="i"><path d="M17.133 166.032h63.988V47.808H17.133Z"/></clipPath><clipPath id="j"><path d="M76.83 166.032h63.988V47.808H76.831Z"/></clipPath><path id="d" d="M.373.378C.355.415.326.442.281.442.164.442.04.295.04.15c0-.094.055-.16.133-.16.02 0 .07.004.13.075A.09.09 0 0 1 .394-.01c.035 0 .058.023.074.055.017.036.03.097.03.1 0 .01-.009.01-.012.01C.476.153.475.148.472.134.455.07.437.011.396.011c-.027 0-.03.026-.03.046 0 .022.002.03.013.074l.022.09.036.14c.007.028.007.03.007.034Q.442.421.415.422C.391.422.376.4.373.378M.308.12C.303.101.303.1.288.082.244.027.203.012.175.012c-.05 0-.064.054-.064.093 0 .05.032.173.055.22C.197.382.242.42.282.42.347.42.361.338.361.332q0-.01-.003-.017z"/><path id="f" d="M.239.683c0 .001 0 .011-.013.011C.203.694.13.686.104.684.096.684.085.682.085.664c0-.012.009-.012.024-.012.048 0 .05-.007.05-.017C.159.628.15.595.145.573L.063.247C.051.197.047.181.047.147.047.05.1-.012.174-.012c.118 0 .241.15.241.293 0 .091-.053.16-.133.16C.236.442.195.413.165.382zM.145.305C.151.327.151.33.16.34c.049.065.094.08.12.08C.316.42.343.39.343.326A.7.7 0 0 0 .292.114C.259.047.213.011.174.011.14.011.107.038.107.112c0 .02 0 .038.016.101z"/><path id="h" d="M.396.38C.38.38.366.38.352.366A.05.05 0 0 1 .334.327c0-.024.018-.035.037-.035.029 0 .056.024.056.064 0 .05-.047.086-.118.086C.174.442.041.3.041.158c0-.09.058-.169.162-.169.143 0 .227.106.227.118Q.429.118.418.12.412.121.405.11C.326.011.217.011.205.011c-.063 0-.09.05-.09.11 0 .04.02.137.054.199.031.057.086.1.141.1C.344.42.382.407.396.38"/></defs><g clip-path="url(#a)"><g fill="#fff" clip-path="url(#b)"><path d="M-433.744 485.278h1024v-768h-1024Z"/><path d="M-433.744-282.722h1024v768h-1024Z"/></g><g clip-path="url(#c)"><use xlink:href="#d" data-text="a" transform="matrix(35.86536 0 0 -35.86536 11.17 32.727)"/></g><g clip-path="url(#e)"><use xlink:href="#f" data-text="b" transform="matrix(35.86536 0 0 -35.86536 128.953 32.527)"/></g><g clip-path="url(#g)"><use xlink:href="#h" data-text="c" transform="matrix(35.86536 0 0 -35.86536 69.888 194.727)"/></g><g clip-path="url(#i)"><path fill="none" stroke="#000" stroke-width="2" d="m18.83 49.524 60.29 58.692v56.816"/></g><g clip-path="url(#j)"><path fill="none" stroke="#000" stroke-width="2" d="m139.12 49.524-60.29 58.692v56.816"/></g></g></svg>