<svg xmlns="http://www.w3.org/2000/svg" xmlns:xlink="http://www.w3.org/1999/xlink" width="736.207" height="253.233"><defs><clipPath id="a"><path d="M0 253.233h736.207V0H0Z" clip-rule="evenodd"/></clipPath><clipPath id="b"><path d="M-69.645 511.137h960v-540h-960Z"/></clipPath><clipPath id="c"><path d="M-69.645 511.137h960v-540h-960Z"/></clipPath><clipPath id="d"><path d="M-69.645 511.137h960v-540h-960Z"/></clipPath><clipPath id="f"><path d="M-69.645 511.137h960v-540h-960Z"/></clipPath><clipPath id="g"><path d="M-69.645 511.137h960v-540h-960Z"/></clipPath><clipPath id="h"><path d="M-69.645 511.137h960v-540h-960Z"/></clipPath><clipPath id="i"><path d="M-69.645 511.137h960v-540h-960Z"/></clipPath><clipPath id="j"><path d="M-69.645 511.137h960v-540h-960Z"/></clipPath><clipPath id="k"><path d="M-69.645 511.137h960v-540h-960Z"/></clipPath><clipPath id="m"><path d="M-69.645 511.137h960v-540h-960Z"/></clipPath><clipPath id="o"><path d="M-69.645 511.137h960v-540h-960Z"/></clipPath><clipPath id="p"><path d="M-69.645 511.137h960v-540h-960Z"/></clipPath><clipPath id="r"><path d="M-69.645 511.137h960v-540h-960Z"/></clipPath><clipPath id="t"><path d="M-69.645 511.137h960v-540h-960Z"/></clipPath><clipPath id="u"><path d="M-69.645 511.137h960v-540h-960Z"/></clipPath><clipPath id="w"><path d="M-69.645 511.137h960v-540h-960Z"/></clipPath><clipPath id="y"><path d="M-69.645 511.137h960v-540h-960Z"/></clipPath><clipPath id="A"><path d="M-69.645 511.137h960v-540h-960Z"/></clipPath><clipPath id="C"><path d="M-69.645 511.137h960v-540h-960Z"/></clipPath><clipPath id="E"><path d="M-69.645 511.137h960v-540h-960Z"/></clipPath><clipPath id="G"><path d="M-69.645 511.137h960v-540h-960Z"/></clipPath><clipPath id="I"><path d="M-69.645 511.137h960v-540h-960Z"/></clipPath><clipPath id="J"><path d="M-69.645 511.137h960v-540h-960Z"/></clipPath><clipPath id="K"><path d="M-69.645 511.137h960v-540h-960Z"/></clipPath><clipPath id="L"><path d="M-69.645 511.137h960v-540h-960Z"/></clipPath><clipPath id="N"><path d="M-69.645 511.137h960v-540h-960Z"/></clipPath><clipPath id="O"><path d="M-69.645 511.137h960v-540h-960Z"/></clipPath><clipPath id="Q"><path d="M-69.645 511.137h960v-540h-960Z"/></clipPath><clipPath id="R"><path d="M-69.645 511.137h960v-540h-960Z"/></clipPath><clipPath id="S"><path d="M-69.645 511.137h960v-540h-960Z"/></clipPath><clipPath id="T"><path d="M-69.645 511.137h960v-540h-960Z"/></clipPath><clipPath id="U"><path d="M-69.645 511.137h960v-540h-960Z"/></clipPath><clipPath id="V"><path d="M-69.645 511.137h960v-540h-960Z"/></clipPath><clipPath id="W"><path d="M-69.645 511.137h960v-540h-960Z"/></clipPath><clipPath id="X"><path d="M-69.645 511.137h960v-540h-960Z"/></clipPath><clipPath id="Y"><path d="M-69.645 511.137h960v-540h-960Z"/></clipPath><clipPath id="Z"><path d="M-69.645 511.137h960v-540h-960Z"/></clipPath><clipPath id="aa"><path d="M-69.645 511.137h960v-540h-960Z"/></clipPath><clipPath id="ab"><path d="M-69.645 511.137h960v-540h-960Z"/></clipPath><clipPath id="ac"><path d="M-69.645 511.137h960v-540h-960Z"/></clipPath><clipPath id="ad"><path d="M-69.645 511.137h960v-540h-960Z"/></clipPath><path id="e" d="M.519.447V.376h-.19A.3.3 0 0 0 .43.286.2.2 0 0 0 .47.17.16.16 0 0 0 .406.04.216.216 0 0 0 .103.06a.25.25 0 0 0-.069.172.21.21 0 0 0 .12.196q.047.02.128.02zM.296.375H.279A.18.18 0 0 1 .162.34Q.118.303.118.226q0-.083.046-.146Q.21.017.271.017q.05 0 .082.047A.2.2 0 0 1 .385.18q0 .107-.09.197"/><path id="l" d="M.17.39h.002A.4.4 0 0 0 .23.44a.158.158 0 0 0 .1.033.15.15 0 0 0 .09-.026.17.17 0 0 0 .057-.08.4.4 0 0 0 .02-.13.3.3 0 0 0-.024-.135.18.18 0 0 0-.07-.083.2.2 0 0 0-.112-.028.3.3 0 0 0-.135.03L.12-.008.086 0v.596L.082.628a.1.1 0 0 1-.009.02.04.04 0 0 1-.015.012.2.2 0 0 1-.035.008v.026l.119.005H.17zm0-.214q0-.037.004-.06A.09.09 0 0 1 .209.052.1.1 0 0 1 .243.035.2.2 0 0 1 .286.031q.058 0 .089.048t.03.143q0 .097-.028.145a.09.09 0 0 1-.083.049.1.1 0 0 1-.047-.009.1.1 0 0 1-.04-.026A.1.1 0 0 1 .18.345.1.1 0 0 1 .17.305z"/><path id="n" d="M.33.07.322.072A.3.3 0 0 0 .242.01a.2.2 0 0 0-.079-.018.14.14 0 0 0-.065.015.1.1 0 0 0-.044.04.1.1 0 0 0-.015.06q0 .072.07.11a.5.5 0 0 0 .212.046v.031q0 .051-.01.08a.1.1 0 0 1-.03.043.1.1 0 0 1-.056.014.1.1 0 0 1-.062-.02.12.12 0 0 1-.035-.06H.064v.064a.452.452 0 0 0 .204.06A.2.2 0 0 0 .347.46.1.1 0 0 0 .39.413.24.24 0 0 0 .405.317v-.17L.408.068a.1.1 0 0 1 .008-.02A.04.04 0 0 1 .43.035L.46.024V0H.328zM.32.223A.34.34 0 0 1 .173.196Q.123.171.123.12q0-.029.012-.044A.06.06 0 0 1 .163.053a.1.1 0 0 1 .04-.006q.034 0 .06.016a.1.1 0 0 1 .043.041q.015.026.015.05z"/><path id="q" d="M.411.456V.354H.35a.2.2 0 0 1-.02.05A.1.1 0 0 1 .3.429a.1.1 0 0 1-.04.008A.1.1 0 0 1 .2.415.15.15 0 0 1 .158.348a.454.454 0 0 1-.01-.186.2.2 0 0 1 .02-.059.1.1 0 0 1 .038-.038A.1.1 0 0 1 .264.05a.2.2 0 0 1 .063.013.2.2 0 0 1 .06.047L.415.079A.4.4 0 0 0 .371.036a.2.2 0 0 0-.13-.044q-.092 0-.14.061A.28.28 0 0 0 .05.23q0 .073.028.129a.2.2 0 0 0 .19.116.6.6 0 0 0 .142-.02"/><path id="s" d="M.34.127Q.34.1.342.085A.1.1 0 0 1 .353.06.1.1 0 0 1 .378.047L.415.04l.06-.003V0h-.36v.036a1 1 0 0 1 .077.006.1.1 0 0 1 .036.013.05.05 0 0 1 .017.023q.006.015.006.05v.395q0 .02-.007.029-.006.009-.02.009A.1.1 0 0 1 .18.545L.108.5.087.538l.228.136h.027L.34.544z"/><path id="v" d="M.286.067Q.202-.007.136-.007a.09.09 0 0 0-.091.09q0 .053.045.095a.9.9 0 0 0 .196.111v.046A.2.2 0 0 1 .28.4a.05.05 0 0 1-.021.024.1.1 0 0 1-.035.01A.1.1 0 0 1 .17.419Q.16.411.16.4q0-.01.013-.025.02-.021.019-.041a.05.05 0 0 0-.018-.04.07.07 0 0 0-.047-.018.07.07 0 0 0-.051.019.06.06 0 0 0-.02.043q0 .036.027.068A.2.2 0 0 0 .16.454.3.3 0 0 0 .263.47.17.17 0 0 0 .366.443a.13.13 0 0 0 .049-.06A.4.4 0 0 0 .422.29V.11q0-.03.002-.04L.432.06l.01-.004q.014 0 .027.018L.483.062A.2.2 0 0 0 .433.01a.1.1 0 0 0-.06-.017.1.1 0 0 0-.06.019.1.1 0 0 0-.027.055m0 .037v.152A.3.3 0 0 1 .198.182a.1.1 0 0 1-.02-.054q0-.022.017-.04A.04.04 0 0 1 .229.075q.024 0 .057.029"/><path id="x" d="M.21.662v-.25Q.268.47.336.47.383.47.425.443A.2.2 0 0 0 .49.365.3.3 0 0 0 .513.247q0-.075-.03-.136a.206.206 0 0 0-.26-.113.2.2 0 0 0-.056.038l-.075-.05H.075v.581a.2.2 0 0 1-.003.05.04.04 0 0 1-.016.02.1.1 0 0 1-.035.008v.017zm0-.294V.164A1 1 0 0 1 .212.085.1.1 0 0 1 .237.038.07.07 0 0 1 .284.021Q.31.02.327.035t.03.056a.6.6 0 0 1 .012.151q0 .106-.027.145a.06.06 0 0 1-.051.028q-.042 0-.08-.047"/><path id="z" d="M.406.118.421.106a.23.23 0 0 0-.08-.09.2.2 0 0 0-.102-.03q-.092 0-.146.07A.26.26 0 0 0 .038.22q0 .093.05.164.06.086.165.086A.17.17 0 0 0 .366.435Q.408.399.408.355A.06.06 0 0 0 .39.311.06.06 0 0 0 .347.294a.06.06 0 0 0-.048.019Q.281.333.276.381.273.411.262.424a.04.04 0 0 1-.027.013q-.023 0-.04-.025A.2.2 0 0 1 .17.296q0-.064.02-.123A.2.2 0 0 1 .247.085.1.1 0 0 1 .31.065q.024 0 .045.01a.2.2 0 0 1 .051.043"/><path id="B" d="M.196-.21H.12v.909h.075z"/><path id="D" d="M.293-.008q-.12 0-.178.083a.45.45 0 0 0-.057.252.44.44 0 0 0 .064.258q.065.09.18.09.12 0 .179-.082A.43.43 0 0 0 .54.343.45.45 0 0 0 .477.08a.21.21 0 0 0-.184-.089m-.086.35q0-.108.01-.172a.2.2 0 0 1 .03-.093A.06.06 0 0 1 .3.047q.018 0 .032.009a.1.1 0 0 1 .025.028q.011.02.019.051a1 1 0 0 1 .011.08 1.5 1.5 0 0 1-.003.253.4.4 0 0 1-.019.092.1.1 0 0 1-.029.046A.06.06 0 0 1 .3.62.06.06 0 0 1 .244.59.2.2 0 0 1 .215.497 1 1 0 0 1 .207.341"/><path id="F" d="M.104.701.299.263V.227l-.195-.44-.052.02.156.438-.156.439z"/><path id="H" d="m.117.598.161.078h.016V.117q0-.055.005-.07a.04.04 0 0 1 .02-.02.2.2 0 0 1 .059-.008V0h-.25v.019q.048 0 .061.008a.04.04 0 0 1 .02.019.3.3 0 0 1 .005.071v.358a1 1 0 0 1-.005.092.04.04 0 0 1-.012.023.03.03 0 0 1-.022.007.1.1 0 0 1-.05-.015z"/><path id="M" d="M.395.136q0-.028.003-.042A.1.1 0 0 1 .408.07.1.1 0 0 1 .433.056L.47.048.53.044V0H.11v.044a1 1 0 0 1 .077.007.1.1 0 0 1 .035.012.05.05 0 0 1 .018.024Q.246.1.246.137v.352q0 .02-.008.03a.03.03 0 0 1-.02.008.1.1 0 0 1-.035-.011A1 1 0 0 1 .11.47L.08.52l.255.153h.062L.395.544z"/><path id="P" d="M.34-.007.293-.21H.217l.045.205Q.08.012.08.149q0 .037.016.103l.015.06a.3.3 0 0 1 .012.07q0 .02-.007.028Q.108.42.096.418a.05.05 0 0 1-.03-.01L.04.386.012.412Q.048.447.075.46.103.475.13.475q.036 0 .056-.022t.02-.064A.4.4 0 0 0 .194.31L.176.238A1 1 0 0 1 .162.145q0-.051.028-.077A.14.14 0 0 1 .272.037l.142.648h.077L.35.038a.22.22 0 0 1 .199.144.37.37 0 0 1 .01.26l.005.025H.65A.491.491 0 0 0 .618.185.305.305 0 0 0 .34-.007"/></defs><g clip-path="url(#a)"><g clip-path="url(#b)"><path fill="#fff" fill-rule="evenodd" d="M-69.645 511.137h960v-540h-960Z"/></g><g fill="none" stroke="#000" stroke-miterlimit="10" stroke-width="2.28" clip-path="url(#c)"><path d="m13.575 26.637 130.41 152.14M70.655 26.637l-26.12 35.55M169.265 26.637l-74.81 92.82M144.615 178.797v40.24"/></g><g clip-path="url(#d)"><use xlink:href="#e" data-text="σ" transform="matrix(27.96 0 0 -27.96 3.795 20.507)"/></g><g clip-path="url(#f)"><use xlink:href="#e" data-text="σ" transform="matrix(27.96 0 0 -27.96 61.775 20.507)"/></g><g clip-path="url(#g)"><use xlink:href="#e" data-text="σ" transform="matrix(27.96 0 0 -27.96 101.495 20.507)"/></g><g clip-path="url(#h)"><use xlink:href="#e" data-text="σ" transform="matrix(27.96 0 0 -27.96 158.615 20.507)"/></g><g clip-path="url(#i)"><use xlink:href="#e" data-text="σ" transform="matrix(27.96 0 0 -27.96 194.735 20.507)"/></g><g clip-path="url(#j)"><use xlink:href="#e" data-text="σ" transform="matrix(27.96 0 0 -27.96 258.845 20.507)"/></g><g clip-path="url(#k)"><use xlink:href="#l" data-text="b" transform="matrix(27.984 0 0 -27.984 128.815 103.907)"/></g><g clip-path="url(#m)"><use xlink:href="#n" data-text="a" transform="matrix(27.984 0 0 -27.984 47.975 103.907)"/></g><g fill="none" stroke="#000" stroke-miterlimit="10" stroke-width="2.28" clip-path="url(#o)"><path d="m109.935 26.637 28.35 36.35M271.355 26.637l-127.46 152.14M203.295 27.477l34.02 39.69"/></g><g clip-path="url(#p)"><use xlink:href="#q" data-text="c" transform="matrix(27.984 0 0 -27.984 184.445 103.907)"/></g><g clip-path="url(#r)"><use xlink:href="#s" data-text="1" transform="matrix(27.96 0 0 -27.96 138.985 248.917)"/></g><g clip-path="url(#t)"><path fill="#e7e6e6" fill-rule="evenodd" d="M314.965 68.207h103.85v-40.4h-103.85ZM418.815 68.207h103.85v-40.4h-103.85ZM522.665 68.207h103.85v-40.4h-103.85Z"/><path fill="#e7e6e6" fill-rule="evenodd" d="M626.505 68.207h103.85v-40.4h-103.85ZM314.965 108.597h103.85v-40.4h-103.85Z"/><path fill="#fff" fill-rule="evenodd" d="M418.815 108.597h103.85v-40.4h-103.85ZM522.665 108.597h103.85v-40.4h-103.85Z"/><path fill="#fff" fill-rule="evenodd" d="M626.505 108.597h103.85v-40.4h-103.85Z"/><path fill="#e7e6e6" fill-rule="evenodd" d="M314.965 148.997h103.85v-40.4h-103.85Z"/><path fill="#fff" fill-rule="evenodd" d="M418.815 148.997h103.85v-40.4h-103.85ZM522.665 148.997h103.85v-40.4h-103.85Z"/><path fill="#fff" fill-rule="evenodd" d="M626.505 148.997h103.85v-40.4h-103.85Z"/><path fill="#e7e6e6" fill-rule="evenodd" d="M314.965 189.397h103.85v-40.4h-103.85Z"/><path fill="#fff" fill-rule="evenodd" d="M418.815 189.397h103.85v-40.4h-103.85ZM522.665 189.397h103.85v-40.4h-103.85Z"/><path fill="#fff" fill-rule="evenodd" d="M626.505 189.397h103.85v-40.4h-103.85Z"/><path fill="#e7e6e6" fill-rule="evenodd" d="M314.965 229.797h103.85v-40.4h-103.85Z"/><path fill="#fff" fill-rule="evenodd" d="M418.815 229.797h103.85v-40.4h-103.85ZM522.665 229.797h103.85v-40.4h-103.85Z"/><path fill="#fff" fill-rule="evenodd" d="M626.505 229.797h103.85v-40.4h-103.85Z"/><path fill="none" stroke="#000" stroke-linejoin="round" d="M418.815 27.307v202.99M522.665 27.307v202.99M626.505 27.307v202.99M314.465 68.207h416.39M314.465 108.597h416.39M314.465 148.997h416.39M314.465 189.397h416.39M314.965 27.307v202.99M730.355 27.307v202.99M314.465 27.807h416.39M314.465 229.797h416.39"/></g><g clip-path="url(#u)"><use xlink:href="#v" data-text="a" transform="matrix(24 0 0 -24 464.765 54.587)"/></g><g clip-path="url(#w)"><use xlink:href="#x" data-text="b" transform="matrix(24 0 0 -24 568.015 54.587)"/></g><g clip-path="url(#y)"><use xlink:href="#z" data-text="c" transform="matrix(24 0 0 -24 673.205 54.587)"/></g><g clip-path="url(#A)"><use xlink:href="#B" data-text="|" transform="matrix(24 0 0 -24 341.785 94.397)"/></g><g clip-path="url(#C)"><use xlink:href="#D" data-text="𝟎" transform="matrix(24 0 0 -24 349.465 94.397)"/><use xlink:href="#D" data-text="𝟎" transform="matrix(24 0 0 -24 363.865 94.397)"/></g><g clip-path="url(#E)"><use xlink:href="#F" data-text="〉" transform="matrix(24 0 0 -24 383.545 94.397)"/></g><g clip-path="url(#G)"><use xlink:href="#H" data-text="1" transform="matrix(24 0 0 -24 464.765 94.997)"/></g><g clip-path="url(#I)"><use xlink:href="#H" data-text="1" transform="matrix(24 0 0 -24 568.615 94.997)"/></g><g clip-path="url(#J)"><use xlink:href="#H" data-text="1" transform="matrix(24 0 0 -24 672.485 94.997)"/></g><g clip-path="url(#K)"><use xlink:href="#B" data-text="|" transform="matrix(24 0 0 -24 341.785 134.797)"/></g><g clip-path="url(#L)"><use xlink:href="#M" data-text="𝟏" transform="matrix(24 0 0 -24 349.465 134.797)"/><use xlink:href="#D" data-text="𝟎" transform="matrix(24 0 0 -24 363.865 134.797)"/></g><g clip-path="url(#N)"><use xlink:href="#F" data-text="〉" transform="matrix(24 0 0 -24 383.545 134.797)"/></g><g clip-path="url(#O)"><use xlink:href="#P" data-text="𝜓" transform="matrix(24 0 0 -24 459.245 135.397)"/></g><g clip-path="url(#Q)"><use xlink:href="#P" data-text="𝜓" transform="matrix(24 0 0 -24 563.095 135.397)"/></g><g clip-path="url(#R)"><use xlink:href="#H" data-text="1" transform="matrix(24 0 0 -24 672.485 135.397)"/></g><g clip-path="url(#S)"><use xlink:href="#B" data-text="|" transform="matrix(24 0 0 -24 341.785 175.207)"/></g><g clip-path="url(#T)"><use xlink:href="#D" data-text="𝟎" transform="matrix(24 0 0 -24 349.465 175.207)"/><use xlink:href="#M" data-text="𝟏" transform="matrix(24 0 0 -24 363.865 175.207)"/></g><g clip-path="url(#U)"><use xlink:href="#F" data-text="〉" transform="matrix(24 0 0 -24 383.545 175.207)"/></g><g clip-path="url(#V)"><use xlink:href="#H" data-text="1" transform="matrix(24 0 0 -24 464.765 175.807)"/></g><g clip-path="url(#W)"><use xlink:href="#P" data-text="𝜓" transform="matrix(24 0 0 -24 563.095 175.807)"/></g><g clip-path="url(#X)"><use xlink:href="#P" data-text="𝜓" transform="matrix(24 0 0 -24 666.965 175.807)"/></g><g clip-path="url(#Y)"><use xlink:href="#B" data-text="|" transform="matrix(24 0 0 -24 341.785 215.627)"/></g><g clip-path="url(#Z)"><use xlink:href="#M" data-text="𝟏" transform="matrix(24 0 0 -24 349.465 215.627)"/><use xlink:href="#M" data-text="𝟏" transform="matrix(24 0 0 -24 363.865 215.627)"/></g><g clip-path="url(#aa)"><use xlink:href="#F" data-text="〉" transform="matrix(24 0 0 -24 383.545 215.627)"/></g><g clip-path="url(#ab)"><use xlink:href="#P" data-text="𝜓" transform="matrix(24 0 0 -24 459.245 216.227)"/></g><g clip-path="url(#ac)"><use xlink:href="#H" data-text="1" transform="matrix(24 0 0 -24 568.615 216.227)"/></g><g clip-path="url(#ad)"><use xlink:href="#P" data-text="𝜓" transform="matrix(24 0 0 -24 666.965 216.227)"/></g></g></svg>