<svg xmlns="http://www.w3.org/2000/svg" xmlns:xlink="http://www.w3.org/1999/xlink" width="97.95" height="69.12"><defs><path id="a" d="M.334.302C.34.328.363.42.433.42c.005 0 .029 0 .05-.013A.06.06 0 0 1 .435.353c0-.016.011-.035.038-.035.022 0 .054.018.054.058 0 .052-.059.066-.093.066C.376.442.341.39.329.366a.11.11 0 0 1-.108.076C.117.442.06.313.06.288c0-.01.01-.01.012-.01Q.083.277.085.29c.034.106.1.131.134.131C.238.42.273.411.273.353.273.323.256.255.219.115.203.053.168.011.124.011c-.006 0-.029 0-.05.013C.099.03.121.05.121.078c0 .027-.022.035-.037.035A.057.057 0 0 1 .029.055c0-.046.05-.066.094-.066.066 0 .102.07.105.076A.11.11 0 0 1 .336-.01c.103 0 .16.13.16.154 0 .01-.009.01-.012.01q-.012 0-.013-.01C.438.034.37.01.338.01.299.011.283.043.283.077.283.1.289.121.3.165z"/><path id="b" d="M.324.625a.04.04 0 0 1-.04.038C.257.663.228.637.228.608.228.591.241.57.268.57c.029 0 .056.028.056.055M.12.117Q.113.1.111.075c0-.047.04-.085.095-.085.1 0 .144.138.144.153C.35.156.337.156.334.156.32.156.319.15.315.14.292.06.248.02.209.02.189.018.184.03.184.052Q.185.086.2.117l.032.08.049.127a.1.1 0 0 1 .006.032c0 .047-.04.085-.095.085C.093.441.047.305.047.288c0-.013.014-.013.017-.013.014 0 .015.005.018.016.026.086.07.122.107.122.016 0 .025-.008.025-.035C.214.355.208.34.183.278z"/><path id="c" d="M.439.625a.04.04 0 0 1-.04.038C.37.663.343.635.343.608.343.592.355.57.383.57.41.57.439.596.439.625M.227-.049C.21-.118.157-.176.098-.176a.1.1 0 0 0-.036.006.06.06 0 0 1 .034.051c0 .024-.019.037-.039.037A.06.06 0 0 1 0-.141c0-.038.039-.063.099-.063s.177.036.208.158l.09.358C.4.323.402.332.402.347c0 .055-.047.094-.107.094C.184.441.12.302.12.288S.134.275.137.275c.012 0 .013.003.02.018.025.058.077.12.135.12q.036 0 .034-.049L.323.334z"/></defs><path fill="none" stroke="#000" stroke-miterlimit="10" stroke-width=".399" d="M61.34 35.958c0-17.008-14.173-28.347-28.346-28.347S4.647 18.95 4.647 35.958m34.016 0c0 17.008 14.173 28.347 28.347 28.347 14.173 0 28.347-11.339 28.347-28.347"/><path fill="#fff" d="M51.995 13.28a1.993 1.993 0 1 0-3.985 0 1.993 1.993 0 0 0 3.985 0m0 45.356a1.993 1.993 0 1 0-3.985 0 1.993 1.993 0 0 0 3.985 0m-1.993 0"/><path fill="none" stroke="#fff" stroke-miterlimit="10" stroke-width=".399" d="M51.995 13.28a1.993 1.993 0 1 0-3.985 0 1.993 1.993 0 0 0 3.985 0Zm0 45.356a1.993 1.993 0 1 0-3.985 0 1.993 1.993 0 0 0 3.985 0Zm-1.993 0"/><path fill="none" stroke="#000" stroke-miterlimit="10" stroke-width=".399" d="M95.357 35.958c0-17.008-14.174-28.347-28.347-28.347S38.663 18.95 38.663 35.958m-34.016 0c0 17.008 14.173 28.347 28.347 28.347 14.173 0 28.347-11.339 28.347-28.347"/><path d="m67.577 7.611 3.57 1.346-1.173-1.346 1.174-1.345Z"/><path fill="none" stroke="#000" stroke-miterlimit="10" stroke-width=".399" d="m67.577 7.611 3.57 1.346-1.173-1.346 1.174-1.345Z"/><path d="m32.427 64.305-3.571-1.346 1.174 1.346-1.174 1.346Z"/><path fill="none" stroke="#000" stroke-miterlimit="10" stroke-width=".399" d="m32.427 64.305-3.571-1.346 1.174 1.346-1.174 1.346Z"/><path d="m67.577 7.611 3.57 1.346-1.173-1.346 1.174-1.345Z"/><path fill="none" stroke="#000" stroke-miterlimit="10" stroke-width=".399" d="m67.577 7.611 3.57 1.346-1.173-1.346 1.174-1.345Z"/><path d="m32.427 64.305-3.571-1.346 1.174 1.346-1.174 1.346Z"/><path fill="none" stroke="#000" stroke-miterlimit="10" stroke-width=".399" d="m32.427 64.305-3.571-1.346 1.174 1.346-1.174 1.346Z"/><use xlink:href="#a" data-text="x" transform="matrix(9.9626 0 0 -9.9626 5.811 64.305)"/><use xlink:href="#b" data-text="i" transform="matrix(6.9738 0 0 -6.9738 11.505 65.799)"/><use xlink:href="#a" data-text="x" transform="matrix(9.9626 0 0 -9.9626 84.741 7.611)"/><use xlink:href="#c" data-text="j" transform="matrix(6.9738 0 0 -6.9738 90.435 9.105)"/></svg>