<svg xmlns="http://www.w3.org/2000/svg" xmlns:xlink="http://www.w3.org/1999/xlink" width="522" height="290"><defs><path id="a" d="M.398.156C.35.086.314.062.257.062c-.092 0-.155.08-.155.195 0 .104.055.174.136.174.036 0 .049-.01.059-.048L.303.361Q.317.316.351.315c.026 0 .047.019.047.042C.398.413.328.46.244.46.195.46.144.44.103.404A.25.25 0 0 1 .025.212c0-.129.079-.222.19-.222a.18.18 0 0 1 .121.047.3.3 0 0 1 .076.11z"/><path id="b" d="M.25.46C.119.46.029.364.029.226.029.09.122-.01.248-.01S.47.095.47.234C.47.366.378.46.25.46M.237.432C.321.432.38.336.38.199.38.085.335.02.26.02a.11.11 0 0 0-.097.063.4.4 0 0 0-.044.193c0 .095.046.157.118.157"/><path id="c" d="M.018 0H.23v.015C.18.018.164.031.164.067v.281c.048.045.07.057.103.057Q.34.406.34.308V.099C.338.034.326.018.277.015V0h.208v.015C.436.02.425.032.424.081V.31C.424.404.38.46.306.46.26.46.229.443.161.379v.079L.154.46A2 2 0 0 0 .016.415V.398a.1.1 0 0 0 .027.004C.071.402.08.387.08.338V.09C.079.031.068.018.018.015z"/><path id="d" d="M.491.058H.468c-.035 0-.044.01-.044.056v.567L.419.683A2 2 0 0 0 .272.639V.623h.022C.331.624.34.615.34.574V.417C.302.449.275.46.235.46.12.46.027.347.027.205c0-.128.074-.215.185-.215.056 0 .094.02.128.067v-.064L.344-.01l.147.052zM.34.102Q.339.09.323.072a.1.1 0 0 0-.072-.03c-.084 0-.138.08-.138.204 0 .112.049.186.125.186a.104.104 0 0 0 .102-.1z"/><path id="e" d="M.408.164C.36.088.317.06.253.06Q.168.06.124.145a.3.3 0 0 0-.027.132h.308C.397.342.387.371.362.403A.16.16 0 0 1 .234.46.2.2 0 0 1 .099.408C.052.368.025.296.025.214c0-.138.072-.224.187-.224.095 0 .17.06.212.167zM.099.31q.015.116.106.115C.266.424.29.396.303.309z"/><path id="f" d="M.315.314.311.451H.3Q.293.439.284.44a.1.1 0 0 0-.027.007.2.2 0 0 1-.07.013C.108.46.051.408.051.336.051.28.083.24.168.192L.226.16Q.278.13.278.084C.278.04.246.012.195.012.126.012.091.05.068.152H.052v-.156h.013c.007.01.011.012.023.012A.2.2 0 0 0 .134 0a.4.4 0 0 1 .073-.01c.078 0 .141.058.141.128 0 .05-.024.083-.084.12L.156.3Q.114.328.113.369c0 .041.031.068.077.068C.247.437.277.404.3.314z"/><path id="g" d="M.442.066Q.418.046.398.047c-.023 0-.03.014-.03.058V.3c0 .052-.005.081-.02.105Q.314.459.224.46C.13.46.056.411.056.348c0-.023.019-.043.043-.043s.045.02.045.042L.142.363.139.387c0 .027.032.049.072.049Q.286.435.287.353v-.06C.134.23.116.222.073.183A.12.12 0 0 1 .037.097c0-.063.044-.107.105-.107.044 0 .085.021.146.073C.293.01.311-.01.352-.01c.034 0 .055.012.09.05zM.287.123C.287.093.282.083.261.07A.2.2 0 0 0 .188.048C.153.048.125.082.125.125V.13C.126.19.17.227.287.27z"/><path id="h" d="M.255.45H.154v.116Q.154.58.147.58A.5.5 0 0 0 .03.444Q.013.434.013.425q0-.004.004-.007H.07v-.3q0-.128.089-.128.072-.001.12.076L.266.077C.244.051.228.042.206.042.169.042.154.07.154.132v.286h.101z"/><path id="i" d="M.016 0h.237v.015C.187.02.18.029.179.102v.355L.175.46.02.405V.39l.008.001.034.003c.024 0 .033-.016.033-.06V.102C.093.028.084.018.016.015zm.112.683a.05.05 0 0 1-.05-.051.05.05 0 0 1 .05-.05.05.05 0 0 1 .052.05.05.05 0 0 1-.052.051"/><path id="j" d="M.597.17H.569C.521.062.476.037.333.036H.306C.202.04.201.041.201.08v.247h.154C.439.325.452.313.465.231h.023v.232H.465C.453.383.439.37.355.368H.201V.59c.001.03.005.034.033.034h.135C.485.622.505.608.521.52h.025L.543.662H.012V.643C.085.638.097.625.099.553V.11C.097.037.084.023.012.019V0h.54z"/><path id="k" d="M.016 0h.222v.015C.187.016.171.027.17.067v.282c0 .002.008.012.015.019.025.023.068.04.103.04q.066 0 .066-.105V.086C.352.029.342.018.286.015V0H.51v.015c-.056 0-.07.016-.072.08v.252C.468.39.5.408.547.408c.057 0 .075-.027.075-.11V.087C.62.028.614.021.556.015V0h.219v.015L.749.017C.717.022.706.037.706.076v.206Q.706.459.59.46C.532.46.481.434.427.376Q.401.461.321.46C.276.46.249.447.166.383v.075L.159.46a2 2 0 0 0-.14-.045V.398a.1.1 0 0 0 .032.004C.077.402.086.386.086.338V.085C.084.029.071.015.016.015z"/><path id="l" d="M.005 0h.24v.015C.178.017.162.031.16.09v.225c0 .032.042.082.07.082q.01 0 .026-.015.022-.021.04-.02.038.002.039.045C.335.44.314.46.28.46.238.46.21.438.16.366v.092L.155.46A2 2 0 0 0 .007.406V.39a.2.2 0 0 0 .035.004c.025 0 .034-.016.034-.06v-.25C.074.032.068.026.005.015z"/><path id="m" d="M.47.388v.039H.393a.2.2 0 0 0-.055.01L.316.445a.2.2 0 0 1-.08.015.163.163 0 0 1-.167-.163c0-.063.026-.101.093-.134L.136.139.1.104C.079.082.073.07.073.054.073.032.084.02.126 0 .054-.051.028-.084.028-.121c0-.053.077-.097.173-.097.075 0 .153.026.205.068q.056.045.055.1C.461.014.414.055.34.059L.211.064Q.131.066.133.09c0 .02.033.055.06.063L.25.149c.037 0 .077.015.108.042q.049.04.048.113a.2.2 0 0 1-.019.084zm-.323-.39C.181-.01.259-.015.31-.015c.09 0 .123-.013.123-.05C.433-.121.357-.16.244-.16c-.089 0-.146.029-.146.073 0 .023.009.038.049.086m.005.34c0 .059.028.094.074.094Q.274.43.299.385a.3.3 0 0 0 .03-.12C.329.209.301.174.255.174c-.062 0-.103.065-.103.16z"/><path id="n" d="M.005-.217h.242v.018C.172-.198.16-.188.159-.124v.157C.195 0 .218-.01.26-.01c.119 0 .21.112.21.257C.47.371.4.46.303.46.247.46.203.436.159.381v.077L.153.46A2 2 0 0 0 .009.409V.393l.025.001c.034 0 .041-.01.041-.057v-.468c0-.053-.011-.063-.07-.069zm.154.551C.159.364.215.4.261.4.335.4.384.324.384.207.384.097.335.022.263.022.216.022.159.058.159.088z"/><path id="o" d="M.487.015C.433.024.428.031.427.102v.199q0 .158-.123.159C.245.46.203.436.157.376V.68L.152.683.037.647.01.639V.623h.012c.043 0 .051-.007.051-.05V.102C.071.03.066.022.009.015V0h.216v.015C.167.02.159.031.157.102v.241c.042.046.072.063.112.063Q.343.406.343.3V.102C.341.031.332.02.275.015V0h.212z"/><path id="p" d="M0 0"/><path id="q" d="M.711.426H.495V.405C.545.4.559.39.559.36.559.316.533.264.468.178.413.248.38.298.336.384c.114.054.155.099.155.17S.435.677.356.677A.153.153 0 0 1 .202.522c0-.038.008-.07.035-.145L.199.355Q.041.265.042.139c0-.095.064-.152.171-.152.081 0 .141.025.216.091.063-.065.112-.09.17-.09C.663-.013.72.028.75.1L.735.111C.703.071.681.058.645.058Q.561.058.491.15c.044.06.069.096.1.15l.026.046c.024.041.044.053.094.059zm-.39-.01c-.03.063-.04.1-.04.146 0 .048.031.082.077.082s.08-.036.08-.085q0-.081-.117-.143M.252.343A1.3 1.3 0 0 1 .404.104C.344.057.306.04.263.04.192.04.134.102.134.18c0 .064.031.107.118.163"/><path id="r" d="M.021 0h.236v.015C.194.018.183.028.182.084v.597L.178.683A2 2 0 0 0 .019.639V.623h.006l.031.002C.088.625.098.611.098.564V.087C.097.033.083.019.021.015z"/><path id="s" d="M.447.676H.426Q.42.642.394.642A.1.1 0 0 0 .35.654a.3.3 0 0 1-.107.022A.2.2 0 0 1 .124.63.16.16 0 0 1 .071.505c0-.08.044-.136.156-.195A.4.4 0 0 0 .376.193.1.1 0 0 0 .39.134C.39.068.34.022.267.022.177.022.115.077.065.2H.042l.03-.212h.022C.095.006.107.02.122.02A.2.2 0 0 0 .169.009a.3.3 0 0 1 .118-.023c.116 0 .204.08.204.183 0 .082-.055.146-.187.218-.105.057-.147.1-.147.156s.042.092.104.092A.17.17 0 0 0 .383.58.23.23 0 0 0 .444.463h.025z"/><path id="t" d="M.36.425A.2.2 0 0 1 .245.46C.119.46.024.349.024.204.024.08.09-.01.184-.01q.089.001.157.074v-.188C.34-.18.322-.196.252-.2v-.017h.236v.014C.434-.19.427-.183.425-.14v.597L.414.457zM.341.127q0-.034-.014-.046a.14.14 0 0 0-.086-.03.1.1 0 0 0-.078.03C.131.11.11.173.11.24c0 .118.053.19.138.19q.093 0 .093-.098z"/><path id="u" d="M.479.05H.474C.425.052.418.06.417.107V.45H.259V.433C.321.43.333.42.333.37V.135C.333.107.328.093.314.082A.14.14 0 0 0 .226.048C.187.048.155.082.155.124V.45H.009V.436C.056.434.07.42.071.372V.12c0-.079.048-.13.121-.13a.15.15 0 0 1 .103.043l.043.043v-.083l.004-.002c.05.02.086.031.137.045z"/><path id="v" d="M.294.662H.012V.643C.085.638.097.625.099.553V.11C.097.037.084.023.012.019V0H.55l.048.174H.573C.526.069.483.043.354.039H.287C.21.041.202.044.201.08v.473c.002.073.015.086.093.09z"/><path id="w" d="M.475.45H.34V.435Q.388.435.388.41L.384.393.287.117.172.37a.1.1 0 0 0-.01.038c0 .018.015.025.058.027V.45H.014V.436Q.053.43.065.404L.179.158.197.12A.3.3 0 0 0 .241.018a.4.4 0 0 0-.04-.108C.186-.115.165-.134.151-.134a.1.1 0 0 0-.026.007.2.2 0 0 1-.052.011A.043.043 0 0 1 .03-.16c0-.033.031-.058.074-.058.068 0 .114.055.169.2L.427.39C.44.422.451.432.475.435z"/><path id="x" d="M.707.662H.472V.643C.552.638.565.621.568.515V.178L.183.662H.012V.643C.055.643.069.635.109.588V.147C.107.041.094.024.012.019V0h.235v.019C.17.023.155.044.153.147v.392l.442-.55h.017v.526C.615.62.628.636.707.643z"/><path id="y" d="M.534.22v.066H.03V.22z"/><path id="z" d="M.706.019C.661.022.651.032.616.106L.367.674h-.02L.139.183C.075.037.063.02.015.019V0h.198v.019C.165.019.145.031.145.06q0 .019.008.039l.046.117h.262L.502.12A.2.2 0 0 0 .521.053C.521.028.504.02.451.019V0h.255zm-.49.238.115.275.116-.275z"/><path id="A" d="M.153.681.148.683A2 2 0 0 0 .032.647L.003.639V.623H.02c.04 0 .049-.008.049-.05V.054c0-.03.084-.064.165-.064.132 0 .234.11.234.253C.468.367.392.46.292.46.231.46.173.425.153.375zm0-.359c0 .039.047.075.099.075q.042 0 .074-.029C.358.337.38.269.38.198.38.085.332.021.25.021.198.022.153.044.153.07z"/><path id="B" d="M.697.662H.492V.643C.547.64.565.63.565.601A.2.2 0 0 0 .546.528L.399.161.248.5A.4.4 0 0 0 .207.61Q.206.64.253.641l.029.002v.02H.016v-.02C.065.641.079.627.122.538L.368-.01h.015L.605.55c.033.08.044.09.092.093z"/><path id="C" d="M.278 0h.201v.015c-.031 0-.051.016-.082.06L.269.271l.083.12a.1.1 0 0 0 .081.044V.45H.275V.435c.03-.002.04-.008.04-.022q0-.018-.037-.065L.248.304.24.316l-.026.04C.195.387.188.403.188.413Q.187.435.231.435V.45H.024V.435h.009c.03 0 .046-.013.077-.06L.204.231.09.066C.06.025.05.018.017.015V0h.145v.015q-.042 0-.04.018 0 .01.02.041l.079.123.091-.14A.03.03 0 0 0 .318.039C.318.021.311.017.278.015z"/><path id="D" d="M.295.676a.5.5 0 0 1-.141-.12.46.46 0 0 1-.106-.304c0-.128.037-.225.125-.327a.4.4 0 0 1 .119-.102l.012.016c-.08.063-.108.099-.135.173a.7.7 0 0 0-.035.243q0 .157.04.249a.4.4 0 0 0 .13.156z"/><path id="E" d="M.62.45.611.677H.59Q.58.644.548.643A.1.1 0 0 0 .509.65a.5.5 0 0 1-.146.025A.35.35 0 0 1 .136.59.34.34 0 0 1 .028.326c0-.204.133-.34.332-.34.113 0 .213.046.273.127L.615.131c-.073-.07-.14-.1-.223-.1A.24.24 0 0 0 .23.087C.175.138.144.228.144.34c0 .18.093.297.238.297a.2.2 0 0 0 .149-.06A.25.25 0 0 0 .597.45z"/><path id="F" d="M.479.231v.232H.456C.445.384.428.37.346.368H.201V.59c.001.03.004.033.032.034h.136C.485.622.505.608.521.52h.025L.543.662H.012V.643C.085.638.097.625.099.553V.12C.098.035.088.024.012.019V0h.28v.019C.216.022.202.036.201.109v.218h.145c.082 0 .098-.015.11-.096z"/><path id="G" d="M.452.019C.37.023.357.035.356.109V.62H.41C.526.618.547.601.569.492h.024l-.006.17H.023L.017.492h.024C.064.602.085.618.2.62h.054v-.5C.253.034.244.024.16.019V0h.292z"/><path id="H" d="M.038-.177a.5.5 0 0 1 .141.12.46.46 0 0 1 .106.304.46.46 0 0 1-.125.327.4.4 0 0 1-.119.102L.029.66A.34.34 0 0 0 .164.487.7.7 0 0 0 .199.244a.6.6 0 0 0-.04-.248.4.4 0 0 0-.13-.157z"/><path id="I" d="M.477.45H.338V.435Q.385.431.385.403a.1.1 0 0 0-.006-.03L.28.114.178.37a.1.1 0 0 0-.009.037c0 .018.011.025.046.028V.45H.019V.435C.057.433.064.423.11.32L.23.033l.008-.02.009-.02a.01.01 0 0 1 .009-.007c.006 0 .013.013.028.05l.128.321c.029.068.035.075.065.078z"/><path id="J" d="M.309.45H.186v.116q0 .09.057.09c.022 0 .035-.01.053-.04C.312.59.324.58.341.58a.04.04 0 0 1 .042.041c0 .036-.044.062-.104.062C.216.683.164.656.138.611S.104.531.103.451H.021V.417h.082V.104C.101.029.091.018.02.015V0h.26v.015C.198.018.187.029.187.104v.314h.122z"/><path id="K" d="M.153.33A.3.3 0 0 0 .258.319.15.15 0 0 0 .359.171C.359.086.303.022.229.022.201.022.181.03.144.053.115.071.098.078.081.078Q.045.076.043.043c0-.035.043-.057.113-.057.076 0 .155.026.203.067A.21.21 0 0 1 .431.22a.2.2 0 0 1-.044.129.2.2 0 0 1-.083.053c.068.047.093.084.093.138C.397.62.334.676.241.676a.2.2 0 0 1-.13-.05.24.24 0 0 1-.066-.112L.06.51C.1.584.145.616.208.616c.066 0 .11-.043.11-.107a.14.14 0 0 0-.04-.097.3.3 0 0 0-.126-.069z"/><path id="L" d="M.019 0h.278v.019C.222.025.21.037.209.109v.206h.303V.12C.511.035.502.024.424.02V0h.278v.019C.627.025.615.037.614.109v.444c.001.073.011.083.088.09v.02H.424v-.02C.501.637.511.627.512.553V.36H.209v.194C.21.626.22.636.297.643v.02H.019v-.02C.096.637.106.627.107.553V.12C.106.035.097.024.019.02z"/><path id="M" d="M.007 0h.234v.015l-.02.001C.179.019.167.03.166.067v.184l.14-.187.01-.013Q.328.037.327.03.325.016.306.015H.287V0h.218v.015C.461.018.43.037.388.088L.235.282.264.31C.389.421.416.437.48.435V.45H.276V.436c.039 0 .05-.005.05-.018Q.325.403.303.383L.166.261v.42L.162.683.037.647.007.64V.623l.032.002c.034 0 .043-.013.043-.06V.081C.081.029.078.026.007.015z"/><path id="N" d="M.125.1A.056.056 0 0 1 .07.043C.07.014.095-.01.124-.01c.031 0 .057.024.057.054A.057.057 0 0 1 .125.1"/><path id="O" d="M.361.676C.17.676.034.533.034.33A.36.36 0 0 1 .12.088a.33.33 0 0 1 .235-.102c.197 0 .333.14.333.341a.35.35 0 0 1-.084.244.32.32 0 0 1-.243.105m0-.036A.2.2 0 0 0 .489.59C.543.54.574.447.574.328a.5.5 0 0 0-.033-.18.2.2 0 0 0-.049-.073.18.18 0 0 0-.133-.053.2.2 0 0 0-.127.05C.181.116.148.217.148.328c0 .102.028.199.07.246A.19.19 0 0 0 .361.64"/><path id="P" d="M.016.643C.09.635.099.626.1.553V.12C.099.035.092.026.016.019V0h.28v.019C.217.021.203.035.202.109v.182L.271.288c.079 0 .132.01.175.034a.18.18 0 0 1 .096.16c0 .041-.014.08-.041.108C.461.634.374.662.28.662H.016zM.202.591c0 .027.007.034.034.034.135 0 .197-.047.197-.15Q.433.33.259.328L.202.331z"/><path id="Q" d="M.418.135.4.139C.382.045.368.033.272.03H.134l.269.405V.45H.056L.053.332h.018C.079.403.093.418.155.42h.138L.027.015V0h.377z"/><path id="R" d="M.701-.16c-.114.004-.194.048-.275.153.068.013.104.03.15.07A.34.34 0 0 1 .688.33c0 .2-.136.345-.327.345S.034.532.034.329q0-.147.089-.244a.3.3 0 0 1 .142-.086l.047-.055c.068-.08.189-.122.349-.122h.04zM.364.64A.2.2 0 0 0 .488.59C.542.542.574.446.574.333A.42.42 0 0 0 .505.086.193.193 0 0 0 .232.07C.18.118.148.217.148.335c0 .097.029.194.07.24A.2.2 0 0 0 .364.64"/><path id="S" d="M.016 0H.3c.116 0 .221.033.283.089a.33.33 0 0 1 .102.245C.685.424.656.502.6.557.532.627.423.662.286.662h-.27V.643C.095.636.103.628.104.553V.11C.103.036.091.024.016.019zm.19.586c0 .031.01.04.052.04a.34.34 0 0 0 .199-.05.29.29 0 0 0 .119-.249q0-.178-.122-.249A.4.4 0 0 0 .258.037c-.04 0-.052.009-.052.041z"/><path id="T" d="M.287.676H.22l-.229-.69h.068z"/><path id="U" d="M.571.45V.435C.605.428.615.421.615.405A.2.2 0 0 0 .598.337L.508.116.424.34C.407.386.407.386.407.4c0 .021.011.028.058.035V.45H.262V.435C.299.431.311.42.331.366L.351.31.26.111.161.372a.1.1 0 0 0-.006.03c0 .021.011.03.046.033V.45h-.18V.435C.044.433.052.423.074.372L.209.03q.018-.044.026-.044.007-.001.025.04l.112.24.091-.237C.478-.009.48-.014.487-.014s.012.01.028.05L.653.38c.018.042.021.047.041.054V.45z"/></defs><path fill="none" stroke="#000" stroke-dasharray="3.6" stroke-miterlimit="10" stroke-width=".45" d="M158.2 172.3v76.5"/><path fill="none" stroke="#000" stroke-miterlimit="10" stroke-width=".45" d="m162.7 172.3 45 85.5M90.7 172.3l81 31.5M270.7 194.8l58.5-27M117.7 172.3l-45 72"/><use xlink:href="#a" data-text="c" transform="matrix(16.2 0 0 -16.2 5.2 164.2)"/><use xlink:href="#b" data-text="o" transform="matrix(16.2 0 0 -16.2 12.393 164.2)"/><use xlink:href="#c" data-text="n" transform="matrix(16.2 0 0 -16.2 20.493 164.2)"/><use xlink:href="#d" data-text="d" transform="matrix(16.2 0 0 -16.2 28.593 164.2)"/><use xlink:href="#e" data-text="e" transform="matrix(16.2 0 0 -16.2 36.693 164.2)"/><use xlink:href="#c" data-text="n" transform="matrix(16.2 0 0 -16.2 43.886 164.2)"/><use xlink:href="#f" data-text="s" transform="matrix(16.2 0 0 -16.2 51.986 164.2)"/><use xlink:href="#g" data-text="a" transform="matrix(16.2 0 0 -16.2 58.287 164.2)"/><use xlink:href="#h" data-text="t" transform="matrix(16.2 0 0 -16.2 65.48 164.2)"/><use xlink:href="#i" data-text="i" transform="matrix(16.2 0 0 -16.2 69.984 164.2)"/><use xlink:href="#b" data-text="o" transform="matrix(16.2 0 0 -16.2 74.487 164.2)"/><use xlink:href="#c" data-text="n" transform="matrix(16.2 0 0 -16.2 82.587 164.2)"/><use xlink:href="#j" data-text="E" transform="matrix(16.2 0 0 -16.2 5.2 203.8)"/><use xlink:href="#k" data-text="m" transform="matrix(16.2 0 0 -16.2 15.098 203.8)"/><use xlink:href="#e" data-text="e" transform="matrix(16.2 0 0 -16.2 27.702 203.8)"/><use xlink:href="#l" data-text="r" transform="matrix(16.2 0 0 -16.2 34.895 203.8)"/><use xlink:href="#m" data-text="g" transform="matrix(16.2 0 0 -16.2 40.29 203.8)"/><use xlink:href="#e" data-text="e" transform="matrix(16.2 0 0 -16.2 48.39 203.8)"/><use xlink:href="#c" data-text="n" transform="matrix(16.2 0 0 -16.2 55.582 203.8)"/><use xlink:href="#h" data-text="t" transform="matrix(16.2 0 0 -16.2 63.682 203.8)"/><use xlink:href="#n" data-text="p" transform="matrix(16.2 0 0 -16.2 5.2 222.7)"/><use xlink:href="#o" data-text="h" transform="matrix(16.2 0 0 -16.2 13.3 222.7)"/><use xlink:href="#b" data-text="o" transform="matrix(16.2 0 0 -16.2 21.4 222.7)"/><use xlink:href="#h" data-text="t" transform="matrix(16.2 0 0 -16.2 29.5 222.7)"/><use xlink:href="#b" data-text="o" transform="matrix(16.2 0 0 -16.2 34.004 222.7)"/><use xlink:href="#c" data-text="n" transform="matrix(16.2 0 0 -16.2 42.104 222.7)"/><use xlink:href="#f" data-text="s" transform="matrix(16.2 0 0 -16.2 50.204 222.7)"/><use xlink:href="#p" transform="matrix(16.2 0 0 -16.2 56.505 222.7)"/><use xlink:href="#q" data-text="&amp;" transform="matrix(16.2 0 0 -16.2 60.555 222.7)"/><use xlink:href="#p" transform="matrix(16.2 0 0 -16.2 73.159 222.7)"/><use xlink:href="#e" data-text="e" transform="matrix(16.2 0 0 -16.2 77.209 222.7)"/><use xlink:href="#r" data-text="l" transform="matrix(16.2 0 0 -16.2 84.402 222.7)"/><use xlink:href="#e" data-text="e" transform="matrix(16.2 0 0 -16.2 88.905 222.7)"/><use xlink:href="#a" data-text="c" transform="matrix(16.2 0 0 -16.2 96.098 222.7)"/><use xlink:href="#h" data-text="t" transform="matrix(16.2 0 0 -16.2 103.291 222.7)"/><use xlink:href="#l" data-text="r" transform="matrix(16.2 0 0 -16.2 107.795 222.7)"/><use xlink:href="#b" data-text="o" transform="matrix(16.2 0 0 -16.2 113.19 222.7)"/><use xlink:href="#c" data-text="n" transform="matrix(16.2 0 0 -16.2 121.29 222.7)"/><use xlink:href="#f" data-text="s" transform="matrix(16.2 0 0 -16.2 129.39 222.7)"/><use xlink:href="#s" data-text="S" transform="matrix(16.2 0 0 -16.2 230.2 77.8)"/><use xlink:href="#n" data-text="p" transform="matrix(16.2 0 0 -16.2 239.207 77.8)"/><use xlink:href="#i" data-text="i" transform="matrix(16.2 0 0 -16.2 247.307 77.8)"/><use xlink:href="#c" data-text="n" transform="matrix(16.2 0 0 -16.2 251.81 77.8)"/><use xlink:href="#r" data-text="l" transform="matrix(16.2 0 0 -16.2 230.2 96.7)"/><use xlink:href="#i" data-text="i" transform="matrix(16.2 0 0 -16.2 234.704 96.7)"/><use xlink:href="#t" data-text="q" transform="matrix(16.2 0 0 -16.2 239.207 96.7)"/><use xlink:href="#u" data-text="u" transform="matrix(16.2 0 0 -16.2 247.307 96.7)"/><use xlink:href="#i" data-text="i" transform="matrix(16.2 0 0 -16.2 255.407 96.7)"/><use xlink:href="#d" data-text="d" transform="matrix(16.2 0 0 -16.2 259.91 96.7)"/><use xlink:href="#v" data-text="L" transform="matrix(16.2 0 0 -16.2 176.2 208.3)"/><use xlink:href="#b" data-text="o" transform="matrix(16.2 0 0 -16.2 186.098 208.3)"/><use xlink:href="#c" data-text="n" transform="matrix(16.2 0 0 -16.2 194.198 208.3)"/><use xlink:href="#m" data-text="g" transform="matrix(16.2 0 0 -16.2 202.298 208.3)"/><use xlink:href="#p" transform="matrix(16.2 0 0 -16.2 210.398 208.3)"/><use xlink:href="#l" data-text="r" transform="matrix(16.2 0 0 -16.2 214.448 208.3)"/><use xlink:href="#g" data-text="a" transform="matrix(16.2 0 0 -16.2 219.843 208.3)"/><use xlink:href="#c" data-text="n" transform="matrix(16.2 0 0 -16.2 227.036 208.3)"/><use xlink:href="#m" data-text="g" transform="matrix(16.2 0 0 -16.2 235.136 208.3)"/><use xlink:href="#e" data-text="e" transform="matrix(16.2 0 0 -16.2 243.236 208.3)"/><use xlink:href="#e" data-text="e" transform="matrix(16.2 0 0 -16.2 176.2 227.2)"/><use xlink:href="#c" data-text="n" transform="matrix(16.2 0 0 -16.2 183.393 227.2)"/><use xlink:href="#h" data-text="t" transform="matrix(16.2 0 0 -16.2 191.493 227.2)"/><use xlink:href="#g" data-text="a" transform="matrix(16.2 0 0 -16.2 195.996 227.2)"/><use xlink:href="#c" data-text="n" transform="matrix(16.2 0 0 -16.2 203.19 227.2)"/><use xlink:href="#m" data-text="g" transform="matrix(16.2 0 0 -16.2 211.29 227.2)"/><use xlink:href="#r" data-text="l" transform="matrix(16.2 0 0 -16.2 219.39 227.2)"/><use xlink:href="#e" data-text="e" transform="matrix(16.2 0 0 -16.2 223.893 227.2)"/><use xlink:href="#k" data-text="m" transform="matrix(16.2 0 0 -16.2 231.086 227.2)"/><use xlink:href="#e" data-text="e" transform="matrix(16.2 0 0 -16.2 243.69 227.2)"/><use xlink:href="#c" data-text="n" transform="matrix(16.2 0 0 -16.2 250.882 227.2)"/><use xlink:href="#h" data-text="t" transform="matrix(16.2 0 0 -16.2 258.982 227.2)"/><use xlink:href="#v" data-text="L" transform="matrix(16.2 0 0 -16.2 5.2 77.8)"/><use xlink:href="#g" data-text="a" transform="matrix(16.2 0 0 -16.2 15.098 77.8)"/><use xlink:href="#h" data-text="t" transform="matrix(16.2 0 0 -16.2 22.291 77.8)"/><use xlink:href="#h" data-text="t" transform="matrix(16.2 0 0 -16.2 26.795 77.8)"/><use xlink:href="#i" data-text="i" transform="matrix(16.2 0 0 -16.2 31.298 77.8)"/><use xlink:href="#a" data-text="c" transform="matrix(16.2 0 0 -16.2 35.802 77.8)"/><use xlink:href="#e" data-text="e" transform="matrix(16.2 0 0 -16.2 42.995 77.8)"/><use xlink:href="#m" data-text="g" transform="matrix(16.2 0 0 -16.2 5.2 96.7)"/><use xlink:href="#g" data-text="a" transform="matrix(16.2 0 0 -16.2 13.3 96.7)"/><use xlink:href="#u" data-text="u" transform="matrix(16.2 0 0 -16.2 20.493 96.7)"/><use xlink:href="#m" data-text="g" transform="matrix(16.2 0 0 -16.2 28.593 96.7)"/><use xlink:href="#e" data-text="e" transform="matrix(16.2 0 0 -16.2 36.693 96.7)"/><use xlink:href="#p" transform="matrix(16.2 0 0 -16.2 43.886 96.7)"/><use xlink:href="#h" data-text="t" transform="matrix(16.2 0 0 -16.2 47.936 96.7)"/><use xlink:href="#o" data-text="h" transform="matrix(16.2 0 0 -16.2 52.44 96.7)"/><use xlink:href="#e" data-text="e" transform="matrix(16.2 0 0 -16.2 60.54 96.7)"/><use xlink:href="#b" data-text="o" transform="matrix(16.2 0 0 -16.2 67.732 96.7)"/><use xlink:href="#l" data-text="r" transform="matrix(16.2 0 0 -16.2 75.832 96.7)"/><use xlink:href="#w" data-text="y" transform="matrix(16.2 0 0 -16.2 81.227 96.7)"/><use xlink:href="#s" data-text="S" transform="matrix(16.2 0 0 -16.2 414.7 164.2)"/><use xlink:href="#h" data-text="t" transform="matrix(16.2 0 0 -16.2 423.707 164.2)"/><use xlink:href="#g" data-text="a" transform="matrix(16.2 0 0 -16.2 428.21 164.2)"/><use xlink:href="#h" data-text="t" transform="matrix(16.2 0 0 -16.2 435.404 164.2)"/><use xlink:href="#i" data-text="i" transform="matrix(16.2 0 0 -16.2 439.907 164.2)"/><use xlink:href="#f" data-text="s" transform="matrix(16.2 0 0 -16.2 444.41 164.2)"/><use xlink:href="#h" data-text="t" transform="matrix(16.2 0 0 -16.2 450.713 164.2)"/><use xlink:href="#i" data-text="i" transform="matrix(16.2 0 0 -16.2 455.216 164.2)"/><use xlink:href="#a" data-text="c" transform="matrix(16.2 0 0 -16.2 459.72 164.2)"/><use xlink:href="#f" data-text="s" transform="matrix(16.2 0 0 -16.2 466.913 164.2)"/><use xlink:href="#x" data-text="N" transform="matrix(16.2 0 0 -16.2 414.7 145.3)"/><use xlink:href="#b" data-text="o" transform="matrix(16.2 0 0 -16.2 426.396 145.3)"/><use xlink:href="#c" data-text="n" transform="matrix(16.2 0 0 -16.2 434.496 145.3)"/><use xlink:href="#y" data-text="−" transform="matrix(16.2 0 0 -16.2 442.596 145.3)"/><use xlink:href="#z" data-text="A" transform="matrix(16.2 0 0 -16.2 451.733 145.3)"/><use xlink:href="#A" data-text="b" transform="matrix(16.2 0 0 -16.2 463.43 145.3)"/><use xlink:href="#e" data-text="e" transform="matrix(16.2 0 0 -16.2 471.53 145.3)"/><use xlink:href="#r" data-text="l" transform="matrix(16.2 0 0 -16.2 478.722 145.3)"/><use xlink:href="#i" data-text="i" transform="matrix(16.2 0 0 -16.2 483.226 145.3)"/><use xlink:href="#g" data-text="a" transform="matrix(16.2 0 0 -16.2 487.73 145.3)"/><use xlink:href="#c" data-text="n" transform="matrix(16.2 0 0 -16.2 494.923 145.3)"/><use xlink:href="#B" data-text="V" transform="matrix(16.2 0 0 -16.2 414.7 82.3)"/><use xlink:href="#e" data-text="e" transform="matrix(16.2 0 0 -16.2 426.396 82.3)"/><use xlink:href="#l" data-text="r" transform="matrix(16.2 0 0 -16.2 433.59 82.3)"/><use xlink:href="#h" data-text="t" transform="matrix(16.2 0 0 -16.2 438.984 82.3)"/><use xlink:href="#e" data-text="e" transform="matrix(16.2 0 0 -16.2 443.487 82.3)"/><use xlink:href="#C" data-text="x" transform="matrix(16.2 0 0 -16.2 450.68 82.3)"/><use xlink:href="#p" transform="matrix(16.2 0 0 -16.2 458.78 82.3)"/><use xlink:href="#z" data-text="A" transform="matrix(16.2 0 0 -16.2 462.83 82.3)"/><use xlink:href="#r" data-text="l" transform="matrix(16.2 0 0 -16.2 474.527 82.3)"/><use xlink:href="#m" data-text="g" transform="matrix(16.2 0 0 -16.2 479.03 82.3)"/><use xlink:href="#e" data-text="e" transform="matrix(16.2 0 0 -16.2 487.13 82.3)"/><use xlink:href="#A" data-text="b" transform="matrix(16.2 0 0 -16.2 494.323 82.3)"/><use xlink:href="#l" data-text="r" transform="matrix(16.2 0 0 -16.2 502.423 82.3)"/><use xlink:href="#g" data-text="a" transform="matrix(16.2 0 0 -16.2 507.818 82.3)"/><use xlink:href="#D" data-text="(" transform="matrix(16.2 0 0 -16.2 414.7 101.2)"/><use xlink:href="#E" data-text="C" transform="matrix(16.2 0 0 -16.2 420.095 101.2)"/><use xlink:href="#F" data-text="F" transform="matrix(16.2 0 0 -16.2 430.9 101.2)"/><use xlink:href="#G" data-text="T" transform="matrix(16.2 0 0 -16.2 439.907 101.2)"/><use xlink:href="#H" data-text=")" transform="matrix(16.2 0 0 -16.2 449.805 101.2)"/><use xlink:href="#j" data-text="E" transform="matrix(16.2 0 0 -16.2 216.7 262.3)"/><use xlink:href="#k" data-text="m" transform="matrix(16.2 0 0 -16.2 226.598 262.3)"/><use xlink:href="#e" data-text="e" transform="matrix(16.2 0 0 -16.2 239.202 262.3)"/><use xlink:href="#l" data-text="r" transform="matrix(16.2 0 0 -16.2 246.395 262.3)"/><use xlink:href="#m" data-text="g" transform="matrix(16.2 0 0 -16.2 251.79 262.3)"/><use xlink:href="#e" data-text="e" transform="matrix(16.2 0 0 -16.2 259.89 262.3)"/><use xlink:href="#c" data-text="n" transform="matrix(16.2 0 0 -16.2 267.082 262.3)"/><use xlink:href="#h" data-text="t" transform="matrix(16.2 0 0 -16.2 275.182 262.3)"/><use xlink:href="#m" data-text="g" transform="matrix(16.2 0 0 -16.2 216.7 281.2)"/><use xlink:href="#l" data-text="r" transform="matrix(16.2 0 0 -16.2 224.8 281.2)"/><use xlink:href="#g" data-text="a" transform="matrix(16.2 0 0 -16.2 230.195 281.2)"/><use xlink:href="#I" data-text="v" transform="matrix(16.2 0 0 -16.2 237.387 281.2)"/><use xlink:href="#i" data-text="i" transform="matrix(16.2 0 0 -16.2 245.487 281.2)"/><use xlink:href="#h" data-text="t" transform="matrix(16.2 0 0 -16.2 249.991 281.2)"/><use xlink:href="#w" data-text="y" transform="matrix(16.2 0 0 -16.2 254.495 281.2)"/><use xlink:href="#E" data-text="C" transform="matrix(16.2 0 0 -16.2 306.7 266.8)"/><use xlink:href="#r" data-text="l" transform="matrix(16.2 0 0 -16.2 317.505 266.8)"/><use xlink:href="#g" data-text="a" transform="matrix(16.2 0 0 -16.2 322.009 266.8)"/><use xlink:href="#f" data-text="s" transform="matrix(16.2 0 0 -16.2 329.202 266.8)"/><use xlink:href="#f" data-text="s" transform="matrix(16.2 0 0 -16.2 335.504 266.8)"/><use xlink:href="#i" data-text="i" transform="matrix(16.2 0 0 -16.2 341.805 266.8)"/><use xlink:href="#J" data-text="f" transform="matrix(16.2 0 0 -16.2 346.309 266.8)"/><use xlink:href="#i" data-text="i" transform="matrix(16.2 0 0 -16.2 351.704 266.8)"/><use xlink:href="#a" data-text="c" transform="matrix(16.2 0 0 -16.2 356.207 266.8)"/><use xlink:href="#g" data-text="a" transform="matrix(16.2 0 0 -16.2 363.4 266.8)"/><use xlink:href="#h" data-text="t" transform="matrix(16.2 0 0 -16.2 370.593 266.8)"/><use xlink:href="#i" data-text="i" transform="matrix(16.2 0 0 -16.2 375.096 266.8)"/><use xlink:href="#b" data-text="o" transform="matrix(16.2 0 0 -16.2 379.6 266.8)"/><use xlink:href="#c" data-text="n" transform="matrix(16.2 0 0 -16.2 387.7 266.8)"/><use xlink:href="#b" data-text="o" transform="matrix(16.2 0 0 -16.2 306.7 285.7)"/><use xlink:href="#J" data-text="f" transform="matrix(16.2 0 0 -16.2 314.8 285.7)"/><use xlink:href="#p" transform="matrix(16.2 0 0 -16.2 320.195 285.7)"/><use xlink:href="#K" data-text="3" transform="matrix(16.2 0 0 -16.2 324.245 285.7)"/><use xlink:href="#y" data-text="−" transform="matrix(16.2 0 0 -16.2 332.345 285.7)"/><use xlink:href="#k" data-text="m" transform="matrix(16.2 0 0 -16.2 341.481 285.7)"/><use xlink:href="#g" data-text="a" transform="matrix(16.2 0 0 -16.2 354.085 285.7)"/><use xlink:href="#c" data-text="n" transform="matrix(16.2 0 0 -16.2 361.278 285.7)"/><use xlink:href="#i" data-text="i" transform="matrix(16.2 0 0 -16.2 369.378 285.7)"/><use xlink:href="#J" data-text="f" transform="matrix(16.2 0 0 -16.2 373.881 285.7)"/><use xlink:href="#b" data-text="o" transform="matrix(16.2 0 0 -16.2 379.276 285.7)"/><use xlink:href="#r" data-text="l" transform="matrix(16.2 0 0 -16.2 387.376 285.7)"/><use xlink:href="#d" data-text="d" transform="matrix(16.2 0 0 -16.2 391.88 285.7)"/><use xlink:href="#f" data-text="s" transform="matrix(16.2 0 0 -16.2 399.98 285.7)"/><use xlink:href="#L" data-text="H" transform="matrix(16.2 0 0 -16.2 410.2 19.3)"/><use xlink:href="#i" data-text="i" transform="matrix(16.2 0 0 -16.2 421.896 19.3)"/><use xlink:href="#m" data-text="g" transform="matrix(16.2 0 0 -16.2 426.4 19.3)"/><use xlink:href="#o" data-text="h" transform="matrix(16.2 0 0 -16.2 434.5 19.3)"/><use xlink:href="#p" transform="matrix(16.2 0 0 -16.2 442.6 19.3)"/><use xlink:href="#G" data-text="T" transform="matrix(16.2 0 0 -16.2 446.65 19.3)"/><use xlink:href="#a" data-text="c" transform="matrix(16.2 0 0 -16.2 456.548 19.3)"/><use xlink:href="#f" data-text="s" transform="matrix(16.2 0 0 -16.2 410.2 38.2)"/><use xlink:href="#u" data-text="u" transform="matrix(16.2 0 0 -16.2 416.502 38.2)"/><use xlink:href="#n" data-text="p" transform="matrix(16.2 0 0 -16.2 424.602 38.2)"/><use xlink:href="#e" data-text="e" transform="matrix(16.2 0 0 -16.2 432.702 38.2)"/><use xlink:href="#l" data-text="r" transform="matrix(16.2 0 0 -16.2 439.895 38.2)"/><use xlink:href="#a" data-text="c" transform="matrix(16.2 0 0 -16.2 445.29 38.2)"/><use xlink:href="#b" data-text="o" transform="matrix(16.2 0 0 -16.2 452.482 38.2)"/><use xlink:href="#c" data-text="n" transform="matrix(16.2 0 0 -16.2 460.582 38.2)"/><use xlink:href="#d" data-text="d" transform="matrix(16.2 0 0 -16.2 468.682 38.2)"/><use xlink:href="#u" data-text="u" transform="matrix(16.2 0 0 -16.2 476.782 38.2)"/><use xlink:href="#a" data-text="c" transform="matrix(16.2 0 0 -16.2 484.882 38.2)"/><use xlink:href="#h" data-text="t" transform="matrix(16.2 0 0 -16.2 492.075 38.2)"/><use xlink:href="#b" data-text="o" transform="matrix(16.2 0 0 -16.2 496.578 38.2)"/><use xlink:href="#l" data-text="r" transform="matrix(16.2 0 0 -16.2 504.678 38.2)"/><use xlink:href="#E" data-text="C" transform="matrix(16.2 0 0 -16.2 423.7 266.8)"/><use xlink:href="#r" data-text="l" transform="matrix(16.2 0 0 -16.2 434.505 266.8)"/><use xlink:href="#g" data-text="a" transform="matrix(16.2 0 0 -16.2 439.009 266.8)"/><use xlink:href="#f" data-text="s" transform="matrix(16.2 0 0 -16.2 446.202 266.8)"/><use xlink:href="#f" data-text="s" transform="matrix(16.2 0 0 -16.2 452.504 266.8)"/><use xlink:href="#i" data-text="i" transform="matrix(16.2 0 0 -16.2 458.805 266.8)"/><use xlink:href="#J" data-text="f" transform="matrix(16.2 0 0 -16.2 463.309 266.8)"/><use xlink:href="#i" data-text="i" transform="matrix(16.2 0 0 -16.2 468.704 266.8)"/><use xlink:href="#a" data-text="c" transform="matrix(16.2 0 0 -16.2 473.207 266.8)"/><use xlink:href="#g" data-text="a" transform="matrix(16.2 0 0 -16.2 480.4 266.8)"/><use xlink:href="#h" data-text="t" transform="matrix(16.2 0 0 -16.2 487.593 266.8)"/><use xlink:href="#i" data-text="i" transform="matrix(16.2 0 0 -16.2 492.096 266.8)"/><use xlink:href="#b" data-text="o" transform="matrix(16.2 0 0 -16.2 496.6 266.8)"/><use xlink:href="#c" data-text="n" transform="matrix(16.2 0 0 -16.2 504.7 266.8)"/><use xlink:href="#b" data-text="o" transform="matrix(16.2 0 0 -16.2 423.7 285.7)"/><use xlink:href="#J" data-text="f" transform="matrix(16.2 0 0 -16.2 431.8 285.7)"/><use xlink:href="#p" transform="matrix(16.2 0 0 -16.2 437.195 285.7)"/><use xlink:href="#M" data-text="k" transform="matrix(16.2 0 0 -16.2 441.245 285.7)"/><use xlink:href="#c" data-text="n" transform="matrix(16.2 0 0 -16.2 449.345 285.7)"/><use xlink:href="#b" data-text="o" transform="matrix(16.2 0 0 -16.2 457.445 285.7)"/><use xlink:href="#h" data-text="t" transform="matrix(16.2 0 0 -16.2 465.545 285.7)"/><use xlink:href="#f" data-text="s" transform="matrix(16.2 0 0 -16.2 470.048 285.7)"/><path fill="none" stroke="#000" stroke-miterlimit="10" stroke-width=".45" d="M200.5 127.3a6.3 6.3 0 0 0-6.3 6.3V166a6.3 6.3 0 0 0 6.3 6.3h95.4a6.3 6.3 0 0 0 6.3-6.3v-32.4a6.3 6.3 0 0 0-6.3-6.3Z"/><path fill="none" stroke="#f0f" stroke-miterlimit="10" stroke-width=".45" d="M335.5 127.3a6.3 6.3 0 0 0-6.3 6.3V166a6.3 6.3 0 0 0 6.3 6.3h45.9a6.3 6.3 0 0 0 6.3-6.3v-32.4a6.3 6.3 0 0 0-6.3-6.3ZM308.5 190.3a6.3 6.3 0 0 0-6.3 6.3V229a6.3 6.3 0 0 0 6.3 6.3h54.9a6.3 6.3 0 0 0 6.3-6.3v-32.4a6.3 6.3 0 0 0-6.3-6.3ZM416.5 127.3a6.3 6.3 0 0 0-6.3 6.3V166a6.3 6.3 0 0 0 6.3 6.3h81.9a6.3 6.3 0 0 0 6.3-6.3v-32.4a6.3 6.3 0 0 0-6.3-6.3ZM416.5 59.8a6.3 6.3 0 0 0-6.3 6.3V103a6.3 6.3 0 0 0 6.3 6.3h95.4a6.3 6.3 0 0 0 6.3-6.3V66.1a6.3 6.3 0 0 0-6.3-6.3Z"/><path fill="none" stroke="#00f" stroke-miterlimit="10" stroke-width=".45" d="M335.5 73.3a6.3 6.3 0 0 0-6.3 6.3V94a6.3 6.3 0 0 0 6.3 6.3h36.9a6.3 6.3 0 0 0 6.3-6.3V79.6a6.3 6.3 0 0 0-6.3-6.3ZM223 59.8a6.3 6.3 0 0 0-6.3 6.3v32.4a6.3 6.3 0 0 0 6.3 6.3h50.4a6.3 6.3 0 0 0 6.3-6.3V66.1a6.3 6.3 0 0 0-6.3-6.3ZM268 5.8a6.3 6.3 0 0 0-6.3 6.3V31a6.3 6.3 0 0 0 6.3 6.3h108.9a6.3 6.3 0 0 0 6.3-6.3V12.1a6.3 6.3 0 0 0-6.3-6.3ZM92.5 1.3a6.3 6.3 0 0 0-6.3 6.3v36.9a6.3 6.3 0 0 0 6.3 6.3h135.9a6.3 6.3 0 0 0 6.3-6.3V7.6a6.3 6.3 0 0 0-6.3-6.3Z"/><path fill="none" stroke="red" stroke-miterlimit="10" stroke-width=".45" d="M178 190.3a6.3 6.3 0 0 0-6.3 6.3V229a6.3 6.3 0 0 0 6.3 6.3h86.4a6.3 6.3 0 0 0 6.3-6.3v-32.4a6.3 6.3 0 0 0-6.3-6.3Z"/><path fill="none" stroke="#00f" stroke-miterlimit="10" stroke-width=".45" d="M115 127.3a6.3 6.3 0 0 0-6.3 6.3V166a6.3 6.3 0 0 0 6.3 6.3h54.9a6.3 6.3 0 0 0 6.3-6.3v-32.4a6.3 6.3 0 0 0-6.3-6.3ZM115 59.8a6.3 6.3 0 0 0-6.3 6.3v32.4a6.3 6.3 0 0 0 6.3 6.3h68.4a6.3 6.3 0 0 0 6.3-6.3V66.1a6.3 6.3 0 0 0-6.3-6.3ZM7 59.8a6.3 6.3 0 0 0-6.3 6.3v32.4a6.3 6.3 0 0 0 6.3 6.3h81.9a6.3 6.3 0 0 0 6.3-6.3V66.1a6.3 6.3 0 0 0-6.3-6.3ZM7 127.3a6.3 6.3 0 0 0-6.3 6.3V166a6.3 6.3 0 0 0 6.3 6.3h81.9a6.3 6.3 0 0 0 6.3-6.3v-32.4a6.3 6.3 0 0 0-6.3-6.3ZM7 185.8a6.3 6.3 0 0 0-6.3 6.3v32.4a6.3 6.3 0 0 0 6.3 6.3h131.4a6.3 6.3 0 0 0 6.3-6.3v-32.4a6.3 6.3 0 0 0-6.3-6.3Z"/><path fill="none" stroke="#000" stroke-miterlimit="10" stroke-width=".45" d="M302.2 149.8h27M387.7 149.8h22.5M351.7 172.3v18M369.7 212.8h13.5M441.7 172.3v18M378.7 127.3l31.5-27M351.7 127.3v-27M378.7 86.8h31.5M374.2 100.3l40.5 27M459.7 109.3v18M243.7 104.8v22.5M293.2 172.3l18 18M225.7 172.3v18M135.7 172.3v13.5M144.7 104.8v22.5M95.2 82.3h13.5M90.7 104.8l27 22.5M45.7 104.8v22.5M45.7 172.3v13.5M167.2 127.3l13.5-76.5M234.7 37.3l94.5 40.5M167.2 172.3l18 18"/><path fill="none" stroke="#d10000" stroke-miterlimit="10" stroke-width=".45" d="M214 244.3a6.3 6.3 0 0 0-6.3 6.3V283a6.3 6.3 0 0 0 6.3 6.3h68.4a6.3 6.3 0 0 0 6.3-6.3v-32.4a6.3 6.3 0 0 0-6.3-6.3ZM115 248.8a6.3 6.3 0 0 0-6.3 6.3V274a6.3 6.3 0 0 0 6.3 6.3h68.4a6.3 6.3 0 0 0 6.3-6.3v-18.9a6.3 6.3 0 0 0-6.3-6.3Z"/><path fill="none" stroke="#000" stroke-miterlimit="10" stroke-width=".45" d="M261.7 244.3v-9"/><path fill="none" stroke="red" stroke-miterlimit="10" stroke-width=".45" d="M308.5 248.8a6.3 6.3 0 0 0-6.3 6.3V283a6.3 6.3 0 0 0 6.3 6.3h95.4a6.3 6.3 0 0 0 6.3-6.3v-27.9a6.3 6.3 0 0 0-6.3-6.3Z"/><path fill="none" stroke="#000" stroke-miterlimit="10" stroke-width=".45" d="m176.2 163.3 135 85.5M369.7 230.8l49.5 18M495.7 172.3v76.5M347.2 235.3v13.5M189.7 77.8l72-45M275.2 59.8V37.3"/><path fill="none" stroke="#00f" stroke-miterlimit="10" stroke-width=".45" d="M407.5 5.8a6.3 6.3 0 0 0-6.3 6.3v23.4a6.3 6.3 0 0 0 6.3 6.3h104.4a6.3 6.3 0 0 0 6.3-6.3V12.1a6.3 6.3 0 0 0-6.3-6.3Z"/><path fill="none" stroke="#000" stroke-miterlimit="10" stroke-width=".45" d="m189.7 91.3 211.5-54M279.7 86.8l135-45M189.7 100.3h27M293.2 127.3l36-31.5M369.7 199.3l40.5-31.5M302.2 167.8l99 22.5M270.7 208.3h31.5M144.7 212.8h27M95.2 163.3h13.5M176.2 158.8h18M95.2 149.8l99-.42"/><path fill="none" stroke="#00f" stroke-miterlimit="10" stroke-width=".45" d="M25 244.3a6.3 6.3 0 0 0-6.3 6.3V283a6.3 6.3 0 0 0 6.3 6.3h68.4a6.3 6.3 0 0 0 6.3-6.3v-32.4a6.3 6.3 0 0 0-6.3-6.3Z"/><use xlink:href="#t" data-text="q" transform="matrix(16.2 0 0 -16.2 387.7 227.2)"/><use xlink:href="#u" data-text="u" transform="matrix(16.2 0 0 -16.2 395.8 227.2)"/><use xlink:href="#g" data-text="a" transform="matrix(16.2 0 0 -16.2 403.9 227.2)"/><use xlink:href="#c" data-text="n" transform="matrix(16.2 0 0 -16.2 411.093 227.2)"/><use xlink:href="#N" data-text="." transform="matrix(16.2 0 0 -16.2 419.193 227.2)"/><use xlink:href="#p" transform="matrix(16.2 0 0 -16.2 423.243 227.2)"/><use xlink:href="#a" data-text="c" transform="matrix(16.2 0 0 -16.2 427.293 227.2)"/><use xlink:href="#b" data-text="o" transform="matrix(16.2 0 0 -16.2 434.486 227.2)"/><use xlink:href="#k" data-text="m" transform="matrix(16.2 0 0 -16.2 442.586 227.2)"/><use xlink:href="#n" data-text="p" transform="matrix(16.2 0 0 -16.2 455.19 227.2)"/><use xlink:href="#u" data-text="u" transform="matrix(16.2 0 0 -16.2 463.29 227.2)"/><use xlink:href="#h" data-text="t" transform="matrix(16.2 0 0 -16.2 471.39 227.2)"/><use xlink:href="#g" data-text="a" transform="matrix(16.2 0 0 -16.2 475.893 227.2)"/><use xlink:href="#h" data-text="t" transform="matrix(16.2 0 0 -16.2 483.086 227.2)"/><use xlink:href="#i" data-text="i" transform="matrix(16.2 0 0 -16.2 487.59 227.2)"/><use xlink:href="#b" data-text="o" transform="matrix(16.2 0 0 -16.2 492.093 227.2)"/><use xlink:href="#c" data-text="n" transform="matrix(16.2 0 0 -16.2 500.193 227.2)"/><use xlink:href="#O" fill="#00f" data-text="O" transform="matrix(19.8 0 0 -19.8 203.2 167.8)"/><use xlink:href="#l" fill="#00f" data-text="r" transform="matrix(19.8 0 0 -19.8 217.496 167.8)"/><use xlink:href="#d" fill="#00f" data-text="d" transform="matrix(19.8 0 0 -19.8 224.089 167.8)"/><use xlink:href="#e" fill="#00f" data-text="e" transform="matrix(19.8 0 0 -19.8 233.989 167.8)"/><use xlink:href="#l" fill="#00f" data-text="r" transform="matrix(19.8 0 0 -19.8 242.78 167.8)"/><use xlink:href="#P" data-text="P" transform="matrix(16.2 0 0 -16.2 333.7 145.3)"/><use xlink:href="#g" data-text="a" transform="matrix(16.2 0 0 -16.2 342.707 145.3)"/><use xlink:href="#h" data-text="t" transform="matrix(16.2 0 0 -16.2 349.9 145.3)"/><use xlink:href="#h" data-text="t" transform="matrix(16.2 0 0 -16.2 354.404 145.3)"/><use xlink:href="#e" data-text="e" transform="matrix(16.2 0 0 -16.2 358.907 145.3)"/><use xlink:href="#l" data-text="r" transform="matrix(16.2 0 0 -16.2 366.1 145.3)"/><use xlink:href="#c" data-text="n" transform="matrix(16.2 0 0 -16.2 371.495 145.3)"/><use xlink:href="#b" data-text="o" transform="matrix(16.2 0 0 -16.2 333.7 164.2)"/><use xlink:href="#J" data-text="f" transform="matrix(16.2 0 0 -16.2 341.8 164.2)"/><use xlink:href="#p" transform="matrix(16.2 0 0 -16.2 347.195 164.2)"/><use xlink:href="#Q" data-text="z" transform="matrix(16.2 0 0 -16.2 351.245 164.2)"/><use xlink:href="#e" data-text="e" transform="matrix(16.2 0 0 -16.2 358.437 164.2)"/><use xlink:href="#l" data-text="r" transform="matrix(16.2 0 0 -16.2 365.63 164.2)"/><use xlink:href="#b" data-text="o" transform="matrix(16.2 0 0 -16.2 371.025 164.2)"/><use xlink:href="#f" data-text="s" transform="matrix(16.2 0 0 -16.2 379.125 164.2)"/><use xlink:href="#s" data-text="S" transform="matrix(16.2 0 0 -16.2 5.2 145.3)"/><use xlink:href="#h" data-text="t" transform="matrix(16.2 0 0 -16.2 14.207 145.3)"/><use xlink:href="#l" data-text="r" transform="matrix(16.2 0 0 -16.2 18.71 145.3)"/><use xlink:href="#i" data-text="i" transform="matrix(16.2 0 0 -16.2 24.105 145.3)"/><use xlink:href="#c" data-text="n" transform="matrix(16.2 0 0 -16.2 28.609 145.3)"/><use xlink:href="#m" data-text="g" transform="matrix(16.2 0 0 -16.2 36.709 145.3)"/><use xlink:href="#y" data-text="−" transform="matrix(16.2 0 0 -16.2 44.809 145.3)"/><use xlink:href="#c" data-text="n" transform="matrix(16.2 0 0 -16.2 53.946 145.3)"/><use xlink:href="#e" data-text="e" transform="matrix(16.2 0 0 -16.2 62.046 145.3)"/><use xlink:href="#h" data-text="t" transform="matrix(16.2 0 0 -16.2 69.239 145.3)"/><use xlink:href="#G" data-text="T" transform="matrix(16.2 0 0 -16.2 387.7 208.3)"/><use xlink:href="#b" data-text="o" transform="matrix(16.2 0 0 -16.2 397.598 208.3)"/><use xlink:href="#n" data-text="p" transform="matrix(16.2 0 0 -16.2 405.698 208.3)"/><use xlink:href="#b" data-text="o" transform="matrix(16.2 0 0 -16.2 413.798 208.3)"/><use xlink:href="#r" data-text="l" transform="matrix(16.2 0 0 -16.2 421.898 208.3)"/><use xlink:href="#b" data-text="o" transform="matrix(16.2 0 0 -16.2 426.402 208.3)"/><use xlink:href="#m" data-text="g" transform="matrix(16.2 0 0 -16.2 434.502 208.3)"/><use xlink:href="#i" data-text="i" transform="matrix(16.2 0 0 -16.2 442.602 208.3)"/><use xlink:href="#a" data-text="c" transform="matrix(16.2 0 0 -16.2 447.105 208.3)"/><use xlink:href="#g" data-text="a" transform="matrix(16.2 0 0 -16.2 454.298 208.3)"/><use xlink:href="#r" data-text="l" transform="matrix(16.2 0 0 -16.2 461.491 208.3)"/><use xlink:href="#G" fill="#00f" data-text="T" transform="matrix(19.8 0 0 -19.8 203.2 145.3)"/><use xlink:href="#b" fill="#00f" data-text="o" transform="matrix(19.8 0 0 -19.8 215.298 145.3)"/><use xlink:href="#n" fill="#00f" data-text="p" transform="matrix(19.8 0 0 -19.8 225.198 145.3)"/><use xlink:href="#b" fill="#00f" data-text="o" transform="matrix(19.8 0 0 -19.8 235.098 145.3)"/><use xlink:href="#r" fill="#00f" data-text="l" transform="matrix(19.8 0 0 -19.8 244.998 145.3)"/><use xlink:href="#b" fill="#00f" data-text="o" transform="matrix(19.8 0 0 -19.8 250.502 145.3)"/><use xlink:href="#m" fill="#00f" data-text="g" transform="matrix(19.8 0 0 -19.8 260.402 145.3)"/><use xlink:href="#i" fill="#00f" data-text="i" transform="matrix(19.8 0 0 -19.8 270.302 145.3)"/><use xlink:href="#a" fill="#00f" data-text="c" transform="matrix(19.8 0 0 -19.8 275.807 145.3)"/><use xlink:href="#g" fill="#00f" data-text="a" transform="matrix(19.8 0 0 -19.8 284.598 145.3)"/><use xlink:href="#r" fill="#00f" data-text="l" transform="matrix(19.8 0 0 -19.8 293.389 145.3)"/><path fill="none" stroke="red" stroke-miterlimit="10" stroke-width=".45" d="M425.5 248.8a6.3 6.3 0 0 0-6.3 6.3V283a6.3 6.3 0 0 0 6.3 6.3h86.4a6.3 6.3 0 0 0 6.3-6.3v-27.9a6.3 6.3 0 0 0-6.3-6.3ZM389.5 190.3a6.3 6.3 0 0 0-6.3 6.3V229a6.3 6.3 0 0 0 6.3 6.3h122.4a6.3 6.3 0 0 0 6.3-6.3v-32.4a6.3 6.3 0 0 0-6.3-6.3Z"/><use xlink:href="#F" data-text="F" transform="matrix(16.2 0 0 -16.2 338.2 91.3)"/><use xlink:href="#R" data-text="Q" transform="matrix(16.2 0 0 -16.2 347.207 91.3)"/><use xlink:href="#L" data-text="H" transform="matrix(16.2 0 0 -16.2 358.904 91.3)"/><use xlink:href="#L" data-text="H" transform="matrix(16.2 0 0 -16.2 270.7 28.3)"/><use xlink:href="#e" data-text="e" transform="matrix(16.2 0 0 -16.2 282.396 28.3)"/><use xlink:href="#l" data-text="r" transform="matrix(16.2 0 0 -16.2 289.59 28.3)"/><use xlink:href="#A" data-text="b" transform="matrix(16.2 0 0 -16.2 294.984 28.3)"/><use xlink:href="#e" data-text="e" transform="matrix(16.2 0 0 -16.2 303.084 28.3)"/><use xlink:href="#l" data-text="r" transform="matrix(16.2 0 0 -16.2 310.277 28.3)"/><use xlink:href="#h" data-text="t" transform="matrix(16.2 0 0 -16.2 315.671 28.3)"/><use xlink:href="#f" data-text="s" transform="matrix(16.2 0 0 -16.2 320.175 28.3)"/><use xlink:href="#k" data-text="m" transform="matrix(16.2 0 0 -16.2 326.477 28.3)"/><use xlink:href="#i" data-text="i" transform="matrix(16.2 0 0 -16.2 339.08 28.3)"/><use xlink:href="#h" data-text="t" transform="matrix(16.2 0 0 -16.2 343.584 28.3)"/><use xlink:href="#o" data-text="h" transform="matrix(16.2 0 0 -16.2 348.087 28.3)"/><use xlink:href="#i" data-text="i" transform="matrix(16.2 0 0 -16.2 356.187 28.3)"/><use xlink:href="#h" data-text="t" transform="matrix(16.2 0 0 -16.2 360.691 28.3)"/><use xlink:href="#e" data-text="e" transform="matrix(16.2 0 0 -16.2 365.195 28.3)"/><use xlink:href="#z" data-text="A" transform="matrix(16.2 0 0 -16.2 113.2 271.3)"/><use xlink:href="#S" data-text="D" transform="matrix(16.2 0 0 -16.2 124.896 271.3)"/><use xlink:href="#s" data-text="S" transform="matrix(16.2 0 0 -16.2 136.593 271.3)"/><use xlink:href="#T" data-text="/" transform="matrix(16.2 0 0 -16.2 145.6 271.3)"/><use xlink:href="#E" data-text="C" transform="matrix(16.2 0 0 -16.2 150.104 271.3)"/><use xlink:href="#F" data-text="F" transform="matrix(16.2 0 0 -16.2 160.909 271.3)"/><use xlink:href="#G" data-text="T" transform="matrix(16.2 0 0 -16.2 169.916 271.3)"/><use xlink:href="#G" data-text="T" transform="matrix(16.2 0 0 -16.2 306.7 208.3)"/><use xlink:href="#e" data-text="e" transform="matrix(16.2 0 0 -16.2 316.598 208.3)"/><use xlink:href="#c" data-text="n" transform="matrix(16.2 0 0 -16.2 323.791 208.3)"/><use xlink:href="#f" data-text="s" transform="matrix(16.2 0 0 -16.2 331.891 208.3)"/><use xlink:href="#b" data-text="o" transform="matrix(16.2 0 0 -16.2 338.193 208.3)"/><use xlink:href="#l" data-text="r" transform="matrix(16.2 0 0 -16.2 346.293 208.3)"/><use xlink:href="#E" data-text="C" transform="matrix(16.2 0 0 -16.2 306.7 227.2)"/><use xlink:href="#g" data-text="a" transform="matrix(16.2 0 0 -16.2 317.505 227.2)"/><use xlink:href="#h" data-text="t" transform="matrix(16.2 0 0 -16.2 324.698 227.2)"/><use xlink:href="#e" data-text="e" transform="matrix(16.2 0 0 -16.2 329.202 227.2)"/><use xlink:href="#m" data-text="g" transform="matrix(16.2 0 0 -16.2 336.395 227.2)"/><use xlink:href="#b" data-text="o" transform="matrix(16.2 0 0 -16.2 344.495 227.2)"/><use xlink:href="#l" data-text="r" transform="matrix(16.2 0 0 -16.2 352.595 227.2)"/><use xlink:href="#w" data-text="y" transform="matrix(16.2 0 0 -16.2 357.99 227.2)"/><use xlink:href="#x" fill="red" data-text="N" transform="matrix(16.2 0 0 -16.2 117.7 77.8)"/><use xlink:href="#u" fill="red" data-text="u" transform="matrix(16.2 0 0 -16.2 129.396 77.8)"/><use xlink:href="#k" fill="red" data-text="m" transform="matrix(16.2 0 0 -16.2 137.496 77.8)"/><use xlink:href="#e" fill="red" data-text="e" transform="matrix(16.2 0 0 -16.2 150.1 77.8)"/><use xlink:href="#l" fill="red" data-text="r" transform="matrix(16.2 0 0 -16.2 157.293 77.8)"/><use xlink:href="#i" fill="red" data-text="i" transform="matrix(16.2 0 0 -16.2 162.687 77.8)"/><use xlink:href="#a" fill="red" data-text="c" transform="matrix(16.2 0 0 -16.2 167.191 77.8)"/><use xlink:href="#g" fill="red" data-text="a" transform="matrix(16.2 0 0 -16.2 174.384 77.8)"/><use xlink:href="#r" fill="red" data-text="l" transform="matrix(16.2 0 0 -16.2 181.577 77.8)"/><use xlink:href="#z" fill="red" data-text="A" transform="matrix(16.2 0 0 -16.2 117.7 96.7)"/><use xlink:href="#n" fill="red" data-text="p" transform="matrix(16.2 0 0 -16.2 129.396 96.7)"/><use xlink:href="#n" fill="red" data-text="p" transform="matrix(16.2 0 0 -16.2 137.496 96.7)"/><use xlink:href="#l" fill="red" data-text="r" transform="matrix(16.2 0 0 -16.2 145.596 96.7)"/><use xlink:href="#b" fill="red" data-text="o" transform="matrix(16.2 0 0 -16.2 150.991 96.7)"/><use xlink:href="#g" fill="red" data-text="a" transform="matrix(16.2 0 0 -16.2 159.091 96.7)"/><use xlink:href="#a" fill="red" data-text="c" transform="matrix(16.2 0 0 -16.2 166.284 96.7)"/><use xlink:href="#o" fill="red" data-text="h" transform="matrix(16.2 0 0 -16.2 173.477 96.7)"/><use xlink:href="#G" fill="red" data-text="T" transform="matrix(16.2 0 0 -16.2 113.2 145.3)"/><use xlink:href="#e" fill="red" data-text="e" transform="matrix(16.2 0 0 -16.2 123.098 145.3)"/><use xlink:href="#c" fill="red" data-text="n" transform="matrix(16.2 0 0 -16.2 130.291 145.3)"/><use xlink:href="#f" fill="red" data-text="s" transform="matrix(16.2 0 0 -16.2 138.391 145.3)"/><use xlink:href="#b" fill="red" data-text="o" transform="matrix(16.2 0 0 -16.2 144.693 145.3)"/><use xlink:href="#l" fill="red" data-text="r" transform="matrix(16.2 0 0 -16.2 152.793 145.3)"/><use xlink:href="#x" fill="red" data-text="N" transform="matrix(16.2 0 0 -16.2 113.2 164.2)"/><use xlink:href="#e" fill="red" data-text="e" transform="matrix(16.2 0 0 -16.2 124.896 164.2)"/><use xlink:href="#h" fill="red" data-text="t" transform="matrix(16.2 0 0 -16.2 132.09 164.2)"/><use xlink:href="#U" fill="red" data-text="w" transform="matrix(16.2 0 0 -16.2 136.593 164.2)"/><use xlink:href="#b" fill="red" data-text="o" transform="matrix(16.2 0 0 -16.2 148.29 164.2)"/><use xlink:href="#l" fill="red" data-text="r" transform="matrix(16.2 0 0 -16.2 156.39 164.2)"/><use xlink:href="#M" fill="red" data-text="k" transform="matrix(16.2 0 0 -16.2 161.784 164.2)"/><use xlink:href="#E" fill="red" data-text="C" transform="matrix(16.2 0 0 -16.2 95.2 23.8)"/><use xlink:href="#b" fill="red" data-text="o" transform="matrix(16.2 0 0 -16.2 106.005 23.8)"/><use xlink:href="#c" fill="red" data-text="n" transform="matrix(16.2 0 0 -16.2 114.105 23.8)"/><use xlink:href="#h" fill="red" data-text="t" transform="matrix(16.2 0 0 -16.2 122.205 23.8)"/><use xlink:href="#N" fill="red" data-text="." transform="matrix(16.2 0 0 -16.2 126.709 23.8)"/><use xlink:href="#p" fill="red" transform="matrix(16.2 0 0 -16.2 130.759 23.8)"/><use xlink:href="#h" fill="red" data-text="t" transform="matrix(16.2 0 0 -16.2 134.809 23.8)"/><use xlink:href="#l" fill="red" data-text="r" transform="matrix(16.2 0 0 -16.2 139.313 23.8)"/><use xlink:href="#g" fill="red" data-text="a" transform="matrix(16.2 0 0 -16.2 144.707 23.8)"/><use xlink:href="#c" fill="red" data-text="n" transform="matrix(16.2 0 0 -16.2 151.9 23.8)"/><use xlink:href="#f" fill="red" data-text="s" transform="matrix(16.2 0 0 -16.2 160 23.8)"/><use xlink:href="#N" fill="red" data-text="." transform="matrix(16.2 0 0 -16.2 166.302 23.8)"/><use xlink:href="#p" fill="red" transform="matrix(16.2 0 0 -16.2 170.352 23.8)"/><use xlink:href="#U" fill="red" data-text="w" transform="matrix(16.2 0 0 -16.2 174.402 23.8)"/><use xlink:href="#i" fill="red" data-text="i" transform="matrix(16.2 0 0 -16.2 186.098 23.8)"/><use xlink:href="#h" fill="red" data-text="t" transform="matrix(16.2 0 0 -16.2 190.602 23.8)"/><use xlink:href="#o" fill="red" data-text="h" transform="matrix(16.2 0 0 -16.2 195.105 23.8)"/><use xlink:href="#b" fill="red" data-text="o" transform="matrix(16.2 0 0 -16.2 203.205 23.8)"/><use xlink:href="#u" fill="red" data-text="u" transform="matrix(16.2 0 0 -16.2 211.305 23.8)"/><use xlink:href="#h" fill="red" data-text="t" transform="matrix(16.2 0 0 -16.2 219.405 23.8)"/><use xlink:href="#f" fill="red" data-text="s" transform="matrix(16.2 0 0 -16.2 95.2 42.7)"/><use xlink:href="#w" fill="red" data-text="y" transform="matrix(16.2 0 0 -16.2 101.502 42.7)"/><use xlink:href="#k" fill="red" data-text="m" transform="matrix(16.2 0 0 -16.2 109.602 42.7)"/><use xlink:href="#k" fill="red" data-text="m" transform="matrix(16.2 0 0 -16.2 122.205 42.7)"/><use xlink:href="#N" fill="red" data-text="." transform="matrix(16.2 0 0 -16.2 134.809 42.7)"/><use xlink:href="#p" fill="red" transform="matrix(16.2 0 0 -16.2 138.859 42.7)"/><use xlink:href="#A" fill="red" data-text="b" transform="matrix(16.2 0 0 -16.2 142.909 42.7)"/><use xlink:href="#l" fill="red" data-text="r" transform="matrix(16.2 0 0 -16.2 151.009 42.7)"/><use xlink:href="#e" fill="red" data-text="e" transform="matrix(16.2 0 0 -16.2 156.404 42.7)"/><use xlink:href="#g" fill="red" data-text="a" transform="matrix(16.2 0 0 -16.2 163.596 42.7)"/><use xlink:href="#M" fill="red" data-text="k" transform="matrix(16.2 0 0 -16.2 170.79 42.7)"/><use xlink:href="#i" fill="red" data-text="i" transform="matrix(16.2 0 0 -16.2 178.89 42.7)"/><use xlink:href="#c" fill="red" data-text="n" transform="matrix(16.2 0 0 -16.2 183.393 42.7)"/><use xlink:href="#m" fill="red" data-text="g" transform="matrix(16.2 0 0 -16.2 191.493 42.7)"/><use xlink:href="#R" data-text="Q" transform="matrix(16.2 0 0 -16.2 27.7 262.3)"/><use xlink:href="#u" data-text="u" transform="matrix(16.2 0 0 -16.2 39.396 262.3)"/><use xlink:href="#g" data-text="a" transform="matrix(16.2 0 0 -16.2 47.496 262.3)"/><use xlink:href="#c" data-text="n" transform="matrix(16.2 0 0 -16.2 54.69 262.3)"/><use xlink:href="#h" data-text="t" transform="matrix(16.2 0 0 -16.2 62.79 262.3)"/><use xlink:href="#u" data-text="u" transform="matrix(16.2 0 0 -16.2 67.293 262.3)"/><use xlink:href="#k" data-text="m" transform="matrix(16.2 0 0 -16.2 75.393 262.3)"/><use xlink:href="#O" data-text="O" transform="matrix(16.2 0 0 -16.2 27.7 280.3)"/><use xlink:href="#l" data-text="r" transform="matrix(16.2 0 0 -16.2 39.396 280.3)"/><use xlink:href="#d" data-text="d" transform="matrix(16.2 0 0 -16.2 44.791 280.3)"/><use xlink:href="#e" data-text="e" transform="matrix(16.2 0 0 -16.2 52.891 280.3)"/><use xlink:href="#l" data-text="r" transform="matrix(16.2 0 0 -16.2 60.084 280.3)"/><path fill="none" stroke="#000" stroke-miterlimit="10" stroke-width=".45" d="M54.7 230.8v13.5M99.7 248.8l72-22.5"/></svg>