<svg xmlns="http://www.w3.org/2000/svg" xmlns:xlink="http://www.w3.org/1999/xlink" width="210" height="105"><defs><path id="b" d="M.159.714c0 .018 0 .036-.02.036S.119.732.119.714v-.928c0-.018 0-.036.02-.036s.02.018.02.036z"/><path id="c" d="m.482.668.003.015c0 .01-.007.011-.012.011-.01 0-.011-.002-.015-.02L.292.014Q.178.025.178.124c0 .02 0 .046.054.186.004.012.011.03.011.05a.08.08 0 0 1-.082.081C.066.442.029.297.029.288s.01-.01.012-.01c.01 0 .011.002.016.018C.084.391.124.42.158.42.166.42.183.42.183.388.183.362.173.338.16.302.112.176.112.15.112.133c0-.095.078-.136.174-.142C.278-.045.278-.047.264-.099L.241-.196c0-.001 0-.01.012-.01q.005-.001.009.004a.2.2 0 0 1 .012.041l.038.15c.037 0 .125 0 .219.106.041.046.062.09.073.12a.7.7 0 0 1 .031.156c0 .056-.027.07-.044.07-.025 0-.05-.026-.05-.048 0-.013.006-.019.015-.027A.11.11 0 0 0 .592.282C.592.218.54.136.505.1.417.011.353.011.317.011z"/><path id="d" d="M.273.233C.278.245.278.247.278.25s0 .005-.005.017l-.175.46Q.09.751.075.75a.02.02 0 0 1-.02-.02c0-.003 0-.005.005-.016L.237.25.06-.212C.055-.223.055-.225.055-.23a.02.02 0 0 1 .02-.02c.013 0 .017.01.021.02z"/><path id="e" d="M.46.32C.46.4.455.48.42.554A.185.185 0 0 1 .076.547.5.5 0 0 1 .039.32c0-.075.004-.165.045-.241a.18.18 0 0 1 .165-.101c.054 0 .13.02.174.116C.455.163.46.24.46.32M.249 0C.21 0 .151.025.133.12.122.18.122.274.122.333c0 .064 0 .13.008.184.019.119.094.128.119.128.033 0 .099-.018.118-.117.01-.056.01-.132.01-.195 0-.075 0-.143-.011-.207C.351.03.294 0 .249 0"/><path id="h" d="M.412.6c.009.037.012.047.104.047.031 0 .041 0 .041.022 0 0-.001.014-.017.014L.466.68.386.679H.317C.296.68.272.684.252.684.246.683.231.683.231.66c0-.014.012-.014.032-.014.001 0 .02 0 .038-.002C.322.643.324.64.324.63Q.325.63.32.609L.187.078C.178.044.176.036.099.036c-.017 0-.03 0-.03-.021C.069 0 .081 0 .099 0h.503c.025 0 .026.001.034.02.01.027.085.22.085.229 0 .003-.002.014-.017.014C.692.263.69.258.684.242.646.147.602.036.419.036H.306c-.031 0-.032.001-.032.01q-.001 0 .004.021z"/><path id="j" d="m.708.233.005.014s0 .01-.012.01Q.689.257.688.247C.623.098.586.03.415.03H.269L.247.032q-.014 0-.013.01c0 .003 0 .005.005.023l.068.273h.099C.491.338.491.317.491.292c0-.007 0-.02-.007-.05L.481.233q0-.01.013-.011.01-.001.015.02l.057.234q0 .01-.012.01T.54.469C.519.392.501.368.409.368H.315l.06.242c.009.035.01.039.054.039H.57c.122 0 .152-.03.152-.111 0-.024 0-.026-.004-.053L.717.467C.717.462.72.455.729.455.74.455.741.46.743.48l.02.173C.766.68.761.68.736.68H.231c-.02 0-.03 0-.03-.02C.201.649.21.649.229.649c.037 0 .065 0 .065-.018 0-.004 0-.006-.005-.024L.157.078C.147.039.145.031.066.031c-.017 0-.028 0-.028-.019C.038 0 .047 0 .066 0h.519c.023 0 .024.001.031.017z"/><path id="l" d="M.763.606c.009.036.011.046.084.046.026 0 .034 0 .034.02 0 .01-.011.01-.014.01L.739.68.61.683c-.008 0-.019 0-.019-.02C.591.652.6.652.619.652.621.652.64.652.657.65.675.648.684.647.684.634L.68.614.62.372H.315l.059.235c.009.036.012.046.084.046.026 0 .034 0 .034.02 0 .01-.011.01-.014.01L.35.68.221.683c-.008 0-.019 0-.019-.02C.202.652.211.652.23.652c.002 0 .021 0 .038-.002C.286.648.295.647.295.634L.291.614.157.079C.147.039.145.031.066.031c-.018 0-.027 0-.027-.02C.039 0 .051 0 .053 0L.18.003.244.002.309 0c.008 0 .02 0 .02.02C.329.031.32.031.301.031c-.037 0-.065 0-.065.018q0 .009.003.017L.307.34h.305L.543.064C.533.032.514.031.452.031c-.015 0-.024 0-.024-.02C.428 0 .44 0 .442 0l.127.003.064-.001L.698 0c.008 0 .02 0 .02.02C.718.031.709.031.69.031c-.037 0-.065 0-.065.018q0 .009.003.017z"/><path id="o" d="M.72.659q.002.006.003.015c0 .009-.005.009-.025.009H.276C.252.683.251.682.245.663L.19.483.187.469c0-.001 0-.011.012-.011.009 0 .011.007.013.01.038.118.09.184.246.184h.163L.062.027.058.009C.058 0 .065 0 .083 0h.435c.024 0 .025.001.031.02L.62.24l.004.016q0 .009-.013.01C.602.267.601.264.594.243.55.106.502.034.332.034H.161z"/><path id="p" d="M.335.636c0 .027-.002.028-.03.028C.241.601.15.6.109.6V.564c.024 0 .09 0 .145.028v-.51c0-.033 0-.046-.1-.046H.116V0l.178.004L.473 0v.036H.435c-.1 0-.1.013-.1.046z"/><path id="q" d="M.505.182H.471C.468.16.458.101.445.091.437.085.36.085.346.085H.162a4 4 0 0 0 .2.168c.074.06.143.121.143.216C.505.59.399.664.271.664.147.664.063.577.063.485.063.435.106.43.116.43.14.43.169.446.169.482.169.5.162.535.11.535c.031.071.099.093.146.093.1 0 .152-.078.152-.159C.408.382.346.313.314.277L.073.04C.063.03.063.028.063 0h.412z"/><path id="s" d="M.273.334C.351.334.407.28.407.174.407.048.335.011.277.011c-.04 0-.128.011-.17.07.047.002.058.035.058.056A.054.054 0 0 1 .11.193C.082.193.054.176.054.135c0-.094.104-.155.225-.155.139 0 .235.093.235.193C.514.251.45.33.34.353.445.39.483.464.483.525c0 .08-.091.138-.202.138S.085.61.085.53c0-.034.022-.053.052-.053a.05.05 0 0 1 .051.051c0 .03-.02.05-.051.052.035.044.104.055.141.055.045 0 .108-.022.108-.109a.2.2 0 0 0-.04-.119C.313.37.285.367.235.364L.203.361C.201.361.193.36.193.348c0-.014.009-.014.026-.014z"/><path id="v" d="M.136.078C.136.042.134.031.057.031H.033V0H.61l.042.258H.627C.602.104.579.03.407.03H.274c-.047 0-.049.007-.049.04v.267h.09C.412.338.423.306.423.22h.025v.265H.423C.423.4.412.369.315.369h-.09v.24c0 .033.002.04.049.04h.129c.153 0 .18-.055.196-.194h.025L.596.68H.033V.649h.024C.134.649.136.638.136.602z"/><path id="w" d="M.11.344V.076C.11.031.099.031.032.031V0l.113.003L.257 0v.031c-.067 0-.078 0-.078.045V.26c0 .104.071.16.135.16C.377.42.388.366.388.31V.075C.388.031.377.031.31.031V0l.113.003L.535 0v.031c-.052 0-.077 0-.078.03v.191c0 .086 0 .117-.031.153C.412.422.379.442.321.442.248.442.201.4.173.337v.105L.032.432V.4C.102.4.11.393.11.344"/><path id="x" d="M.117.218c0 .163.082.205.135.205.009 0 .072 0 .107-.037C.318.383.312.353.312.34.312.314.33.294.358.294.384.294.404.31.404.34c0 .068-.076.107-.153.107C.126.448.034.34.034.216c0-.128.099-.227.215-.227.134 0 .166.12.166.13S.405.13.402.13Q.39.13.389.12C.36.026.295.014.258.014.205.014.117.057.117.218"/><path id="y" d="M.471.214c0 .128-.1.234-.221.234C.125.448.028.34.028.214c0-.129.104-.225.221-.225.121 0 .222.098.222.225M.25.014a.13.13 0 0 0-.114.067C.111.125.111.186.111.222c0 .04 0 .093.024.137a.13.13 0 0 0 .114.067.13.13 0 0 0 .113-.065C.388.318.388.261.388.222c0-.036 0-.09-.022-.134A.13.13 0 0 0 .25.014"/><path id="z" d="M.38.055V-.01L.527 0v.031c-.07 0-.078.007-.078.056v.607L.305.684V.651c.07 0 .078-.007.078-.056V.38a.16.16 0 0 1-.126.062.226.226 0 0 1-.223-.227c0-.127.098-.226.212-.226.064 0 .109.034.134.066m0 .268V.118C.38.1.38.098.369.081a.14.14 0 0 0-.118-.07C.206.011.17.037.146.075a.27.27 0 0 0-.029.14c0 .036.002.096.031.141A.14.14 0 0 0 .261.42.13.13 0 0 0 .369.36C.38.343.38.341.38.323"/><path id="A" d="M.112.252c.006.15.09.174.124.174.103 0 .113-.135.113-.174zM.111.232H.39c.022 0 .025 0 .025.02 0 .1-.054.196-.179.196C.12.448.028.345.028.22c0-.134.105-.23.22-.23.122 0 .167.11.167.13C.415.13.407.13.402.13Q.39.13.389.117C.354.014.264.014.254.014c-.05 0-.09.03-.113.067-.03.048-.03.114-.03.15"/><path id="B" d="M.167.332v.11L.028.432V.4C.098.4.106.393.106.344V.076C.106.031.095.031.028.031V0l.114.003c.04 0 .087 0 .127-.003v.031H.248C.174.031.172.042.172.078v.154c0 .1.042.188.118.188h.011A.04.04 0 0 1 .278.38c0-.028.021-.043.043-.043.018 0 .043.012.043.044S.333.442.29.442C.217.442.181.375.167.332"/><path id="C" d="m.349.388-.128.03a.13.13 0 0 0 .031.26c.167 0 .189-.165.195-.21C.448.462.448.456.459.456.472.456.472.46.472.48V.68c0 .017 0 .024-.011.024-.007 0-.008 0-.015-.013L.411.635c-.03.03-.071.07-.16.07A.194.194 0 0 1 .187.328C.198.324.249.312.319.295.346.288.376.28.404.244A.15.15 0 0 0 .435.152C.435.08.385.009.301.009a.24.24 0 0 0-.158.054.2.2 0 0 0-.062.154C.08.227.072.227.069.227.056.227.056.22.056.202v-.2c0-.017 0-.024.011-.024.007 0 .008.002.015.013l.036.057a.25.25 0 0 1 .184-.07c.117 0 .197.098.197.208 0 .1-.066.182-.15.202"/><path id="D" d="M.415.336A.094.094 0 0 0 .508.4v.03a1 1 0 0 0-.162 0V.4C.377.399.393.382.393.357.393.347.392.345.387.333L.286.087.175.356Q.169.37.169.374C.169.4.206.4.225.4v.03L.116.429c-.027 0-.067 0-.097.003V.4C.067.4.086.4.1.365L.25 0 .225-.06C.203-.113.175-.182.111-.182c-.005 0-.028 0-.047.018.031.004.039.026.039.042a.04.04 0 0 1-.042.042c-.02 0-.042-.013-.042-.043 0-.045.042-.081.092-.081.063 0 .104.057.128.114z"/><path id="E" d="M.11.344V.076C.11.031.099.031.032.031V0l.113.003L.257 0v.031c-.067 0-.078 0-.078.045V.26c0 .104.071.16.135.16C.377.42.388.366.388.31V.075C.388.031.377.031.31.031V0l.113.003L.535 0v.031c-.067 0-.078 0-.078.045V.26c0 .104.071.16.135.16C.655.42.666.366.666.31V.075C.666.031.655.031.588.031V0l.113.003L.813 0v.031c-.052 0-.077 0-.078.03v.191c0 .086 0 .117-.031.153C.69.422.657.442.599.442A.16.16 0 0 1 .454.344C.44.431.366.442.321.442.248.442.201.4.173.337v.105L.032.432V.4C.102.4.11.393.11.344"/><path id="F" d="M.287.235c.03.038.068.087.092.113C.41.384.451.398.498.4v.03a1 1 0 0 0-.178 0V.4C.341.398.349.385.349.369A.06.06 0 0 0 .334.334L.272.256l-.078.1C.185.367.185.37.185.376.185.39.2.399.22.4v.03L.112.429c-.021 0-.068 0-.095.003V.4C.087.4.088.399.135.339l.099-.13L.14.092A.16.16 0 0 0 .012.03V0c.026.002.057.003.083.003L.19 0v.031C.168.034.161.047.161.062c0 .022.029.055.09.127l.076-.1C.335.078.348.062.348.056.348.047.339.032.312.031V0L.42.003C.447.003.486.002.516 0v.031C.462.031.444.033.421.062z"/><path id="G" d="M.173.4h.143v.03H.173v.185H.148C.147.533.117.425.019.422V.4h.085V.124c0-.123.093-.135.129-.135.071 0 .099.071.099.135v.057H.307V.126C.307.052.277.014.24.014.173.014.173.105.173.122z"/><path id="H" d="M.333.076c.004-.04.031-.082.078-.082.021 0 .082.014.082.095v.056H.468V.09C.468.031.443.025.432.025.399.025.395.07.395.075v.2c0 .042 0 .081-.036.118a.2.2 0 0 1-.137.055C.14.448.071.401.071.335c0-.03.02-.047.046-.047.028 0 .046.02.046.046C.163.346.158.38.112.38.139.415.188.426.22.426.269.426.326.387.326.298V.261C.275.258.205.255.142.225.067.191.042.14.042.095c0-.08.097-.106.16-.106.066 0 .112.04.131.087M.326.24v-.1C.326.045.254.011.209.011c-.049 0-.09.035-.09.085 0 .055.042.138.207.144"/><path id="I" d="m.177.442-.14-.01V.4C.102.4.111.394.111.345V.076C.111.031.1.031.033.031V0l.11.003Q.196.003.247 0v.031c-.066 0-.07.005-.07.044zm.004.174a.05.05 0 0 1-.053.053.054.054 0 0 1-.053-.053c0-.027.022-.053.053-.053.028 0 .053.02.053.053"/><clipPath id="a"><path d="M-44 107h264.009V-2.544H-44Z"/></clipPath><clipPath id="f"><path d="M31.384 44.035a2.989 2.989 0 1 0-5.977 0 2.989 2.989 0 0 0 5.977 0m-2.989 0"/></clipPath><clipPath id="g"><path d="M43.34 61.968a2.989 2.989 0 1 0-5.978 0 2.989 2.989 0 0 0 5.977 0m-2.99 0"/></clipPath><clipPath id="i"><path d="M93.651 67.946V20.124H81.696v47.822Z"/></clipPath><clipPath id="k"><path d="M113.079 85.879V73.923h-11.955V85.88Z"/></clipPath><clipPath id="m"><path d="M113.079 103.812V91.856h-11.955v11.956Z"/></clipPath><clipPath id="n"><path d="M141.97 50.013V20.124h-22.913v29.889Z"/></clipPath><clipPath id="r"><path d="M170.863 67.946V38.057h-22.914v29.889Z"/></clipPath><clipPath id="t"><path d="M188.796 103.812V91.856H176.84v11.956Z"/></clipPath><clipPath id="u"><path d="M188.796 85.879V73.923H176.84V85.88Z"/></clipPath></defs><g clip-path="url(#a)"><path fill="#fff" d="M16.44 106.8V17.136h193.278V106.8Zm193.278-89.664"/><path fill="none" stroke="#fff" stroke-miterlimit="10" stroke-width=".399" d="M16.44 106.8V17.136h193.278V106.8Zm193.278-89.664"/><path fill="none" stroke="#000" stroke-miterlimit="10" stroke-width=".399" d="M16.44 26.102h193.278"/><use xlink:href="#b" data-text="|" transform="matrix(9.9626 0 0 -9.9626 -.569 28.594)"/><use xlink:href="#c" data-text="ψ" transform="matrix(9.9626 0 0 -9.9626 2.198 28.594)"/><use xlink:href="#d" data-text="⟩" transform="matrix(9.9626 0 0 -9.9626 9.045 28.594)"/><path fill="none" stroke="#000" stroke-miterlimit="10" stroke-width=".399" d="M16.44 44.035h193.278"/><use xlink:href="#b" data-text="|" transform="matrix(9.9626 0 0 -9.9626 1.297 46.527)"/><use xlink:href="#e" data-text="0" transform="matrix(9.9626 0 0 -9.9626 4.064 46.527)"/><use xlink:href="#d" data-text="⟩" transform="matrix(9.9626 0 0 -9.9626 9.046 46.527)"/><path fill="none" stroke="#000" stroke-miterlimit="10" stroke-width=".399" d="M16.44 61.968h193.278"/><use xlink:href="#b" data-text="|" transform="matrix(9.9626 0 0 -9.9626 1.297 64.46)"/><use xlink:href="#e" data-text="0" transform="matrix(9.9626 0 0 -9.9626 4.064 64.46)"/><use xlink:href="#d" data-text="⟩" transform="matrix(9.9626 0 0 -9.9626 9.046 64.46)"/><path fill="none" stroke="#000" stroke-miterlimit="10" stroke-width=".399" d="M87.674 79.901H200.75M200.751 80.4h8.967M200.751 79.403h8.967M87.674 97.834H200.75M200.751 98.332h8.967M200.751 97.336h8.967M28.395 26.102v17.933"/><path d="M29.89 26.102a1.494 1.494 0 1 0-2.99 0 1.494 1.494 0 0 0 2.99 0m-1.495 0"/><path fill="none" stroke="#000" stroke-miterlimit="10" stroke-width=".399" d="M29.89 26.102a1.494 1.494 0 1 0-2.99 0 1.494 1.494 0 0 0 2.99 0Zm-1.495 0"/><path fill="#fff" d="M31.384 44.035a2.989 2.989 0 1 0-5.977 0 2.989 2.989 0 0 0 5.977 0m-2.989 0"/><path fill="none" stroke="#000" stroke-miterlimit="10" stroke-width=".399" d="M31.384 44.035a2.989 2.989 0 1 0-5.977 0 2.989 2.989 0 0 0 5.977 0Zm-2.989 0"/><g fill="none" stroke="#000" stroke-miterlimit="10" stroke-width=".399" clip-path="url(#f)"><path d="M25.406 44.035h5.978M28.395 47.024v-5.978"/></g><path fill="none" stroke="#000" stroke-miterlimit="10" stroke-width=".399" d="M40.35 44.035v17.933"/><path d="M41.845 44.035a1.494 1.494 0 1 0-2.989 0 1.494 1.494 0 0 0 2.99 0m-1.494 0"/><path fill="none" stroke="#000" stroke-miterlimit="10" stroke-width=".399" d="M41.845 44.035a1.494 1.494 0 1 0-2.989 0 1.494 1.494 0 0 0 2.99 0Zm-1.494 0"/><path fill="#fff" d="M43.34 61.968a2.989 2.989 0 1 0-5.978 0 2.989 2.989 0 0 0 5.977 0m-2.99 0"/><path fill="none" stroke="#000" stroke-miterlimit="10" stroke-width=".399" d="M43.34 61.968a2.989 2.989 0 1 0-5.978 0 2.989 2.989 0 0 0 5.977 0Zm-2.99 0"/><g fill="none" stroke="#000" stroke-miterlimit="10" stroke-width=".399" clip-path="url(#g)"><path d="M37.362 61.968h5.977M40.35 64.957v-5.978"/></g><path fill="#fff" d="M49.317 67.946V20.124h24.907v47.822Zm24.907-47.822"/><path fill="none" stroke="#fff" stroke-miterlimit="10" stroke-width=".399" d="M49.317 67.946V20.124h24.907v47.822Zm24.907-47.822"/><use xlink:href="#b" data-text="|" transform="matrix(9.9626 0 0 -9.9626 52.043 46.278)"/><use xlink:href="#c" data-text="ψ" transform="matrix(9.9626 0 0 -9.9626 54.811 46.278)"/><use xlink:href="#d" data-text="⟩" transform="matrix(9.9626 0 0 -9.9626 61.658 46.278)"/><use xlink:href="#h" data-text="L" transform="matrix(6.9738 0 0 -6.9738 65.532 49.267)"/><path fill="#fff" d="M80.002 88.868h14.945V70.935H80.002Z"/><use xlink:href="#b" data-text="|" transform="matrix(9.9626 0 0 -9.9626 80.002 82.392)"/><use xlink:href="#e" data-text="0" transform="matrix(9.9626 0 0 -9.9626 82.769 82.392)"/><use xlink:href="#d" data-text="⟩" transform="matrix(9.9626 0 0 -9.9626 87.75 82.392)"/><path fill="#fff" d="M80.002 106.8h14.945V88.868H80.002Z"/><use xlink:href="#b" data-text="|" transform="matrix(9.9626 0 0 -9.9626 80.002 100.325)"/><use xlink:href="#e" data-text="0" transform="matrix(9.9626 0 0 -9.9626 82.769 100.325)"/><use xlink:href="#d" data-text="⟩" transform="matrix(9.9626 0 0 -9.9626 87.75 100.325)"/><path fill="none" stroke="#000" stroke-miterlimit="10" stroke-width=".399" d="M87.674 26.102v35.866"/><path fill="#fff" d="M93.651 67.946V20.124H81.696v47.822Z"/><path fill="none" stroke="#000" stroke-miterlimit="10" stroke-width=".399" d="M93.651 67.946V20.124H81.696v47.822Z"/><g clip-path="url(#i)"><use xlink:href="#j" data-text="E" transform="matrix(9.9626 0 0 -9.9626 83.708 47.44)"/></g><path fill="#fff" d="M113.079 85.879V73.923h-11.955V85.88Z"/><path fill="none" stroke="#000" stroke-miterlimit="10" stroke-width=".399" d="M113.079 85.879V73.923h-11.955V85.88Z"/><g clip-path="url(#k)"><use xlink:href="#l" data-text="H" transform="matrix(9.9626 0 0 -9.9626 102.554 83.305)"/></g><path fill="#fff" d="M113.079 103.812V91.856h-11.955v11.956Z"/><path fill="none" stroke="#000" stroke-miterlimit="10" stroke-width=".399" d="M113.079 103.812V91.856h-11.955v11.956Z"/><g clip-path="url(#m)"><use xlink:href="#l" data-text="H" transform="matrix(9.9626 0 0 -9.9626 102.554 101.238)"/></g><path fill="none" stroke="#000" stroke-miterlimit="10" stroke-width=".399" d="M130.514 26.102v53.799"/><path fill="#fff" d="M141.97 50.013V20.124h-22.913v29.889Z"/><path fill="none" stroke="#000" stroke-miterlimit="10" stroke-width=".399" d="M141.97 50.013V20.124h-22.913v29.889Z"/><g clip-path="url(#n)"><use xlink:href="#o" data-text="Z" transform="matrix(9.9626 0 0 -9.9626 119.242 37.726)"/><use xlink:href="#p" data-text="1" transform="matrix(6.9738 0 0 -6.9738 126.043 39.221)"/><use xlink:href="#o" data-text="Z" transform="matrix(9.9626 0 0 -9.9626 130.512 37.726)"/><use xlink:href="#q" data-text="2" transform="matrix(6.9738 0 0 -6.9738 137.313 39.221)"/></g><path d="M132.008 79.901a1.494 1.494 0 1 0-2.989 0 1.494 1.494 0 0 0 2.99 0m-1.494 0"/><path fill="none" stroke="#000" stroke-miterlimit="10" stroke-width=".399" d="M132.008 79.901a1.494 1.494 0 1 0-2.989 0 1.494 1.494 0 0 0 2.99 0ZM159.406 44.035v53.799"/><path fill="#fff" d="M170.863 67.946V38.057h-22.914v29.889Z"/><path fill="none" stroke="#000" stroke-miterlimit="10" stroke-width=".399" d="M170.863 67.946V38.057h-22.914v29.889Z"/><g clip-path="url(#r)"><use xlink:href="#o" data-text="Z" transform="matrix(9.9626 0 0 -9.9626 148.133 55.659)"/><use xlink:href="#q" data-text="2" transform="matrix(6.9738 0 0 -6.9738 154.934 57.154)"/><use xlink:href="#o" data-text="Z" transform="matrix(9.9626 0 0 -9.9626 159.404 55.659)"/><use xlink:href="#s" data-text="3" transform="matrix(6.9738 0 0 -6.9738 166.204 57.154)"/></g><path d="M160.9 97.834a1.494 1.494 0 1 0-2.989 0 1.494 1.494 0 0 0 2.99 0m-1.494 0"/><path fill="none" stroke="#000" stroke-miterlimit="10" stroke-width=".399" d="M160.9 97.834a1.494 1.494 0 1 0-2.989 0 1.494 1.494 0 0 0 2.99 0Zm-1.494 0"/><path fill="#fff" d="M188.796 103.812V91.856H176.84v11.956Z"/><path fill="none" stroke="#000" stroke-miterlimit="10" stroke-width=".399" d="M188.796 103.812V91.856H176.84v11.956Z"/><g clip-path="url(#t)"><use xlink:href="#l" data-text="H" transform="matrix(9.9626 0 0 -9.9626 178.27 101.238)"/></g><path fill="#fff" d="M188.796 85.879V73.923H176.84V85.88Z"/><path fill="none" stroke="#000" stroke-miterlimit="10" stroke-width=".399" d="M188.796 85.879V73.923H176.84V85.88Z"/><g clip-path="url(#u)"><use xlink:href="#l" data-text="H" transform="matrix(9.9626 0 0 -9.9626 178.27 83.305)"/></g><path fill="#fff" d="M194.774 85.879V73.923h11.955V85.88Zm11.955-11.956"/><path fill="none" stroke="#000" stroke-miterlimit="10" stroke-width=".399" d="M194.774 85.879V73.923h11.955V85.88Zm11.955-11.956"/><path fill="none" stroke="#000" stroke-miterlimit="10" stroke-width=".199" d="M200.751 79.303a5.98 5.98 0 0 0-5.177 2.99M200.751 79.303c2.136 0 4.11 1.14 5.177 2.99"/><path fill="none" stroke="#000" stroke-miterlimit="10" stroke-width=".399" d="m200.751 85.28 1.452-8.233"/><path d="m202.55 75.085-2.124 2.862 1.777-.9 1.362 1.454"/><path fill="#fff" d="M194.774 103.812V91.856h11.955v11.956Zm11.955-11.956"/><path fill="none" stroke="#000" stroke-miterlimit="10" stroke-width=".399" d="M194.774 103.812V91.856h11.955v11.956Zm11.955-11.956"/><path fill="none" stroke="#000" stroke-miterlimit="10" stroke-width=".199" d="M200.751 97.236a5.98 5.98 0 0 0-5.177 2.99M200.751 97.236c2.136 0 4.11 1.14 5.177 2.99"/><path fill="none" stroke="#000" stroke-miterlimit="10" stroke-width=".399" d="m200.751 103.214 1.452-8.234"/><path d="m202.55 93.018-2.124 2.862 1.777-.9 1.362 1.454"/><path fill="none" stroke="#000" stroke-miterlimit="10" stroke-width="1.196" d="M23.912 17.136c.598-1.196 1.993-1.993 3.985-1.993h2.49c1.993 0 3.388-.797 3.986-1.993.598 1.196 1.993 1.993 3.985 1.993h2.49c1.993 0 3.388.797 3.986 1.993"/><use xlink:href="#v" data-text="E" transform="matrix(9.9626 0 0 -9.9626 16.44 9.632)"/><use xlink:href="#w" data-text="n" transform="matrix(9.9626 0 0 -9.9626 23.225 9.632)"/><use xlink:href="#x" data-text="c" transform="matrix(9.9626 0 0 -9.9626 28.764 9.632)"/><use xlink:href="#y" data-text="o" transform="matrix(9.9626 0 0 -9.9626 33.187 9.632)"/><use xlink:href="#z" data-text="d" transform="matrix(9.9626 0 0 -9.9626 38.447 9.632)"/><use xlink:href="#A" data-text="e" transform="matrix(9.9626 0 0 -9.9626 43.987 9.632)"/><use xlink:href="#B" data-text="r" transform="matrix(9.9626 0 0 -9.9626 48.41 9.632)"/><path fill="none" stroke="#000" stroke-miterlimit="10" stroke-width="1.196" d="M99.63 17.136c.597-1.196 1.992-1.993 3.984-1.993h37.36c1.993 0 3.388-.797 3.986-1.993.597 1.196 1.992 1.993 3.985 1.993h37.36c1.993 0 3.388.797 3.985 1.993"/><use xlink:href="#C" data-text="S" transform="matrix(9.9626 0 0 -9.9626 99.545 7.695)"/><use xlink:href="#D" data-text="y" transform="matrix(9.9626 0 0 -9.9626 105.084 7.695)"/><use xlink:href="#w" data-text="n" transform="matrix(9.9626 0 0 -9.9626 110.344 7.695)"/><use xlink:href="#z" data-text="d" transform="matrix(9.9626 0 0 -9.9626 115.884 7.695)"/><use xlink:href="#B" data-text="r" transform="matrix(9.9626 0 0 -9.9626 121.423 7.695)"/><use xlink:href="#y" data-text="o" transform="matrix(9.9626 0 0 -9.9626 125.328 7.695)"/><use xlink:href="#E" data-text="m" transform="matrix(9.9626 0 0 -9.9626 130.31 7.695)"/><use xlink:href="#A" data-text="e" transform="matrix(9.9626 0 0 -9.9626 138.608 7.695)"/><use xlink:href="#A" data-text="e" transform="matrix(9.9626 0 0 -9.9626 146.35 7.695)"/><use xlink:href="#F" data-text="x" transform="matrix(9.9626 0 0 -9.9626 150.773 7.695)"/><use xlink:href="#G" data-text="t" transform="matrix(9.9626 0 0 -9.9626 156.033 7.695)"/><use xlink:href="#B" data-text="r" transform="matrix(9.9626 0 0 -9.9626 159.908 7.695)"/><use xlink:href="#H" data-text="a" transform="matrix(9.9626 0 0 -9.9626 163.814 7.695)"/><use xlink:href="#x" data-text="c" transform="matrix(9.9626 0 0 -9.9626 168.795 7.695)"/><use xlink:href="#G" data-text="t" transform="matrix(9.9626 0 0 -9.9626 173.218 7.695)"/><use xlink:href="#I" data-text="i" transform="matrix(9.9626 0 0 -9.9626 177.094 7.695)"/><use xlink:href="#y" data-text="o" transform="matrix(9.9626 0 0 -9.9626 179.863 7.695)"/><use xlink:href="#w" data-text="n" transform="matrix(9.9626 0 0 -9.9626 184.845 7.695)"/></g></svg>